<svg width="553" height="255" viewBox="0 0 553 255" fill="none" xmlns="http://www.w3.org/2000/svg">
<path d="M8.4 19.12C12.6 19.12 15.74 16.1 15.74 12C15.74 7.9 12.6 4.88 8.4 4.88C4.16 4.88 1.04 7.92 1.04 12C1.04 16.08 4.16 19.12 8.4 19.12ZM8.4 17.8C5.02 17.8 2.5 15.34 2.5 12C2.5 8.66 5.02 6.2 8.4 6.2C11.76 6.2 14.26 8.66 14.26 12C14.26 15.34 11.76 17.8 8.4 17.8ZM26.1973 8.48L22.2173 17.44L18.2773 8.48H16.7973L21.4573 19H22.9173L27.5973 8.48H26.1973ZM38.4842 13.74C38.4842 10.58 36.3442 8.4 33.3842 8.4C30.4242 8.4 28.2442 10.62 28.2442 13.74C28.2442 16.86 30.4842 19.1 33.7642 19.1C35.4242 19.1 36.8842 18.5 37.8242 17.38L37.0242 16.46C36.2242 17.38 35.0842 17.84 33.8042 17.84C31.5042 17.84 29.8242 16.38 29.6642 14.18H38.4642C38.4642 14.02 38.4842 13.86 38.4842 13.74ZM33.3842 9.62C35.4442 9.62 36.9442 11.06 37.1242 13.12H29.6642C29.8442 11.06 31.3442 9.62 33.3842 9.62ZM42.7345 10.54V8.48H41.3745V19H42.7945V13.64C42.7945 11.16 44.1345 9.76 46.3345 9.76C46.4345 9.76 46.5545 9.78 46.6745 9.78V8.4C44.7345 8.4 43.3945 9.14 42.7345 10.54ZM52.9061 8.4C51.2461 8.4 49.6861 8.92 48.6261 9.82L49.2661 10.88C50.1261 10.12 51.4061 9.64 52.7661 9.64C54.7261 9.64 55.7461 10.62 55.7461 12.42V13.06H52.4061C49.3861 13.06 48.3461 14.42 48.3461 16.04C48.3461 17.86 49.8061 19.1 52.1861 19.1C53.9261 19.1 55.1661 18.44 55.8061 17.36V19H57.1661V12.48C57.1661 9.76 55.6261 8.4 52.9061 8.4ZM52.4061 17.98C50.7261 17.98 49.7461 17.22 49.7461 16C49.7461 14.92 50.4061 14.12 52.4461 14.12H55.7461V15.84C55.1861 17.22 54.0061 17.98 52.4061 17.98ZM61.023 19H62.443V4.16H61.023V19ZM66.3941 19H67.8141V4.16H66.3941V19ZM87.4395 5L82.0395 17.16L76.6795 5H75.0795L81.2795 19H82.7395L88.9395 5H87.4395ZM99.0506 13.74C99.0506 10.58 96.9106 8.4 93.9506 8.4C90.9906 8.4 88.8106 10.62 88.8106 13.74C88.8106 16.86 91.0506 19.1 94.3306 19.1C95.9906 19.1 97.4506 18.5 98.3906 17.38L97.5906 16.46C96.7906 17.38 95.6506 17.84 94.3706 17.84C92.0706 17.84 90.3906 16.38 90.2306 14.18H99.0306C99.0306 14.02 99.0506 13.86 99.0506 13.74ZM93.9506 9.62C96.0106 9.62 97.5106 11.06 97.6906 13.12H90.2306C90.4106 11.06 91.9106 9.62 93.9506 9.62ZM107.301 8.4C105.521 8.4 104.141 9.1 103.361 10.32V4.16H101.941V19H103.361V13.48C103.361 11.08 104.781 9.68 107.041 9.68C109.041 9.68 110.201 10.82 110.201 13.04V19H111.621V12.9C111.621 9.88 109.861 8.4 107.301 8.4ZM116.196 6.18C116.796 6.18 117.236 5.72 117.236 5.14C117.236 4.6 116.776 4.16 116.196 4.16C115.616 4.16 115.156 4.62 115.156 5.16C115.156 5.72 115.616 6.18 116.196 6.18ZM115.476 19H116.896V8.48H115.476V19ZM125.207 19.1C126.987 19.1 128.487 18.38 129.327 17.02L128.267 16.3C127.547 17.36 126.427 17.84 125.207 17.84C122.907 17.84 121.227 16.22 121.227 13.74C121.227 11.28 122.907 9.64 125.207 9.64C126.427 9.64 127.547 10.14 128.267 11.2L129.327 10.48C128.487 9.1 126.987 8.4 125.207 8.4C122.067 8.4 119.787 10.6 119.787 13.74C119.787 16.88 122.067 19.1 125.207 19.1ZM131.96 19H133.38V4.16H131.96V19ZM146.512 13.74C146.512 10.58 144.372 8.4 141.412 8.4C138.452 8.4 136.272 10.62 136.272 13.74C136.272 16.86 138.512 19.1 141.792 19.1C143.452 19.1 144.912 18.5 145.852 17.38L145.052 16.46C144.252 17.38 143.112 17.84 141.832 17.84C139.532 17.84 137.852 16.38 137.692 14.18H146.492C146.492 14.02 146.512 13.86 146.512 13.74ZM141.412 9.62C143.472 9.62 144.972 11.06 145.152 13.12H137.692C137.872 11.06 139.372 9.62 141.412 9.62ZM166.116 19L162.696 14.2C164.736 13.54 165.896 12 165.896 9.8C165.896 6.8 163.736 5 160.176 5H154.936V19H156.416V14.56H160.176C160.576 14.56 160.936 14.54 161.296 14.5L164.496 19H166.116ZM160.136 13.3H156.416V6.28H160.136C162.936 6.28 164.416 7.56 164.416 9.8C164.416 12 162.936 13.3 160.136 13.3ZM178.269 13.74C178.269 10.58 176.129 8.4 173.169 8.4C170.209 8.4 168.029 10.62 168.029 13.74C168.029 16.86 170.269 19.1 173.549 19.1C175.209 19.1 176.669 18.5 177.609 17.38L176.809 16.46C176.009 17.38 174.869 17.84 173.589 17.84C171.289 17.84 169.609 16.38 169.449 14.18H178.249C178.249 14.02 178.269 13.86 178.269 13.74ZM173.169 9.62C175.229 9.62 176.729 11.06 176.909 13.12H169.449C169.629 11.06 171.129 9.62 173.169 9.62ZM183.98 19.1C186.72 19.1 188.32 17.92 188.32 16.1C188.32 12.06 181.5 14.2 181.5 11.36C181.5 10.36 182.34 9.62 184.24 9.62C185.32 9.62 186.42 9.88 187.34 10.52L187.96 9.38C187.08 8.78 185.6 8.4 184.24 8.4C181.56 8.4 180.08 9.68 180.08 11.4C180.08 15.56 186.9 13.4 186.9 16.14C186.9 17.18 186.08 17.86 184.08 17.86C182.6 17.86 181.18 17.34 180.34 16.68L179.7 17.8C180.56 18.54 182.24 19.1 183.98 19.1ZM199.005 8.48V14C199.005 16.4 197.625 17.82 195.425 17.82C193.425 17.82 192.265 16.68 192.265 14.44V8.48H190.845V14.58C190.845 17.6 192.605 19.1 195.285 19.1C196.965 19.1 198.325 18.36 199.065 17.08V19H200.425V8.48H199.005ZM204.402 19H205.822V4.16H204.402V19ZM214.852 17.34C214.452 17.7 213.872 17.88 213.292 17.88C212.112 17.88 211.472 17.2 211.472 15.96V9.68H214.672V8.48H211.472V6.18H210.052V8.48H208.172V9.68H210.052V16.04C210.052 17.98 211.152 19.1 213.132 19.1C213.952 19.1 214.792 18.86 215.352 18.36L214.852 17.34ZM220.757 19.1C223.497 19.1 225.097 17.92 225.097 16.1C225.097 12.06 218.277 14.2 218.277 11.36C218.277 10.36 219.117 9.62 221.017 9.62C222.097 9.62 223.197 9.88 224.117 10.52L224.737 9.38C223.857 8.78 222.377 8.4 221.017 8.4C218.337 8.4 216.857 9.68 216.857 11.4C216.857 15.56 223.677 13.4 223.677 16.14C223.677 17.18 222.857 17.86 220.857 17.86C219.377 17.86 217.957 17.34 217.117 16.68L216.477 17.8C217.337 18.54 219.017 19.1 220.757 19.1Z" fill="#15181A"/>
<g clip-path="url(#clip0_93_6179)">
<path d="M542.111 12.0001C542.111 11.141 541.415 10.4445 540.556 10.4445C539.696 10.4445 539 11.141 539 12.0001C539 12.8592 539.696 13.5557 540.556 13.5557C541.415 13.5557 542.111 12.8592 542.111 12.0001Z" fill="#444648"/>
<path d="M547.556 12.0001C547.556 11.141 546.86 10.4445 546 10.4445C545.141 10.4445 544.445 11.141 544.445 12.0001C544.445 12.8592 545.141 13.5557 546 13.5557C546.86 13.5557 547.556 12.8592 547.556 12.0001Z" fill="#444648"/>
<path d="M553 12.0001C553 11.141 552.304 10.4445 551.445 10.4445C550.586 10.4445 549.889 11.141 549.889 12.0001C549.889 12.8592 550.586 13.5557 551.445 13.5557C552.304 13.5557 553 12.8592 553 12.0001Z" fill="#444648"/>
</g>
<path opacity="0.8" d="M97.746 63.448C98.772 62.908 99.42 61.936 99.42 60.676C99.42 58.714 97.8 57.4 94.65 57.4H88.494V70H95.01C98.322 70 100.05 68.74 100.05 66.562C100.05 64.978 99.15 63.898 97.746 63.448ZM94.29 59.596C95.712 59.596 96.486 60.082 96.486 61.072C96.486 62.062 95.712 62.566 94.29 62.566H91.392V59.596H94.29ZM94.794 67.804H91.392V64.69H94.794C96.306 64.69 97.116 65.194 97.116 66.256C97.116 67.336 96.306 67.804 94.794 67.804ZM104.742 61.594V60.316H102.06V70H104.868V65.428C104.868 63.574 105.894 62.728 107.442 62.728C107.658 62.728 107.838 62.746 108.072 62.764V60.172C106.578 60.172 105.426 60.658 104.742 61.594ZM119.139 65.194C119.139 62.08 116.943 60.172 114.099 60.172C111.147 60.172 108.933 62.26 108.933 65.158C108.933 68.038 111.111 70.144 114.459 70.144C116.205 70.144 117.555 69.604 118.455 68.578L116.961 66.958C116.295 67.588 115.557 67.894 114.531 67.894C113.055 67.894 112.029 67.156 111.759 65.95H119.085C119.103 65.716 119.139 65.41 119.139 65.194ZM114.117 62.296C115.377 62.296 116.295 63.088 116.493 64.312H111.723C111.921 63.07 112.839 62.296 114.117 62.296ZM124.651 60.172C123.103 60.172 121.537 60.586 120.475 61.342L121.483 63.304C122.185 62.746 123.247 62.404 124.273 62.404C125.785 62.404 126.505 63.106 126.505 64.312H124.273C121.321 64.312 120.115 65.5 120.115 67.21C120.115 68.884 121.465 70.144 123.733 70.144C125.155 70.144 126.163 69.676 126.685 68.794V70H129.313V64.474C129.313 61.54 127.603 60.172 124.651 60.172ZM124.435 68.254C123.445 68.254 122.851 67.786 122.851 67.084C122.851 66.436 123.265 65.95 124.579 65.95H126.505V66.94C126.181 67.822 125.371 68.254 124.435 68.254ZM139.073 70H142.475L138.083 64.42L142.115 60.316H138.767L134.663 64.204V56.644H131.855V70H134.663V67.534L136.013 66.202L139.073 70ZM145.071 58.966C146.115 58.966 146.817 58.282 146.817 57.346C146.817 56.482 146.115 55.834 145.071 55.834C144.027 55.834 143.325 56.518 143.325 57.4C143.325 58.282 144.027 58.966 145.071 58.966ZM143.667 70H146.475V60.316H143.667V70ZM154.967 60.172C153.653 60.172 152.519 60.622 151.763 61.45V60.316H149.081V70H151.889V65.212C151.889 63.43 152.861 62.602 154.211 62.602C155.453 62.602 156.173 63.322 156.173 64.888V70H158.981V64.456C158.981 61.504 157.253 60.172 154.967 60.172ZM168.958 60.316V61.558C168.22 60.622 167.104 60.172 165.754 60.172C163.072 60.172 160.912 62.026 160.912 64.852C160.912 67.678 163.072 69.532 165.754 69.532C167.014 69.532 168.076 69.136 168.814 68.326V68.74C168.814 70.486 167.95 71.386 165.97 71.386C164.728 71.386 163.378 70.954 162.55 70.288L161.434 72.304C162.568 73.186 164.35 73.636 166.186 73.636C169.678 73.636 171.622 71.98 171.622 68.38V60.316H168.958ZM166.312 67.228C164.836 67.228 163.756 66.274 163.756 64.852C163.756 63.43 164.836 62.476 166.312 62.476C167.788 62.476 168.85 63.43 168.85 64.852C168.85 66.274 167.788 67.228 166.312 67.228ZM184.985 57.4H179.531V70H182.447V66.526H184.985C188.351 66.526 190.457 64.78 190.457 61.972C190.457 59.146 188.351 57.4 184.985 57.4ZM184.823 64.15H182.447V59.776H184.823C186.605 59.776 187.505 60.586 187.505 61.972C187.505 63.34 186.605 64.15 184.823 64.15ZM196.931 70.144C200.009 70.144 202.241 68.074 202.241 65.158C202.241 62.242 200.009 60.172 196.931 60.172C193.853 60.172 191.603 62.242 191.603 65.158C191.603 68.074 193.853 70.144 196.931 70.144ZM196.931 67.84C195.527 67.84 194.447 66.832 194.447 65.158C194.447 63.484 195.527 62.476 196.931 62.476C198.335 62.476 199.397 63.484 199.397 65.158C199.397 66.832 198.335 67.84 196.931 67.84ZM216.923 60.316L214.565 66.868L212.261 60.316H209.885L207.509 66.868L205.223 60.316H202.577L206.069 70H208.769L211.019 63.988L213.197 70H215.897L219.407 60.316H216.923ZM229.934 65.194C229.934 62.08 227.738 60.172 224.894 60.172C221.942 60.172 219.728 62.26 219.728 65.158C219.728 68.038 221.906 70.144 225.254 70.144C227 70.144 228.35 69.604 229.25 68.578L227.756 66.958C227.09 67.588 226.352 67.894 225.326 67.894C223.85 67.894 222.824 67.156 222.554 65.95H229.88C229.898 65.716 229.934 65.41 229.934 65.194ZM224.912 62.296C226.172 62.296 227.09 63.088 227.288 64.312H222.518C222.716 63.07 223.634 62.296 224.912 62.296ZM234.486 61.594V60.316H231.804V70H234.612V65.428C234.612 63.574 235.638 62.728 237.186 62.728C237.402 62.728 237.582 62.746 237.816 62.764V60.172C236.322 60.172 235.17 60.658 234.486 61.594Z" fill="#15181A"/>
<path d="M507.763 56.4V58.74H510.283V69H513.199V56.4H507.763ZM519.708 61.134H518.682L518.88 58.74H524.136V56.4H516.45L515.802 63.492H519.024C521.31 63.492 521.958 64.14 521.958 65.13C521.958 66.156 521.058 66.768 519.6 66.768C518.286 66.768 516.972 66.354 516.018 65.634L514.866 67.866C516.09 68.73 517.926 69.216 519.672 69.216C523.272 69.216 524.91 67.272 524.91 65.04C524.91 62.808 523.434 61.134 519.708 61.134ZM528.833 63.204C530.669 63.204 531.947 61.872 531.947 59.73C531.947 57.588 530.669 56.256 528.833 56.256C526.997 56.256 525.701 57.606 525.701 59.73C525.701 61.854 526.997 63.204 528.833 63.204ZM527.735 69H529.877L538.481 56.4H536.339L527.735 69ZM528.833 61.728C528.059 61.728 527.519 61.062 527.519 59.73C527.519 58.398 528.059 57.732 528.833 57.732C529.625 57.732 530.147 58.38 530.147 59.73C530.147 61.08 529.625 61.728 528.833 61.728ZM537.383 69.144C539.219 69.144 540.515 67.794 540.515 65.67C540.515 63.546 539.219 62.196 537.383 62.196C535.565 62.196 534.269 63.546 534.269 65.67C534.269 67.794 535.565 69.144 537.383 69.144ZM537.383 67.668C536.609 67.668 536.069 67.02 536.069 65.67C536.069 64.32 536.609 63.672 537.383 63.672C538.175 63.672 538.697 64.338 538.697 65.67C538.697 67.002 538.175 67.668 537.383 67.668Z" fill="#424546"/>
<path opacity="0.7" d="M94.77 92.946C95.666 92.582 96.268 91.84 96.268 90.72C96.268 89.124 95.008 88.2 92.824 88.2H88.596V98H93.104C95.554 98 96.786 97.048 96.786 95.382C96.786 94.052 96.03 93.226 94.77 92.946ZM92.754 89.054C94.322 89.054 95.232 89.656 95.232 90.832C95.232 92.008 94.322 92.61 92.754 92.61H89.632V89.054H92.754ZM93.09 97.146H89.632V93.464H93.09C94.812 93.464 95.75 94.024 95.75 95.298C95.75 96.586 94.812 97.146 93.09 97.146ZM101.517 90.58C100.355 90.58 99.2627 90.944 98.5207 91.574L98.9687 92.316C99.5707 91.784 100.467 91.448 101.419 91.448C102.791 91.448 103.505 92.134 103.505 93.394V93.842H101.167C99.0527 93.842 98.3247 94.794 98.3247 95.928C98.3247 97.202 99.3467 98.07 101.013 98.07C102.231 98.07 103.099 97.608 103.547 96.852V98H104.499V93.436C104.499 91.532 103.421 90.58 101.517 90.58ZM101.167 97.286C99.9907 97.286 99.3047 96.754 99.3047 95.9C99.3047 95.144 99.7667 94.584 101.195 94.584H103.505V95.788C103.113 96.754 102.287 97.286 101.167 97.286ZM109.173 98.07C111.091 98.07 112.211 97.244 112.211 95.97C112.211 93.142 107.437 94.64 107.437 92.652C107.437 91.952 108.025 91.434 109.355 91.434C110.111 91.434 110.881 91.616 111.525 92.064L111.959 91.266C111.343 90.846 110.307 90.58 109.355 90.58C107.479 90.58 106.443 91.476 106.443 92.68C106.443 95.592 111.217 94.08 111.217 95.998C111.217 96.726 110.643 97.202 109.243 97.202C108.207 97.202 107.213 96.838 106.625 96.376L106.177 97.16C106.779 97.678 107.955 98.07 109.173 98.07ZM120.474 94.318C120.474 92.106 118.976 90.58 116.904 90.58C114.832 90.58 113.306 92.134 113.306 94.318C113.306 96.502 114.874 98.07 117.17 98.07C118.332 98.07 119.354 97.65 120.012 96.866L119.452 96.222C118.892 96.866 118.094 97.188 117.198 97.188C115.588 97.188 114.412 96.166 114.3 94.626H120.46C120.46 94.514 120.474 94.402 120.474 94.318ZM116.904 91.434C118.346 91.434 119.396 92.442 119.522 93.884H114.3C114.426 92.442 115.476 91.434 116.904 91.434ZM128.223 87.612V92.036C127.607 91.084 126.599 90.58 125.423 90.58C123.323 90.58 121.755 92.092 121.755 94.318C121.755 96.544 123.323 98.07 125.423 98.07C126.641 98.07 127.663 97.538 128.265 96.544V98H129.217V87.612H128.223ZM125.507 97.188C123.939 97.188 122.763 96.04 122.763 94.318C122.763 92.596 123.939 91.448 125.507 91.448C127.061 91.448 128.237 92.596 128.237 94.318C128.237 96.04 127.061 97.188 125.507 97.188ZM138.66 98.07C140.816 98.07 142.398 96.502 142.398 94.318C142.398 92.134 140.816 90.58 138.66 90.58C136.504 90.58 134.908 92.134 134.908 94.318C134.908 96.502 136.504 98.07 138.66 98.07ZM138.66 97.188C137.092 97.188 135.916 96.04 135.916 94.318C135.916 92.596 137.092 91.448 138.66 91.448C140.228 91.448 141.39 92.596 141.39 94.318C141.39 96.04 140.228 97.188 138.66 97.188ZM148.179 90.58C146.905 90.58 145.911 91.098 145.379 91.994V90.636H144.427V98H145.421V94.136C145.421 92.456 146.415 91.476 147.997 91.476C149.397 91.476 150.209 92.274 150.209 93.828V98H151.203V93.73C151.203 91.616 149.971 90.58 148.179 90.58ZM161.094 96.838C160.814 97.09 160.408 97.216 160.002 97.216C159.176 97.216 158.728 96.74 158.728 95.872V91.476H160.968V90.636H158.728V89.026H157.734V90.636H156.418V91.476H157.734V95.928C157.734 97.286 158.504 98.07 159.89 98.07C160.464 98.07 161.052 97.902 161.444 97.552L161.094 96.838ZM167.005 90.58C165.759 90.58 164.793 91.07 164.247 91.924V87.612H163.253V98H164.247V94.136C164.247 92.456 165.241 91.476 166.823 91.476C168.223 91.476 169.035 92.274 169.035 93.828V98H170.029V93.73C170.029 91.616 168.797 90.58 167.005 90.58ZM179.181 94.318C179.181 92.106 177.683 90.58 175.611 90.58C173.539 90.58 172.013 92.134 172.013 94.318C172.013 96.502 173.581 98.07 175.877 98.07C177.039 98.07 178.061 97.65 178.719 96.866L178.159 96.222C177.599 96.866 176.801 97.188 175.905 97.188C174.295 97.188 173.119 96.166 173.007 94.626H179.167C179.167 94.514 179.181 94.402 179.181 94.318ZM175.611 91.434C177.053 91.434 178.103 92.442 178.229 93.884H173.007C173.133 92.442 174.183 91.434 175.611 91.434ZM186.842 98.07C188.76 98.07 189.88 97.244 189.88 95.97C189.88 93.142 185.106 94.64 185.106 92.652C185.106 91.952 185.694 91.434 187.024 91.434C187.78 91.434 188.55 91.616 189.194 92.064L189.628 91.266C189.012 90.846 187.976 90.58 187.024 90.58C185.148 90.58 184.112 91.476 184.112 92.68C184.112 95.592 188.886 94.08 188.886 95.998C188.886 96.726 188.312 97.202 186.912 97.202C185.876 97.202 184.882 96.838 184.294 96.376L183.846 97.16C184.448 97.678 185.624 98.07 186.842 98.07ZM198.144 94.318C198.144 92.106 196.646 90.58 194.574 90.58C192.502 90.58 190.976 92.134 190.976 94.318C190.976 96.502 192.544 98.07 194.84 98.07C196.002 98.07 197.024 97.65 197.682 96.866L197.122 96.222C196.562 96.866 195.764 97.188 194.868 97.188C193.258 97.188 192.082 96.166 191.97 94.626H198.13C198.13 94.514 198.144 94.402 198.144 94.318ZM194.574 91.434C196.016 91.434 197.066 92.442 197.192 93.884H191.97C192.096 92.442 193.146 91.434 194.574 91.434ZM200.167 98H201.161V87.612H200.167V98ZM210.353 94.318C210.353 92.106 208.855 90.58 206.783 90.58C204.711 90.58 203.185 92.134 203.185 94.318C203.185 96.502 204.753 98.07 207.049 98.07C208.211 98.07 209.233 97.65 209.891 96.866L209.331 96.222C208.771 96.866 207.973 97.188 207.077 97.188C205.467 97.188 204.291 96.166 204.179 94.626H210.339C210.339 94.514 210.353 94.402 210.353 94.318ZM206.783 91.434C208.225 91.434 209.275 92.442 209.401 93.884H204.179C204.305 92.442 205.355 91.434 206.783 91.434ZM215.428 98.07C216.674 98.07 217.724 97.566 218.312 96.614L217.57 96.11C217.066 96.852 216.282 97.188 215.428 97.188C213.818 97.188 212.642 96.054 212.642 94.318C212.642 92.596 213.818 91.448 215.428 91.448C216.282 91.448 217.066 91.798 217.57 92.54L218.312 92.036C217.724 91.07 216.674 90.58 215.428 90.58C213.23 90.58 211.634 92.12 211.634 94.318C211.634 96.516 213.23 98.07 215.428 98.07ZM223.875 96.838C223.595 97.09 223.189 97.216 222.783 97.216C221.957 97.216 221.509 96.74 221.509 95.872V91.476H223.749V90.636H221.509V89.026H220.515V90.636H219.199V91.476H220.515V95.928C220.515 97.286 221.285 98.07 222.671 98.07C223.245 98.07 223.833 97.902 224.225 97.552L223.875 96.838ZM226.538 89.026C226.958 89.026 227.266 88.704 227.266 88.298C227.266 87.92 226.944 87.612 226.538 87.612C226.132 87.612 225.81 87.934 225.81 88.312C225.81 88.704 226.132 89.026 226.538 89.026ZM226.034 98H227.028V90.636H226.034V98ZM232.804 98.07C234.96 98.07 236.542 96.502 236.542 94.318C236.542 92.134 234.96 90.58 232.804 90.58C230.648 90.58 229.052 92.134 229.052 94.318C229.052 96.502 230.648 98.07 232.804 98.07ZM232.804 97.188C231.236 97.188 230.06 96.04 230.06 94.318C230.06 92.596 231.236 91.448 232.804 91.448C234.372 91.448 235.534 92.596 235.534 94.318C235.534 96.04 234.372 97.188 232.804 97.188ZM242.324 90.58C241.05 90.58 240.056 91.098 239.524 91.994V90.636H238.572V98H239.566V94.136C239.566 92.456 240.56 91.476 242.142 91.476C243.542 91.476 244.354 92.274 244.354 93.828V98H245.348V93.73C245.348 91.616 244.116 90.58 242.324 90.58ZM254.72 98.07C256.876 98.07 258.458 96.502 258.458 94.318C258.458 92.134 256.876 90.58 254.72 90.58C252.564 90.58 250.968 92.134 250.968 94.318C250.968 96.502 252.564 98.07 254.72 98.07ZM254.72 97.188C253.152 97.188 251.976 96.04 251.976 94.318C251.976 92.596 253.152 91.448 254.72 91.448C256.288 91.448 257.45 92.596 257.45 94.318C257.45 96.04 256.288 97.188 254.72 97.188ZM262.924 88.382C263.344 88.382 263.736 88.508 264.016 88.746L264.352 88.004C263.988 87.696 263.428 87.542 262.882 87.542C261.44 87.542 260.656 88.41 260.656 89.726V90.636H259.34V91.476H260.656V98H261.65V91.476H263.89V90.636H261.622V89.768C261.622 88.858 262.07 88.382 262.924 88.382ZM275.28 92.946C276.176 92.582 276.778 91.84 276.778 90.72C276.778 89.124 275.518 88.2 273.334 88.2H269.106V98H273.614C276.064 98 277.296 97.048 277.296 95.382C277.296 94.052 276.54 93.226 275.28 92.946ZM273.264 89.054C274.832 89.054 275.742 89.656 275.742 90.832C275.742 92.008 274.832 92.61 273.264 92.61H270.142V89.054H273.264ZM273.6 97.146H270.142V93.464H273.6C275.322 93.464 276.26 94.024 276.26 95.298C276.26 96.586 275.322 97.146 273.6 97.146ZM280.402 92.078V90.636H279.45V98H280.444V94.248C280.444 92.512 281.382 91.532 282.922 91.532C282.992 91.532 283.076 91.546 283.16 91.546V90.58C281.802 90.58 280.864 91.098 280.402 92.078ZM291.318 94.318C291.318 92.106 289.82 90.58 287.748 90.58C285.676 90.58 284.15 92.134 284.15 94.318C284.15 96.502 285.718 98.07 288.014 98.07C289.176 98.07 290.198 97.65 290.856 96.866L290.296 96.222C289.736 96.866 288.938 97.188 288.042 97.188C286.432 97.188 285.256 96.166 285.144 94.626H291.304C291.304 94.514 291.318 94.402 291.318 94.318ZM287.748 91.434C289.19 91.434 290.24 92.442 290.366 93.884H285.144C285.27 92.442 286.32 91.434 287.748 91.434ZM302.525 90.58C301.195 90.58 300.145 91.182 299.613 92.134C299.165 91.098 298.213 90.58 296.995 90.58C295.763 90.58 294.811 91.098 294.293 91.98V90.636H293.341V98H294.335V94.136C294.335 92.456 295.301 91.476 296.799 91.476C298.143 91.476 298.927 92.274 298.927 93.828V98H299.921V94.136C299.921 92.456 300.873 91.476 302.385 91.476C303.715 91.476 304.499 92.274 304.499 93.828V98H305.493V93.73C305.493 91.616 304.317 90.58 302.525 90.58ZM311.983 90.58C310.807 90.58 309.799 91.084 309.183 92.036V87.612H308.189V98H309.141V96.544C309.743 97.538 310.765 98.07 311.983 98.07C314.083 98.07 315.651 96.544 315.651 94.318C315.651 92.092 314.083 90.58 311.983 90.58ZM311.913 97.188C310.345 97.188 309.169 96.04 309.169 94.318C309.169 92.596 310.345 91.448 311.913 91.448C313.467 91.448 314.657 92.596 314.657 94.318C314.657 96.04 313.467 97.188 311.913 97.188ZM320.687 98.07C322.843 98.07 324.425 96.502 324.425 94.318C324.425 92.134 322.843 90.58 320.687 90.58C318.531 90.58 316.935 92.134 316.935 94.318C316.935 96.502 318.531 98.07 320.687 98.07ZM320.687 97.188C319.119 97.188 317.943 96.04 317.943 94.318C317.943 92.596 319.119 91.448 320.687 91.448C322.255 91.448 323.417 92.596 323.417 94.318C323.417 96.04 322.255 97.188 320.687 97.188ZM333.912 90.58C332.736 90.58 331.728 91.084 331.112 92.036V87.612H330.118V98H331.07V96.544C331.672 97.538 332.694 98.07 333.912 98.07C336.012 98.07 337.58 96.544 337.58 94.318C337.58 92.092 336.012 90.58 333.912 90.58ZM333.842 97.188C332.274 97.188 331.098 96.04 331.098 94.318C331.098 92.596 332.274 91.448 333.842 91.448C335.396 91.448 336.586 92.596 336.586 94.318C336.586 96.04 335.396 97.188 333.842 97.188ZM340.559 92.078V90.636H339.607V98H340.601V94.248C340.601 92.512 341.539 91.532 343.079 91.532C343.149 91.532 343.233 91.546 343.317 91.546V90.58C341.959 90.58 341.021 91.098 340.559 92.078ZM351.474 94.318C351.474 92.106 349.976 90.58 347.904 90.58C345.832 90.58 344.306 92.134 344.306 94.318C344.306 96.502 345.874 98.07 348.17 98.07C349.332 98.07 350.354 97.65 351.012 96.866L350.452 96.222C349.892 96.866 349.094 97.188 348.198 97.188C346.588 97.188 345.412 96.166 345.3 94.626H351.46C351.46 94.514 351.474 94.402 351.474 94.318ZM347.904 91.434C349.346 91.434 350.396 92.442 350.522 93.884H345.3C345.426 92.442 346.476 91.434 347.904 91.434ZM355.868 90.58C354.706 90.58 353.614 90.944 352.872 91.574L353.32 92.316C353.922 91.784 354.818 91.448 355.77 91.448C357.142 91.448 357.856 92.134 357.856 93.394V93.842H355.518C353.404 93.842 352.676 94.794 352.676 95.928C352.676 97.202 353.698 98.07 355.364 98.07C356.582 98.07 357.45 97.608 357.898 96.852V98H358.85V93.436C358.85 91.532 357.772 90.58 355.868 90.58ZM355.518 97.286C354.342 97.286 353.656 96.754 353.656 95.9C353.656 95.144 354.118 94.584 355.546 94.584H357.856V95.788C357.464 96.754 356.638 97.286 355.518 97.286ZM367.248 98H368.466L365.022 93.646L368.172 90.636H366.94L362.544 94.654V87.612H361.55V98H362.544V95.9L364.28 94.304L367.248 98ZM377.5 88.2H373.832V98H374.868V94.906H377.5C379.992 94.906 381.504 93.646 381.504 91.56C381.504 89.46 379.992 88.2 377.5 88.2ZM377.472 93.996H374.868V89.096H377.472C379.432 89.096 380.468 89.992 380.468 91.56C380.468 93.1 379.432 93.996 377.472 93.996ZM386.042 90.58C384.88 90.58 383.788 90.944 383.046 91.574L383.494 92.316C384.096 91.784 384.992 91.448 385.944 91.448C387.316 91.448 388.03 92.134 388.03 93.394V93.842H385.692C383.578 93.842 382.85 94.794 382.85 95.928C382.85 97.202 383.872 98.07 385.538 98.07C386.756 98.07 387.624 97.608 388.072 96.852V98H389.024V93.436C389.024 91.532 387.946 90.58 386.042 90.58ZM385.692 97.286C384.516 97.286 383.83 96.754 383.83 95.9C383.83 95.144 384.292 94.584 385.72 94.584H388.03V95.788C387.638 96.754 386.812 97.286 385.692 97.286ZM397.477 87.612V92.036C396.861 91.084 395.853 90.58 394.677 90.58C392.577 90.58 391.009 92.092 391.009 94.318C391.009 96.544 392.577 98.07 394.677 98.07C395.895 98.07 396.917 97.538 397.519 96.544V98H398.471V87.612H397.477ZM394.761 97.188C393.193 97.188 392.017 96.04 392.017 94.318C392.017 92.596 393.193 91.448 394.761 91.448C396.315 91.448 397.491 92.596 397.491 94.318C397.491 96.04 396.315 97.188 394.761 97.188ZM405.548 97.104L408.88 93.828C410.196 92.54 410.49 91.7 410.49 90.762C410.49 89.124 409.23 88.116 407.242 88.116C405.744 88.116 404.526 88.62 403.77 89.516L404.484 90.132C405.128 89.39 406.01 89.04 407.158 89.04C408.656 89.04 409.454 89.74 409.454 90.874C409.454 91.546 409.244 92.204 408.138 93.296L404.064 97.286V98H410.938V97.104H405.548Z" fill="#15181A"/>
<rect opacity="0.4" x="56" y="70" width="53" height="12" transform="rotate(-180 56 70)" fill="#424546"/>
<rect opacity="0.6" x="56" y="70" width="19" height="12" transform="rotate(-180 56 70)" fill="url(#paint0_linear_93_6179)"/>
<rect width="11" height="12" transform="matrix(-1 0 0 1 69 58)" fill="#15181A"/>
<path d="M483.125 63H487.624V70.875H494.374V63H498.874L490.999 55.125L483.125 63Z" fill="#469931"/>
<path opacity="0.8" d="M94.596 147.216C98.556 147.216 101.49 144.462 101.49 140.7C101.49 136.938 98.556 134.184 94.596 134.184C90.618 134.184 87.702 136.956 87.702 140.7C87.702 144.444 90.618 147.216 94.596 147.216ZM94.596 144.732C92.346 144.732 90.654 143.094 90.654 140.7C90.654 138.306 92.346 136.668 94.596 136.668C96.846 136.668 98.538 138.306 98.538 140.7C98.538 143.094 96.846 144.732 94.596 144.732ZM110.396 137.316L107.624 143.904L104.942 137.316H102.043L106.112 147H109.01L113.096 137.316H110.396ZM123.464 142.194C123.464 139.08 121.268 137.172 118.424 137.172C115.472 137.172 113.258 139.26 113.258 142.158C113.258 145.038 115.436 147.144 118.784 147.144C120.53 147.144 121.88 146.604 122.78 145.578L121.286 143.958C120.62 144.588 119.882 144.894 118.856 144.894C117.38 144.894 116.354 144.156 116.084 142.95H123.41C123.428 142.716 123.464 142.41 123.464 142.194ZM118.442 139.296C119.702 139.296 120.62 140.088 120.818 141.312H116.048C116.246 140.07 117.164 139.296 118.442 139.296ZM128.015 138.594V137.316H125.333V147H128.141V142.428C128.141 140.574 129.167 139.728 130.715 139.728C130.931 139.728 131.111 139.746 131.345 139.764V137.172C129.851 137.172 128.699 137.658 128.015 138.594ZM136.868 137.172C135.32 137.172 133.754 137.586 132.692 138.342L133.7 140.304C134.402 139.746 135.464 139.404 136.49 139.404C138.002 139.404 138.722 140.106 138.722 141.312H136.49C133.538 141.312 132.332 142.5 132.332 144.21C132.332 145.884 133.682 147.144 135.95 147.144C137.372 147.144 138.38 146.676 138.902 145.794V147H141.53V141.474C141.53 138.54 139.82 137.172 136.868 137.172ZM136.652 145.254C135.662 145.254 135.068 144.786 135.068 144.084C135.068 143.436 135.482 142.95 136.796 142.95H138.722V143.94C138.398 144.822 137.588 145.254 136.652 145.254ZM144.071 147H146.879V133.644H144.071V147ZM149.485 147H152.293V133.644H149.485V147ZM165.649 134.4H160.195V147H163.111V143.526H165.649C169.015 143.526 171.121 141.78 171.121 138.972C171.121 136.146 169.015 134.4 165.649 134.4ZM165.487 141.15H163.111V136.776H165.487C167.269 136.776 168.169 137.586 168.169 138.972C168.169 140.34 167.269 141.15 165.487 141.15ZM182.473 142.194C182.473 139.08 180.277 137.172 177.433 137.172C174.481 137.172 172.267 139.26 172.267 142.158C172.267 145.038 174.445 147.144 177.793 147.144C179.539 147.144 180.889 146.604 181.789 145.578L180.295 143.958C179.629 144.588 178.891 144.894 177.865 144.894C176.389 144.894 175.363 144.156 175.093 142.95H182.419C182.437 142.716 182.473 142.41 182.473 142.194ZM177.451 139.296C178.711 139.296 179.629 140.088 179.827 141.312H175.057C175.255 140.07 176.173 139.296 177.451 139.296ZM187.025 138.594V137.316H184.343V147H187.151V142.428C187.151 140.574 188.177 139.728 189.725 139.728C189.941 139.728 190.121 139.746 190.355 139.764V137.172C188.861 137.172 187.709 137.658 187.025 138.594ZM195.173 137.118C195.173 136.164 195.623 135.714 196.451 135.714C196.883 135.714 197.279 135.84 197.585 136.056L198.323 134.022C197.801 133.662 196.973 133.5 196.181 133.5C193.769 133.5 192.437 134.922 192.437 137.1V137.532H190.943V139.692H192.437V147H195.245V139.692H197.657V137.532H195.173V137.118ZM203.541 147.144C206.619 147.144 208.851 145.074 208.851 142.158C208.851 139.242 206.619 137.172 203.541 137.172C200.463 137.172 198.213 139.242 198.213 142.158C198.213 145.074 200.463 147.144 203.541 147.144ZM203.541 144.84C202.137 144.84 201.057 143.832 201.057 142.158C201.057 140.484 202.137 139.476 203.541 139.476C204.945 139.476 206.007 140.484 206.007 142.158C206.007 143.832 204.945 144.84 203.541 144.84ZM213.41 138.594V137.316H210.728V147H213.536V142.428C213.536 140.574 214.562 139.728 216.11 139.728C216.326 139.728 216.506 139.746 216.74 139.764V137.172C215.246 137.172 214.094 137.658 213.41 138.594ZM230.811 137.172C229.353 137.172 228.093 137.766 227.319 138.756C226.635 137.694 225.483 137.172 224.133 137.172C222.891 137.172 221.811 137.604 221.091 138.432V137.316H218.409V147H221.217V142.14C221.217 140.412 222.099 139.602 223.341 139.602C224.511 139.602 225.177 140.322 225.177 141.888V147H227.985V142.14C227.985 140.412 228.867 139.602 230.127 139.602C231.261 139.602 231.963 140.322 231.963 141.888V147H234.771V141.456C234.771 138.504 233.115 137.172 230.811 137.172ZM241.194 137.172C239.646 137.172 238.08 137.586 237.018 138.342L238.026 140.304C238.728 139.746 239.79 139.404 240.816 139.404C242.328 139.404 243.048 140.106 243.048 141.312H240.816C237.864 141.312 236.658 142.5 236.658 144.21C236.658 145.884 238.008 147.144 240.276 147.144C241.698 147.144 242.706 146.676 243.228 145.794V147H245.856V141.474C245.856 138.54 244.146 137.172 241.194 137.172ZM240.978 145.254C239.988 145.254 239.394 144.786 239.394 144.084C239.394 143.436 239.808 142.95 241.122 142.95H243.048V143.94C242.724 144.822 241.914 145.254 240.978 145.254ZM254.284 137.172C252.97 137.172 251.836 137.622 251.08 138.45V137.316H248.398V147H251.206V142.212C251.206 140.43 252.178 139.602 253.528 139.602C254.77 139.602 255.49 140.322 255.49 141.888V147H258.298V141.456C258.298 138.504 256.57 137.172 254.284 137.172ZM265.628 147.144C267.662 147.144 269.264 146.244 269.966 144.696L267.788 143.508C267.266 144.444 266.492 144.84 265.61 144.84C264.188 144.84 263.072 143.85 263.072 142.158C263.072 140.466 264.188 139.476 265.61 139.476C266.492 139.476 267.266 139.89 267.788 140.808L269.966 139.638C269.264 138.054 267.662 137.172 265.628 137.172C262.478 137.172 260.228 139.242 260.228 142.158C260.228 145.074 262.478 147.144 265.628 147.144ZM280.946 142.194C280.946 139.08 278.75 137.172 275.906 137.172C272.954 137.172 270.74 139.26 270.74 142.158C270.74 145.038 272.918 147.144 276.266 147.144C278.012 147.144 279.362 146.604 280.262 145.578L278.768 143.958C278.102 144.588 277.364 144.894 276.338 144.894C274.862 144.894 273.836 144.156 273.566 142.95H280.892C280.91 142.716 280.946 142.41 280.946 142.194ZM275.924 139.296C277.184 139.296 278.102 140.088 278.3 141.312H273.53C273.728 140.07 274.646 139.296 275.924 139.296Z" fill="#15181A"/>
<rect opacity="0.4" x="44" y="147" width="41" height="12" transform="rotate(-180 44 147)" fill="#424546"/>
<rect opacity="0.7" x="56" y="147" width="3" height="12" transform="rotate(-180 56 147)" fill="url(#paint1_linear_93_6179)"/>
<rect width="6" height="12" transform="matrix(-1 0 0 1 52 135)" fill="#15181A"/>
<path d="M521.326 138.53L524.17 135.29V133.4H515.35V135.74H520.714L518.122 138.674V140.6H519.454C521.11 140.6 521.812 141.194 521.812 142.148C521.812 143.174 520.912 143.768 519.454 143.768C518.14 143.768 516.808 143.354 515.854 142.634L514.72 144.866C515.944 145.73 517.762 146.216 519.526 146.216C523.108 146.216 524.746 144.272 524.746 142.148C524.746 140.294 523.594 138.89 521.326 138.53ZM528.833 140.204C530.669 140.204 531.947 138.872 531.947 136.73C531.947 134.588 530.669 133.256 528.833 133.256C526.997 133.256 525.701 134.606 525.701 136.73C525.701 138.854 526.997 140.204 528.833 140.204ZM527.735 146H529.877L538.481 133.4H536.339L527.735 146ZM528.833 138.728C528.059 138.728 527.519 138.062 527.519 136.73C527.519 135.398 528.059 134.732 528.833 134.732C529.625 134.732 530.147 135.38 530.147 136.73C530.147 138.08 529.625 138.728 528.833 138.728ZM537.383 146.144C539.219 146.144 540.515 144.794 540.515 142.67C540.515 140.546 539.219 139.196 537.383 139.196C535.565 139.196 534.269 140.546 534.269 142.67C534.269 144.794 535.565 146.144 537.383 146.144ZM537.383 144.668C536.609 144.668 536.069 144.02 536.069 142.67C536.069 141.32 536.609 140.672 537.383 140.672C538.175 140.672 538.697 141.338 538.697 142.67C538.697 144.002 538.175 144.668 537.383 144.668Z" fill="#424546"/>
<path d="M498.875 142H494.376V134.125H487.626V142H483.126L491.001 149.875L498.875 142Z" fill="#E23620"/>
<path opacity="0.7" d="M94.77 169.946C95.666 169.582 96.268 168.84 96.268 167.72C96.268 166.124 95.008 165.2 92.824 165.2H88.596V175H93.104C95.554 175 96.786 174.048 96.786 172.382C96.786 171.052 96.03 170.226 94.77 169.946ZM92.754 166.054C94.322 166.054 95.232 166.656 95.232 167.832C95.232 169.008 94.322 169.61 92.754 169.61H89.632V166.054H92.754ZM93.09 174.146H89.632V170.464H93.09C94.812 170.464 95.75 171.024 95.75 172.298C95.75 173.586 94.812 174.146 93.09 174.146ZM101.517 167.58C100.355 167.58 99.2627 167.944 98.5207 168.574L98.9687 169.316C99.5707 168.784 100.467 168.448 101.419 168.448C102.791 168.448 103.505 169.134 103.505 170.394V170.842H101.167C99.0527 170.842 98.3247 171.794 98.3247 172.928C98.3247 174.202 99.3467 175.07 101.013 175.07C102.231 175.07 103.099 174.608 103.547 173.852V175H104.499V170.436C104.499 168.532 103.421 167.58 101.517 167.58ZM101.167 174.286C99.9907 174.286 99.3047 173.754 99.3047 172.9C99.3047 172.144 99.7667 171.584 101.195 171.584H103.505V172.788C103.113 173.754 102.287 174.286 101.167 174.286ZM109.173 175.07C111.091 175.07 112.211 174.244 112.211 172.97C112.211 170.142 107.437 171.64 107.437 169.652C107.437 168.952 108.025 168.434 109.355 168.434C110.111 168.434 110.881 168.616 111.525 169.064L111.959 168.266C111.343 167.846 110.307 167.58 109.355 167.58C107.479 167.58 106.443 168.476 106.443 169.68C106.443 172.592 111.217 171.08 111.217 172.998C111.217 173.726 110.643 174.202 109.243 174.202C108.207 174.202 107.213 173.838 106.625 173.376L106.177 174.16C106.779 174.678 107.955 175.07 109.173 175.07ZM120.474 171.318C120.474 169.106 118.976 167.58 116.904 167.58C114.832 167.58 113.306 169.134 113.306 171.318C113.306 173.502 114.874 175.07 117.17 175.07C118.332 175.07 119.354 174.65 120.012 173.866L119.452 173.222C118.892 173.866 118.094 174.188 117.198 174.188C115.588 174.188 114.412 173.166 114.3 171.626H120.46C120.46 171.514 120.474 171.402 120.474 171.318ZM116.904 168.434C118.346 168.434 119.396 169.442 119.522 170.884H114.3C114.426 169.442 115.476 168.434 116.904 168.434ZM128.223 164.612V169.036C127.607 168.084 126.599 167.58 125.423 167.58C123.323 167.58 121.755 169.092 121.755 171.318C121.755 173.544 123.323 175.07 125.423 175.07C126.641 175.07 127.663 174.538 128.265 173.544V175H129.217V164.612H128.223ZM125.507 174.188C123.939 174.188 122.763 173.04 122.763 171.318C122.763 169.596 123.939 168.448 125.507 168.448C127.061 168.448 128.237 169.596 128.237 171.318C128.237 173.04 127.061 174.188 125.507 174.188ZM138.66 175.07C140.816 175.07 142.398 173.502 142.398 171.318C142.398 169.134 140.816 167.58 138.66 167.58C136.504 167.58 134.908 169.134 134.908 171.318C134.908 173.502 136.504 175.07 138.66 175.07ZM138.66 174.188C137.092 174.188 135.916 173.04 135.916 171.318C135.916 169.596 137.092 168.448 138.66 168.448C140.228 168.448 141.39 169.596 141.39 171.318C141.39 173.04 140.228 174.188 138.66 174.188ZM148.179 167.58C146.905 167.58 145.911 168.098 145.379 168.994V167.636H144.427V175H145.421V171.136C145.421 169.456 146.415 168.476 147.997 168.476C149.397 168.476 150.209 169.274 150.209 170.828V175H151.203V170.73C151.203 168.616 149.971 167.58 148.179 167.58ZM161.094 173.838C160.814 174.09 160.408 174.216 160.002 174.216C159.176 174.216 158.728 173.74 158.728 172.872V168.476H160.968V167.636H158.728V166.026H157.734V167.636H156.418V168.476H157.734V172.928C157.734 174.286 158.504 175.07 159.89 175.07C160.464 175.07 161.052 174.902 161.444 174.552L161.094 173.838ZM167.005 167.58C165.759 167.58 164.793 168.07 164.247 168.924V164.612H163.253V175H164.247V171.136C164.247 169.456 165.241 168.476 166.823 168.476C168.223 168.476 169.035 169.274 169.035 170.828V175H170.029V170.73C170.029 168.616 168.797 167.58 167.005 167.58ZM179.181 171.318C179.181 169.106 177.683 167.58 175.611 167.58C173.539 167.58 172.013 169.134 172.013 171.318C172.013 173.502 173.581 175.07 175.877 175.07C177.039 175.07 178.061 174.65 178.719 173.866L178.159 173.222C177.599 173.866 176.801 174.188 175.905 174.188C174.295 174.188 173.119 173.166 173.007 171.626H179.167C179.167 171.514 179.181 171.402 179.181 171.318ZM175.611 168.434C177.053 168.434 178.103 169.442 178.229 170.884H173.007C173.133 169.442 174.183 168.434 175.611 168.434ZM186.842 175.07C188.76 175.07 189.88 174.244 189.88 172.97C189.88 170.142 185.106 171.64 185.106 169.652C185.106 168.952 185.694 168.434 187.024 168.434C187.78 168.434 188.55 168.616 189.194 169.064L189.628 168.266C189.012 167.846 187.976 167.58 187.024 167.58C185.148 167.58 184.112 168.476 184.112 169.68C184.112 172.592 188.886 171.08 188.886 172.998C188.886 173.726 188.312 174.202 186.912 174.202C185.876 174.202 184.882 173.838 184.294 173.376L183.846 174.16C184.448 174.678 185.624 175.07 186.842 175.07ZM198.144 171.318C198.144 169.106 196.646 167.58 194.574 167.58C192.502 167.58 190.976 169.134 190.976 171.318C190.976 173.502 192.544 175.07 194.84 175.07C196.002 175.07 197.024 174.65 197.682 173.866L197.122 173.222C196.562 173.866 195.764 174.188 194.868 174.188C193.258 174.188 192.082 173.166 191.97 171.626H198.13C198.13 171.514 198.144 171.402 198.144 171.318ZM194.574 168.434C196.016 168.434 197.066 169.442 197.192 170.884H191.97C192.096 169.442 193.146 168.434 194.574 168.434ZM200.167 175H201.161V164.612H200.167V175ZM210.353 171.318C210.353 169.106 208.855 167.58 206.783 167.58C204.711 167.58 203.185 169.134 203.185 171.318C203.185 173.502 204.753 175.07 207.049 175.07C208.211 175.07 209.233 174.65 209.891 173.866L209.331 173.222C208.771 173.866 207.973 174.188 207.077 174.188C205.467 174.188 204.291 173.166 204.179 171.626H210.339C210.339 171.514 210.353 171.402 210.353 171.318ZM206.783 168.434C208.225 168.434 209.275 169.442 209.401 170.884H204.179C204.305 169.442 205.355 168.434 206.783 168.434ZM215.428 175.07C216.674 175.07 217.724 174.566 218.312 173.614L217.57 173.11C217.066 173.852 216.282 174.188 215.428 174.188C213.818 174.188 212.642 173.054 212.642 171.318C212.642 169.596 213.818 168.448 215.428 168.448C216.282 168.448 217.066 168.798 217.57 169.54L218.312 169.036C217.724 168.07 216.674 167.58 215.428 167.58C213.23 167.58 211.634 169.12 211.634 171.318C211.634 173.516 213.23 175.07 215.428 175.07ZM223.875 173.838C223.595 174.09 223.189 174.216 222.783 174.216C221.957 174.216 221.509 173.74 221.509 172.872V168.476H223.749V167.636H221.509V166.026H220.515V167.636H219.199V168.476H220.515V172.928C220.515 174.286 221.285 175.07 222.671 175.07C223.245 175.07 223.833 174.902 224.225 174.552L223.875 173.838ZM226.538 166.026C226.958 166.026 227.266 165.704 227.266 165.298C227.266 164.92 226.944 164.612 226.538 164.612C226.132 164.612 225.81 164.934 225.81 165.312C225.81 165.704 226.132 166.026 226.538 166.026ZM226.034 175H227.028V167.636H226.034V175ZM232.804 175.07C234.96 175.07 236.542 173.502 236.542 171.318C236.542 169.134 234.96 167.58 232.804 167.58C230.648 167.58 229.052 169.134 229.052 171.318C229.052 173.502 230.648 175.07 232.804 175.07ZM232.804 174.188C231.236 174.188 230.06 173.04 230.06 171.318C230.06 169.596 231.236 168.448 232.804 168.448C234.372 168.448 235.534 169.596 235.534 171.318C235.534 173.04 234.372 174.188 232.804 174.188ZM242.324 167.58C241.05 167.58 240.056 168.098 239.524 168.994V167.636H238.572V175H239.566V171.136C239.566 169.456 240.56 168.476 242.142 168.476C243.542 168.476 244.354 169.274 244.354 170.828V175H245.348V170.73C245.348 168.616 244.116 167.58 242.324 167.58ZM254.72 175.07C256.876 175.07 258.458 173.502 258.458 171.318C258.458 169.134 256.876 167.58 254.72 167.58C252.564 167.58 250.968 169.134 250.968 171.318C250.968 173.502 252.564 175.07 254.72 175.07ZM254.72 174.188C253.152 174.188 251.976 173.04 251.976 171.318C251.976 169.596 253.152 168.448 254.72 168.448C256.288 168.448 257.45 169.596 257.45 171.318C257.45 173.04 256.288 174.188 254.72 174.188ZM262.924 165.382C263.344 165.382 263.736 165.508 264.016 165.746L264.352 165.004C263.988 164.696 263.428 164.542 262.882 164.542C261.44 164.542 260.656 165.41 260.656 166.726V167.636H259.34V168.476H260.656V175H261.65V168.476H263.89V167.636H261.622V166.768C261.622 165.858 262.07 165.382 262.924 165.382ZM275.28 169.946C276.176 169.582 276.778 168.84 276.778 167.72C276.778 166.124 275.518 165.2 273.334 165.2H269.106V175H273.614C276.064 175 277.296 174.048 277.296 172.382C277.296 171.052 276.54 170.226 275.28 169.946ZM273.264 166.054C274.832 166.054 275.742 166.656 275.742 167.832C275.742 169.008 274.832 169.61 273.264 169.61H270.142V166.054H273.264ZM273.6 174.146H270.142V170.464H273.6C275.322 170.464 276.26 171.024 276.26 172.298C276.26 173.586 275.322 174.146 273.6 174.146ZM280.402 169.078V167.636H279.45V175H280.444V171.248C280.444 169.512 281.382 168.532 282.922 168.532C282.992 168.532 283.076 168.546 283.16 168.546V167.58C281.802 167.58 280.864 168.098 280.402 169.078ZM291.318 171.318C291.318 169.106 289.82 167.58 287.748 167.58C285.676 167.58 284.15 169.134 284.15 171.318C284.15 173.502 285.718 175.07 288.014 175.07C289.176 175.07 290.198 174.65 290.856 173.866L290.296 173.222C289.736 173.866 288.938 174.188 288.042 174.188C286.432 174.188 285.256 173.166 285.144 171.626H291.304C291.304 171.514 291.318 171.402 291.318 171.318ZM287.748 168.434C289.19 168.434 290.24 169.442 290.366 170.884H285.144C285.27 169.442 286.32 168.434 287.748 168.434ZM302.525 167.58C301.195 167.58 300.145 168.182 299.613 169.134C299.165 168.098 298.213 167.58 296.995 167.58C295.763 167.58 294.811 168.098 294.293 168.98V167.636H293.341V175H294.335V171.136C294.335 169.456 295.301 168.476 296.799 168.476C298.143 168.476 298.927 169.274 298.927 170.828V175H299.921V171.136C299.921 169.456 300.873 168.476 302.385 168.476C303.715 168.476 304.499 169.274 304.499 170.828V175H305.493V170.73C305.493 168.616 304.317 167.58 302.525 167.58ZM311.983 167.58C310.807 167.58 309.799 168.084 309.183 169.036V164.612H308.189V175H309.141V173.544C309.743 174.538 310.765 175.07 311.983 175.07C314.083 175.07 315.651 173.544 315.651 171.318C315.651 169.092 314.083 167.58 311.983 167.58ZM311.913 174.188C310.345 174.188 309.169 173.04 309.169 171.318C309.169 169.596 310.345 168.448 311.913 168.448C313.467 168.448 314.657 169.596 314.657 171.318C314.657 173.04 313.467 174.188 311.913 174.188ZM320.687 175.07C322.843 175.07 324.425 173.502 324.425 171.318C324.425 169.134 322.843 167.58 320.687 167.58C318.531 167.58 316.935 169.134 316.935 171.318C316.935 173.502 318.531 175.07 320.687 175.07ZM320.687 174.188C319.119 174.188 317.943 173.04 317.943 171.318C317.943 169.596 319.119 168.448 320.687 168.448C322.255 168.448 323.417 169.596 323.417 171.318C323.417 173.04 322.255 174.188 320.687 174.188ZM333.912 167.58C332.736 167.58 331.728 168.084 331.112 169.036V164.612H330.118V175H331.07V173.544C331.672 174.538 332.694 175.07 333.912 175.07C336.012 175.07 337.58 173.544 337.58 171.318C337.58 169.092 336.012 167.58 333.912 167.58ZM333.842 174.188C332.274 174.188 331.098 173.04 331.098 171.318C331.098 169.596 332.274 168.448 333.842 168.448C335.396 168.448 336.586 169.596 336.586 171.318C336.586 173.04 335.396 174.188 333.842 174.188ZM340.559 169.078V167.636H339.607V175H340.601V171.248C340.601 169.512 341.539 168.532 343.079 168.532C343.149 168.532 343.233 168.546 343.317 168.546V167.58C341.959 167.58 341.021 168.098 340.559 169.078ZM351.474 171.318C351.474 169.106 349.976 167.58 347.904 167.58C345.832 167.58 344.306 169.134 344.306 171.318C344.306 173.502 345.874 175.07 348.17 175.07C349.332 175.07 350.354 174.65 351.012 173.866L350.452 173.222C349.892 173.866 349.094 174.188 348.198 174.188C346.588 174.188 345.412 173.166 345.3 171.626H351.46C351.46 171.514 351.474 171.402 351.474 171.318ZM347.904 168.434C349.346 168.434 350.396 169.442 350.522 170.884H345.3C345.426 169.442 346.476 168.434 347.904 168.434ZM355.868 167.58C354.706 167.58 353.614 167.944 352.872 168.574L353.32 169.316C353.922 168.784 354.818 168.448 355.77 168.448C357.142 168.448 357.856 169.134 357.856 170.394V170.842H355.518C353.404 170.842 352.676 171.794 352.676 172.928C352.676 174.202 353.698 175.07 355.364 175.07C356.582 175.07 357.45 174.608 357.898 173.852V175H358.85V170.436C358.85 168.532 357.772 167.58 355.868 167.58ZM355.518 174.286C354.342 174.286 353.656 173.754 353.656 172.9C353.656 172.144 354.118 171.584 355.546 171.584H357.856V172.788C357.464 173.754 356.638 174.286 355.518 174.286ZM367.248 175H368.466L365.022 170.646L368.172 167.636H366.94L362.544 171.654V164.612H361.55V175H362.544V172.9L364.28 171.304L367.248 175ZM377.5 165.2H373.832V175H374.868V171.906H377.5C379.992 171.906 381.504 170.646 381.504 168.56C381.504 166.46 379.992 165.2 377.5 165.2ZM377.472 170.996H374.868V166.096H377.472C379.432 166.096 380.468 166.992 380.468 168.56C380.468 170.1 379.432 170.996 377.472 170.996ZM386.042 167.58C384.88 167.58 383.788 167.944 383.046 168.574L383.494 169.316C384.096 168.784 384.992 168.448 385.944 168.448C387.316 168.448 388.03 169.134 388.03 170.394V170.842H385.692C383.578 170.842 382.85 171.794 382.85 172.928C382.85 174.202 383.872 175.07 385.538 175.07C386.756 175.07 387.624 174.608 388.072 173.852V175H389.024V170.436C389.024 168.532 387.946 167.58 386.042 167.58ZM385.692 174.286C384.516 174.286 383.83 173.754 383.83 172.9C383.83 172.144 384.292 171.584 385.72 171.584H388.03V172.788C387.638 173.754 386.812 174.286 385.692 174.286ZM397.477 164.612V169.036C396.861 168.084 395.853 167.58 394.677 167.58C392.577 167.58 391.009 169.092 391.009 171.318C391.009 173.544 392.577 175.07 394.677 175.07C395.895 175.07 396.917 174.538 397.519 173.544V175H398.471V164.612H397.477ZM394.761 174.188C393.193 174.188 392.017 173.04 392.017 171.318C392.017 169.596 393.193 168.448 394.761 168.448C396.315 168.448 397.491 169.596 397.491 171.318C397.491 173.04 396.315 174.188 394.761 174.188ZM405.548 174.104L408.88 170.828C410.196 169.54 410.49 168.7 410.49 167.762C410.49 166.124 409.23 165.116 407.242 165.116C405.744 165.116 404.526 165.62 403.77 166.516L404.484 167.132C405.128 166.39 406.01 166.04 407.158 166.04C408.656 166.04 409.454 166.74 409.454 167.874C409.454 168.546 409.244 169.204 408.138 170.296L404.064 174.286V175H410.938V174.104H405.548Z" fill="#15181A"/>
<path opacity="0.8" d="M97.746 217.448C98.772 216.908 99.42 215.936 99.42 214.676C99.42 212.714 97.8 211.4 94.65 211.4H88.494V224H95.01C98.322 224 100.05 222.74 100.05 220.562C100.05 218.978 99.15 217.898 97.746 217.448ZM94.29 213.596C95.712 213.596 96.486 214.082 96.486 215.072C96.486 216.062 95.712 216.566 94.29 216.566H91.392V213.596H94.29ZM94.794 221.804H91.392V218.69H94.794C96.306 218.69 97.116 219.194 97.116 220.256C97.116 221.336 96.306 221.804 94.794 221.804ZM109.008 214.316V219.104C109.008 220.886 108.072 221.714 106.776 221.714C105.534 221.714 104.814 220.994 104.814 219.374V214.316H102.006V219.788C102.006 222.776 103.716 224.144 106.146 224.144C107.334 224.144 108.414 223.694 109.152 222.848V224H111.816V214.316H109.008ZM121.473 210.644V215.342C120.771 214.55 119.763 214.172 118.575 214.172C115.839 214.172 113.733 216.116 113.733 219.158C113.733 222.2 115.839 224.144 118.575 224.144C119.871 224.144 120.897 223.73 121.599 222.884V224H124.281V210.644H121.473ZM119.061 221.84C117.657 221.84 116.577 220.832 116.577 219.158C116.577 217.484 117.657 216.476 119.061 216.476C120.447 216.476 121.527 217.484 121.527 219.158C121.527 220.832 120.447 221.84 119.061 221.84ZM134.206 214.316V215.558C133.468 214.622 132.352 214.172 131.002 214.172C128.32 214.172 126.16 216.026 126.16 218.852C126.16 221.678 128.32 223.532 131.002 223.532C132.262 223.532 133.324 223.136 134.062 222.326V222.74C134.062 224.486 133.198 225.386 131.218 225.386C129.976 225.386 128.626 224.954 127.798 224.288L126.682 226.304C127.816 227.186 129.598 227.636 131.434 227.636C134.926 227.636 136.87 225.98 136.87 222.38V214.316H134.206ZM131.56 221.228C130.084 221.228 129.004 220.274 129.004 218.852C129.004 217.43 130.084 216.476 131.56 216.476C133.036 216.476 134.098 217.43 134.098 218.852C134.098 220.274 133.036 221.228 131.56 221.228ZM148.97 219.194C148.97 216.08 146.774 214.172 143.93 214.172C140.978 214.172 138.764 216.26 138.764 219.158C138.764 222.038 140.942 224.144 144.29 224.144C146.036 224.144 147.386 223.604 148.286 222.578L146.792 220.958C146.126 221.588 145.388 221.894 144.362 221.894C142.886 221.894 141.86 221.156 141.59 219.95H148.916C148.934 219.716 148.97 219.41 148.97 219.194ZM143.948 216.296C145.208 216.296 146.126 217.088 146.324 218.312H141.554C141.752 217.07 142.67 216.296 143.948 216.296ZM156.329 221.552C156.023 221.786 155.609 221.912 155.195 221.912C154.439 221.912 153.989 221.462 153.989 220.634V216.692H156.401V214.532H153.989V212.174H151.181V214.532H149.687V216.692H151.181V220.67C151.181 222.974 152.513 224.144 154.799 224.144C155.663 224.144 156.509 223.946 157.085 223.532L156.329 221.552ZM168.439 224.144C170.473 224.144 172.075 223.244 172.777 221.696L170.599 220.508C170.077 221.444 169.303 221.84 168.421 221.84C166.999 221.84 165.883 220.85 165.883 219.158C165.883 217.466 166.999 216.476 168.421 216.476C169.303 216.476 170.077 216.89 170.599 217.808L172.777 216.638C172.075 215.054 170.473 214.172 168.439 214.172C165.289 214.172 163.039 216.242 163.039 219.158C163.039 222.074 165.289 224.144 168.439 224.144ZM178.879 224.144C181.957 224.144 184.189 222.074 184.189 219.158C184.189 216.242 181.957 214.172 178.879 214.172C175.801 214.172 173.551 216.242 173.551 219.158C173.551 222.074 175.801 224.144 178.879 224.144ZM178.879 221.84C177.475 221.84 176.395 220.832 176.395 219.158C176.395 217.484 177.475 216.476 178.879 216.476C180.283 216.476 181.345 217.484 181.345 219.158C181.345 220.832 180.283 221.84 178.879 221.84ZM191.952 214.172C190.638 214.172 189.504 214.622 188.748 215.45V214.316H186.066V224H188.874V219.212C188.874 217.43 189.846 216.602 191.196 216.602C192.438 216.602 193.158 217.322 193.158 218.888V224H195.966V218.456C195.966 215.504 194.238 214.172 191.952 214.172ZM208.321 212.966C209.365 212.966 210.067 212.282 210.067 211.346C210.067 210.482 209.365 209.834 208.321 209.834C207.277 209.834 206.575 210.518 206.575 211.4C206.575 212.282 207.277 212.966 208.321 212.966ZM202.867 212.714C203.299 212.714 203.695 212.84 204.001 213.056L204.739 211.022C204.217 210.662 203.389 210.5 202.597 210.5C200.185 210.5 198.853 211.922 198.853 214.1V214.532H197.359V216.692H198.853V224H201.661V216.692H204.073V214.532H201.589V214.118C201.589 213.164 202.039 212.714 202.867 212.714ZM206.917 224H209.725V214.316H206.917V224ZM219.653 214.316V215.558C218.915 214.622 217.799 214.172 216.449 214.172C213.767 214.172 211.607 216.026 211.607 218.852C211.607 221.678 213.767 223.532 216.449 223.532C217.709 223.532 218.771 223.136 219.509 222.326V222.74C219.509 224.486 218.645 225.386 216.665 225.386C215.423 225.386 214.073 224.954 213.245 224.288L212.129 226.304C213.263 227.186 215.045 227.636 216.881 227.636C220.373 227.636 222.317 225.98 222.317 222.38V214.316H219.653ZM217.007 221.228C215.531 221.228 214.451 220.274 214.451 218.852C214.451 217.43 215.531 216.476 217.007 216.476C218.483 216.476 219.545 217.43 219.545 218.852C219.545 220.274 218.483 221.228 217.007 221.228ZM231.879 214.316V219.104C231.879 220.886 230.943 221.714 229.647 221.714C228.405 221.714 227.685 220.994 227.685 219.374V214.316H224.877V219.788C224.877 222.776 226.587 224.144 229.017 224.144C230.205 224.144 231.285 223.694 232.023 222.848V224H234.687V214.316H231.879ZM239.97 215.594V214.316H237.288V224H240.096V219.428C240.096 217.574 241.122 216.728 242.67 216.728C242.886 216.728 243.066 216.746 243.3 216.764V214.172C241.806 214.172 240.654 214.658 239.97 215.594ZM248.823 214.172C247.275 214.172 245.709 214.586 244.647 215.342L245.655 217.304C246.357 216.746 247.419 216.404 248.445 216.404C249.957 216.404 250.677 217.106 250.677 218.312H248.445C245.493 218.312 244.287 219.5 244.287 221.21C244.287 222.884 245.637 224.144 247.905 224.144C249.327 224.144 250.335 223.676 250.857 222.794V224H253.485V218.474C253.485 215.54 251.775 214.172 248.823 214.172ZM248.607 222.254C247.617 222.254 247.023 221.786 247.023 221.084C247.023 220.436 247.437 219.95 248.751 219.95H250.677V220.94C250.353 221.822 249.543 222.254 248.607 222.254ZM261.516 221.552C261.21 221.786 260.796 221.912 260.382 221.912C259.626 221.912 259.176 221.462 259.176 220.634V216.692H261.588V214.532H259.176V212.174H256.368V214.532H254.874V216.692H256.368V220.67C256.368 222.974 257.7 224.144 259.986 224.144C260.85 224.144 261.696 223.946 262.272 223.532L261.516 221.552ZM265.253 212.966C266.297 212.966 266.999 212.282 266.999 211.346C266.999 210.482 266.297 209.834 265.253 209.834C264.209 209.834 263.507 210.518 263.507 211.4C263.507 212.282 264.209 212.966 265.253 212.966ZM263.849 224H266.657V214.316H263.849V224ZM273.871 224.144C276.949 224.144 279.181 222.074 279.181 219.158C279.181 216.242 276.949 214.172 273.871 214.172C270.793 214.172 268.543 216.242 268.543 219.158C268.543 222.074 270.793 224.144 273.871 224.144ZM273.871 221.84C272.467 221.84 271.387 220.832 271.387 219.158C271.387 217.484 272.467 216.476 273.871 216.476C275.275 216.476 276.337 217.484 276.337 219.158C276.337 220.832 275.275 221.84 273.871 221.84ZM286.944 214.172C285.63 214.172 284.496 214.622 283.74 215.45V214.316H281.058V224H283.866V219.212C283.866 217.43 284.838 216.602 286.188 216.602C287.43 216.602 288.15 217.322 288.15 218.888V224H290.958V218.456C290.958 215.504 289.23 214.172 286.944 214.172Z" fill="#15181A"/>
<rect opacity="0.4" x="42" y="224" width="39" height="12" transform="rotate(-180 42 224)" fill="#424546"/>
<rect opacity="0.7" x="56" y="224" width="3" height="12" transform="rotate(-180 56 224)" fill="url(#paint2_linear_93_6179)"/>
<rect width="8" height="12" transform="matrix(-1 0 0 1 52 212)" fill="#15181A"/>
<path d="M514.415 210.4V214.828H517.007V212.776H521.183L516.665 223H519.833L524.513 212.29V210.4H514.415ZM528.833 217.204C530.669 217.204 531.947 215.872 531.947 213.73C531.947 211.588 530.669 210.256 528.833 210.256C526.997 210.256 525.701 211.606 525.701 213.73C525.701 215.854 526.997 217.204 528.833 217.204ZM527.735 223H529.877L538.481 210.4H536.339L527.735 223ZM528.833 215.728C528.059 215.728 527.519 215.062 527.519 213.73C527.519 212.398 528.059 211.732 528.833 211.732C529.625 211.732 530.147 212.38 530.147 213.73C530.147 215.08 529.625 215.728 528.833 215.728ZM537.383 223.144C539.219 223.144 540.515 221.794 540.515 219.67C540.515 217.546 539.219 216.196 537.383 216.196C535.565 216.196 534.269 217.546 534.269 219.67C534.269 221.794 535.565 223.144 537.383 223.144ZM537.383 221.668C536.609 221.668 536.069 221.02 536.069 219.67C536.069 218.32 536.609 217.672 537.383 217.672C538.175 217.672 538.697 218.338 538.697 219.67C538.697 221.002 538.175 221.668 537.383 221.668Z" fill="#424546"/>
<path d="M483.125 217H487.624V224.875H494.374V217H498.874L490.999 209.125L483.125 217Z" fill="#E23620"/>
<path opacity="0.7" d="M94.77 246.946C95.666 246.582 96.268 245.84 96.268 244.72C96.268 243.124 95.008 242.2 92.824 242.2H88.596V252H93.104C95.554 252 96.786 251.048 96.786 249.382C96.786 248.052 96.03 247.226 94.77 246.946ZM92.754 243.054C94.322 243.054 95.232 243.656 95.232 244.832C95.232 246.008 94.322 246.61 92.754 246.61H89.632V243.054H92.754ZM93.09 251.146H89.632V247.464H93.09C94.812 247.464 95.75 248.024 95.75 249.298C95.75 250.586 94.812 251.146 93.09 251.146ZM101.517 244.58C100.355 244.58 99.2627 244.944 98.5207 245.574L98.9687 246.316C99.5707 245.784 100.467 245.448 101.419 245.448C102.791 245.448 103.505 246.134 103.505 247.394V247.842H101.167C99.0527 247.842 98.3247 248.794 98.3247 249.928C98.3247 251.202 99.3467 252.07 101.013 252.07C102.231 252.07 103.099 251.608 103.547 250.852V252H104.499V247.436C104.499 245.532 103.421 244.58 101.517 244.58ZM101.167 251.286C99.9907 251.286 99.3047 250.754 99.3047 249.9C99.3047 249.144 99.7667 248.584 101.195 248.584H103.505V249.788C103.113 250.754 102.287 251.286 101.167 251.286ZM109.173 252.07C111.091 252.07 112.211 251.244 112.211 249.97C112.211 247.142 107.437 248.64 107.437 246.652C107.437 245.952 108.025 245.434 109.355 245.434C110.111 245.434 110.881 245.616 111.525 246.064L111.959 245.266C111.343 244.846 110.307 244.58 109.355 244.58C107.479 244.58 106.443 245.476 106.443 246.68C106.443 249.592 111.217 248.08 111.217 249.998C111.217 250.726 110.643 251.202 109.243 251.202C108.207 251.202 107.213 250.838 106.625 250.376L106.177 251.16C106.779 251.678 107.955 252.07 109.173 252.07ZM120.474 248.318C120.474 246.106 118.976 244.58 116.904 244.58C114.832 244.58 113.306 246.134 113.306 248.318C113.306 250.502 114.874 252.07 117.17 252.07C118.332 252.07 119.354 251.65 120.012 250.866L119.452 250.222C118.892 250.866 118.094 251.188 117.198 251.188C115.588 251.188 114.412 250.166 114.3 248.626H120.46C120.46 248.514 120.474 248.402 120.474 248.318ZM116.904 245.434C118.346 245.434 119.396 246.442 119.522 247.884H114.3C114.426 246.442 115.476 245.434 116.904 245.434ZM128.223 241.612V246.036C127.607 245.084 126.599 244.58 125.423 244.58C123.323 244.58 121.755 246.092 121.755 248.318C121.755 250.544 123.323 252.07 125.423 252.07C126.641 252.07 127.663 251.538 128.265 250.544V252H129.217V241.612H128.223ZM125.507 251.188C123.939 251.188 122.763 250.04 122.763 248.318C122.763 246.596 123.939 245.448 125.507 245.448C127.061 245.448 128.237 246.596 128.237 248.318C128.237 250.04 127.061 251.188 125.507 251.188ZM138.66 252.07C140.816 252.07 142.398 250.502 142.398 248.318C142.398 246.134 140.816 244.58 138.66 244.58C136.504 244.58 134.908 246.134 134.908 248.318C134.908 250.502 136.504 252.07 138.66 252.07ZM138.66 251.188C137.092 251.188 135.916 250.04 135.916 248.318C135.916 246.596 137.092 245.448 138.66 245.448C140.228 245.448 141.39 246.596 141.39 248.318C141.39 250.04 140.228 251.188 138.66 251.188ZM148.179 244.58C146.905 244.58 145.911 245.098 145.379 245.994V244.636H144.427V252H145.421V248.136C145.421 246.456 146.415 245.476 147.997 245.476C149.397 245.476 150.209 246.274 150.209 247.828V252H151.203V247.73C151.203 245.616 149.971 244.58 148.179 244.58ZM161.094 250.838C160.814 251.09 160.408 251.216 160.002 251.216C159.176 251.216 158.728 250.74 158.728 249.872V245.476H160.968V244.636H158.728V243.026H157.734V244.636H156.418V245.476H157.734V249.928C157.734 251.286 158.504 252.07 159.89 252.07C160.464 252.07 161.052 251.902 161.444 251.552L161.094 250.838ZM167.005 244.58C165.759 244.58 164.793 245.07 164.247 245.924V241.612H163.253V252H164.247V248.136C164.247 246.456 165.241 245.476 166.823 245.476C168.223 245.476 169.035 246.274 169.035 247.828V252H170.029V247.73C170.029 245.616 168.797 244.58 167.005 244.58ZM179.181 248.318C179.181 246.106 177.683 244.58 175.611 244.58C173.539 244.58 172.013 246.134 172.013 248.318C172.013 250.502 173.581 252.07 175.877 252.07C177.039 252.07 178.061 251.65 178.719 250.866L178.159 250.222C177.599 250.866 176.801 251.188 175.905 251.188C174.295 251.188 173.119 250.166 173.007 248.626H179.167C179.167 248.514 179.181 248.402 179.181 248.318ZM175.611 245.434C177.053 245.434 178.103 246.442 178.229 247.884H173.007C173.133 246.442 174.183 245.434 175.611 245.434ZM186.842 252.07C188.76 252.07 189.88 251.244 189.88 249.97C189.88 247.142 185.106 248.64 185.106 246.652C185.106 245.952 185.694 245.434 187.024 245.434C187.78 245.434 188.55 245.616 189.194 246.064L189.628 245.266C189.012 244.846 187.976 244.58 187.024 244.58C185.148 244.58 184.112 245.476 184.112 246.68C184.112 249.592 188.886 248.08 188.886 249.998C188.886 250.726 188.312 251.202 186.912 251.202C185.876 251.202 184.882 250.838 184.294 250.376L183.846 251.16C184.448 251.678 185.624 252.07 186.842 252.07ZM198.144 248.318C198.144 246.106 196.646 244.58 194.574 244.58C192.502 244.58 190.976 246.134 190.976 248.318C190.976 250.502 192.544 252.07 194.84 252.07C196.002 252.07 197.024 251.65 197.682 250.866L197.122 250.222C196.562 250.866 195.764 251.188 194.868 251.188C193.258 251.188 192.082 250.166 191.97 248.626H198.13C198.13 248.514 198.144 248.402 198.144 248.318ZM194.574 245.434C196.016 245.434 197.066 246.442 197.192 247.884H191.97C192.096 246.442 193.146 245.434 194.574 245.434ZM200.167 252H201.161V241.612H200.167V252ZM210.353 248.318C210.353 246.106 208.855 244.58 206.783 244.58C204.711 244.58 203.185 246.134 203.185 248.318C203.185 250.502 204.753 252.07 207.049 252.07C208.211 252.07 209.233 251.65 209.891 250.866L209.331 250.222C208.771 250.866 207.973 251.188 207.077 251.188C205.467 251.188 204.291 250.166 204.179 248.626H210.339C210.339 248.514 210.353 248.402 210.353 248.318ZM206.783 245.434C208.225 245.434 209.275 246.442 209.401 247.884H204.179C204.305 246.442 205.355 245.434 206.783 245.434ZM215.428 252.07C216.674 252.07 217.724 251.566 218.312 250.614L217.57 250.11C217.066 250.852 216.282 251.188 215.428 251.188C213.818 251.188 212.642 250.054 212.642 248.318C212.642 246.596 213.818 245.448 215.428 245.448C216.282 245.448 217.066 245.798 217.57 246.54L218.312 246.036C217.724 245.07 216.674 244.58 215.428 244.58C213.23 244.58 211.634 246.12 211.634 248.318C211.634 250.516 213.23 252.07 215.428 252.07ZM223.875 250.838C223.595 251.09 223.189 251.216 222.783 251.216C221.957 251.216 221.509 250.74 221.509 249.872V245.476H223.749V244.636H221.509V243.026H220.515V244.636H219.199V245.476H220.515V249.928C220.515 251.286 221.285 252.07 222.671 252.07C223.245 252.07 223.833 251.902 224.225 251.552L223.875 250.838ZM226.538 243.026C226.958 243.026 227.266 242.704 227.266 242.298C227.266 241.92 226.944 241.612 226.538 241.612C226.132 241.612 225.81 241.934 225.81 242.312C225.81 242.704 226.132 243.026 226.538 243.026ZM226.034 252H227.028V244.636H226.034V252ZM232.804 252.07C234.96 252.07 236.542 250.502 236.542 248.318C236.542 246.134 234.96 244.58 232.804 244.58C230.648 244.58 229.052 246.134 229.052 248.318C229.052 250.502 230.648 252.07 232.804 252.07ZM232.804 251.188C231.236 251.188 230.06 250.04 230.06 248.318C230.06 246.596 231.236 245.448 232.804 245.448C234.372 245.448 235.534 246.596 235.534 248.318C235.534 250.04 234.372 251.188 232.804 251.188ZM242.324 244.58C241.05 244.58 240.056 245.098 239.524 245.994V244.636H238.572V252H239.566V248.136C239.566 246.456 240.56 245.476 242.142 245.476C243.542 245.476 244.354 246.274 244.354 247.828V252H245.348V247.73C245.348 245.616 244.116 244.58 242.324 244.58ZM254.72 252.07C256.876 252.07 258.458 250.502 258.458 248.318C258.458 246.134 256.876 244.58 254.72 244.58C252.564 244.58 250.968 246.134 250.968 248.318C250.968 250.502 252.564 252.07 254.72 252.07ZM254.72 251.188C253.152 251.188 251.976 250.04 251.976 248.318C251.976 246.596 253.152 245.448 254.72 245.448C256.288 245.448 257.45 246.596 257.45 248.318C257.45 250.04 256.288 251.188 254.72 251.188ZM262.924 242.382C263.344 242.382 263.736 242.508 264.016 242.746L264.352 242.004C263.988 241.696 263.428 241.542 262.882 241.542C261.44 241.542 260.656 242.41 260.656 243.726V244.636H259.34V245.476H260.656V252H261.65V245.476H263.89V244.636H261.622V243.768C261.622 242.858 262.07 242.382 262.924 242.382ZM275.28 246.946C276.176 246.582 276.778 245.84 276.778 244.72C276.778 243.124 275.518 242.2 273.334 242.2H269.106V252H273.614C276.064 252 277.296 251.048 277.296 249.382C277.296 248.052 276.54 247.226 275.28 246.946ZM273.264 243.054C274.832 243.054 275.742 243.656 275.742 244.832C275.742 246.008 274.832 246.61 273.264 246.61H270.142V243.054H273.264ZM273.6 251.146H270.142V247.464H273.6C275.322 247.464 276.26 248.024 276.26 249.298C276.26 250.586 275.322 251.146 273.6 251.146ZM280.402 246.078V244.636H279.45V252H280.444V248.248C280.444 246.512 281.382 245.532 282.922 245.532C282.992 245.532 283.076 245.546 283.16 245.546V244.58C281.802 244.58 280.864 245.098 280.402 246.078ZM291.318 248.318C291.318 246.106 289.82 244.58 287.748 244.58C285.676 244.58 284.15 246.134 284.15 248.318C284.15 250.502 285.718 252.07 288.014 252.07C289.176 252.07 290.198 251.65 290.856 250.866L290.296 250.222C289.736 250.866 288.938 251.188 288.042 251.188C286.432 251.188 285.256 250.166 285.144 248.626H291.304C291.304 248.514 291.318 248.402 291.318 248.318ZM287.748 245.434C289.19 245.434 290.24 246.442 290.366 247.884H285.144C285.27 246.442 286.32 245.434 287.748 245.434ZM302.525 244.58C301.195 244.58 300.145 245.182 299.613 246.134C299.165 245.098 298.213 244.58 296.995 244.58C295.763 244.58 294.811 245.098 294.293 245.98V244.636H293.341V252H294.335V248.136C294.335 246.456 295.301 245.476 296.799 245.476C298.143 245.476 298.927 246.274 298.927 247.828V252H299.921V248.136C299.921 246.456 300.873 245.476 302.385 245.476C303.715 245.476 304.499 246.274 304.499 247.828V252H305.493V247.73C305.493 245.616 304.317 244.58 302.525 244.58ZM311.983 244.58C310.807 244.58 309.799 245.084 309.183 246.036V241.612H308.189V252H309.141V250.544C309.743 251.538 310.765 252.07 311.983 252.07C314.083 252.07 315.651 250.544 315.651 248.318C315.651 246.092 314.083 244.58 311.983 244.58ZM311.913 251.188C310.345 251.188 309.169 250.04 309.169 248.318C309.169 246.596 310.345 245.448 311.913 245.448C313.467 245.448 314.657 246.596 314.657 248.318C314.657 250.04 313.467 251.188 311.913 251.188ZM320.687 252.07C322.843 252.07 324.425 250.502 324.425 248.318C324.425 246.134 322.843 244.58 320.687 244.58C318.531 244.58 316.935 246.134 316.935 248.318C316.935 250.502 318.531 252.07 320.687 252.07ZM320.687 251.188C319.119 251.188 317.943 250.04 317.943 248.318C317.943 246.596 319.119 245.448 320.687 245.448C322.255 245.448 323.417 246.596 323.417 248.318C323.417 250.04 322.255 251.188 320.687 251.188ZM333.912 244.58C332.736 244.58 331.728 245.084 331.112 246.036V241.612H330.118V252H331.07V250.544C331.672 251.538 332.694 252.07 333.912 252.07C336.012 252.07 337.58 250.544 337.58 248.318C337.58 246.092 336.012 244.58 333.912 244.58ZM333.842 251.188C332.274 251.188 331.098 250.04 331.098 248.318C331.098 246.596 332.274 245.448 333.842 245.448C335.396 245.448 336.586 246.596 336.586 248.318C336.586 250.04 335.396 251.188 333.842 251.188ZM340.559 246.078V244.636H339.607V252H340.601V248.248C340.601 246.512 341.539 245.532 343.079 245.532C343.149 245.532 343.233 245.546 343.317 245.546V244.58C341.959 244.58 341.021 245.098 340.559 246.078ZM351.474 248.318C351.474 246.106 349.976 244.58 347.904 244.58C345.832 244.58 344.306 246.134 344.306 248.318C344.306 250.502 345.874 252.07 348.17 252.07C349.332 252.07 350.354 251.65 351.012 250.866L350.452 250.222C349.892 250.866 349.094 251.188 348.198 251.188C346.588 251.188 345.412 250.166 345.3 248.626H351.46C351.46 248.514 351.474 248.402 351.474 248.318ZM347.904 245.434C349.346 245.434 350.396 246.442 350.522 247.884H345.3C345.426 246.442 346.476 245.434 347.904 245.434ZM355.868 244.58C354.706 244.58 353.614 244.944 352.872 245.574L353.32 246.316C353.922 245.784 354.818 245.448 355.77 245.448C357.142 245.448 357.856 246.134 357.856 247.394V247.842H355.518C353.404 247.842 352.676 248.794 352.676 249.928C352.676 251.202 353.698 252.07 355.364 252.07C356.582 252.07 357.45 251.608 357.898 250.852V252H358.85V247.436C358.85 245.532 357.772 244.58 355.868 244.58ZM355.518 251.286C354.342 251.286 353.656 250.754 353.656 249.9C353.656 249.144 354.118 248.584 355.546 248.584H357.856V249.788C357.464 250.754 356.638 251.286 355.518 251.286ZM367.248 252H368.466L365.022 247.646L368.172 244.636H366.94L362.544 248.654V241.612H361.55V252H362.544V249.9L364.28 248.304L367.248 252ZM377.5 242.2H373.832V252H374.868V248.906H377.5C379.992 248.906 381.504 247.646 381.504 245.56C381.504 243.46 379.992 242.2 377.5 242.2ZM377.472 247.996H374.868V243.096H377.472C379.432 243.096 380.468 243.992 380.468 245.56C380.468 247.1 379.432 247.996 377.472 247.996ZM386.042 244.58C384.88 244.58 383.788 244.944 383.046 245.574L383.494 246.316C384.096 245.784 384.992 245.448 385.944 245.448C387.316 245.448 388.03 246.134 388.03 247.394V247.842H385.692C383.578 247.842 382.85 248.794 382.85 249.928C382.85 251.202 383.872 252.07 385.538 252.07C386.756 252.07 387.624 251.608 388.072 250.852V252H389.024V247.436C389.024 245.532 387.946 244.58 386.042 244.58ZM385.692 251.286C384.516 251.286 383.83 250.754 383.83 249.9C383.83 249.144 384.292 248.584 385.72 248.584H388.03V249.788C387.638 250.754 386.812 251.286 385.692 251.286ZM397.477 241.612V246.036C396.861 245.084 395.853 244.58 394.677 244.58C392.577 244.58 391.009 246.092 391.009 248.318C391.009 250.544 392.577 252.07 394.677 252.07C395.895 252.07 396.917 251.538 397.519 250.544V252H398.471V241.612H397.477ZM394.761 251.188C393.193 251.188 392.017 250.04 392.017 248.318C392.017 246.596 393.193 245.448 394.761 245.448C396.315 245.448 397.491 246.596 397.491 248.318C397.491 250.04 396.315 251.188 394.761 251.188ZM405.548 251.104L408.88 247.828C410.196 246.54 410.49 245.7 410.49 244.762C410.49 243.124 409.23 242.116 407.242 242.116C405.744 242.116 404.526 242.62 403.77 243.516L404.484 244.132C405.128 243.39 406.01 243.04 407.158 243.04C408.656 243.04 409.454 243.74 409.454 244.874C409.454 245.546 409.244 246.204 408.138 247.296L404.064 251.286V252H410.938V251.104H405.548Z" fill="#15181A"/>
<defs>
<linearGradient id="paint0_linear_93_6179" x1="60.0714" y1="76" x2="75" y2="76" gradientUnits="userSpaceOnUse">
<stop stop-color="#424546"/>
<stop offset="1" stop-color="#424546" stop-opacity="0"/>
</linearGradient>
<linearGradient id="paint1_linear_93_6179" x1="56.6429" y1="153" x2="59" y2="153" gradientUnits="userSpaceOnUse">
<stop stop-color="#424546"/>
<stop offset="1" stop-color="#424546" stop-opacity="0"/>
</linearGradient>
<linearGradient id="paint2_linear_93_6179" x1="56.6429" y1="230" x2="59" y2="230" gradientUnits="userSpaceOnUse">
<stop stop-color="#424546"/>
<stop offset="1" stop-color="#424546" stop-opacity="0"/>
</linearGradient>
<clipPath id="clip0_93_6179">
<rect width="14" height="14" fill="white" transform="translate(539 19) rotate(-90)"/>
</clipPath>
</defs>
</svg>
