<svg width="553" height="255" viewBox="0 0 553 255" fill="none" xmlns="http://www.w3.org/2000/svg">
<text fill="#15181A" xml:space="preserve" style="white-space: pre" font-family="Montserrat" font-size="20" letter-spacing="0em"><tspan x="0" y="19.17">Overall Vehicle Results</tspan></text>
<g clip-path="url(#clip0_40_1720)">
<path d="M542.111 11.9999C542.111 11.1407 541.415 10.4443 540.556 10.4443C539.696 10.4443 539 11.1407 539 11.9999C539 12.859 539.696 13.5554 540.556 13.5554C541.415 13.5554 542.111 12.859 542.111 11.9999Z" fill="#444648"/>
<path d="M547.555 11.9999C547.555 11.1407 546.859 10.4443 546 10.4443C545.141 10.4443 544.444 11.1407 544.444 11.9999C544.444 12.859 545.141 13.5554 546 13.5554C546.859 13.5554 547.555 12.859 547.555 11.9999Z" fill="#444648"/>
<path d="M553 11.9999C553 11.1407 552.303 10.4443 551.444 10.4443C550.585 10.4443 549.889 11.1407 549.889 11.9999C549.889 12.859 550.585 13.5554 551.444 13.5554C552.303 13.5554 553 12.859 553 11.9999Z" fill="#444648"/>
</g>
<text opacity="0.8" fill="#15181A" xml:space="preserve" style="white-space: pre" font-family="Montserrat" font-size="18" font-weight="bold" letter-spacing="0em"><tspan x="87" y="70.453">Breaking Power</tspan></text>
<text fill="#424546" xml:space="preserve" style="white-space: pre" font-family="Montserrat" font-size="18" font-weight="bold" letter-spacing="0em"><tspan x="507.637" y="69.453">15%</tspan></text>
<text opacity="0.7" fill="#15181A" xml:space="preserve" style="white-space: pre" font-family="Montserrat" font-size="14" letter-spacing="0em"><tspan x="87" y="97.519">Based on the selection of Brembo break Pad 2</tspan></text>
<rect opacity="0.4" x="56" y="70" width="53" height="12" transform="rotate(-180 56 70)" fill="#424546"/>
<rect opacity="0.6" x="56" y="70" width="19" height="12" transform="rotate(-180 56 70)" fill="url(#paint0_linear_40_1720)"/>
<rect width="11" height="12" transform="matrix(-1 0 0 1 69 58)" fill="#15181A"/>
<path d="M483.125 63H487.624V70.875H494.374V63H498.874L490.999 55.125L483.125 63Z" fill="#469931"/>
<text opacity="0.8" fill="#15181A" xml:space="preserve" style="white-space: pre" font-family="Montserrat" font-size="18" font-weight="bold" letter-spacing="0em"><tspan x="87" y="147.453">Overall Performance</tspan></text>
<rect opacity="0.4" x="44" y="147" width="41" height="12" transform="rotate(-180 44 147)" fill="#424546"/>
<rect opacity="0.7" x="56" y="147" width="3" height="12" transform="rotate(-180 56 147)" fill="url(#paint1_linear_40_1720)"/>
<rect width="6" height="12" transform="matrix(-1 0 0 1 52 135)" fill="#15181A"/>
<text fill="#424546" xml:space="preserve" style="white-space: pre" font-family="Montserrat" font-size="18" font-weight="bold" letter-spacing="0em"><tspan x="514.738" y="146.453">3%</tspan></text>
<path d="M498.875 142H494.376V134.125H487.626V142H483.126L491.001 149.875L498.875 142Z" fill="#E23620"/>
<text opacity="0.7" fill="#15181A" xml:space="preserve" style="white-space: pre" font-family="Montserrat" font-size="14" letter-spacing="0em"><tspan x="87" y="174.519">Based on the selection of Brembo break Pad 2</tspan></text>
<text opacity="0.8" fill="#15181A" xml:space="preserve" style="white-space: pre" font-family="Montserrat" font-size="18" font-weight="bold" letter-spacing="0em"><tspan x="87" y="224.453">Budget configuration</tspan></text>
<rect opacity="0.4" x="42" y="224" width="39" height="12" transform="rotate(-180 42 224)" fill="#424546"/>
<rect opacity="0.7" x="56" y="224" width="3" height="12" transform="rotate(-180 56 224)" fill="url(#paint2_linear_40_1720)"/>
<rect width="8" height="12" transform="matrix(-1 0 0 1 52 212)" fill="#15181A"/>
<text fill="#424546" xml:space="preserve" style="white-space: pre" font-family="Montserrat" font-size="18" font-weight="bold" letter-spacing="0em"><tspan x="513.947" y="223.453">7%</tspan></text>
<path d="M483.125 217H487.624V224.875H494.374V217H498.874L490.999 209.125L483.125 217Z" fill="#E23620"/>
<text opacity="0.7" fill="#15181A" xml:space="preserve" style="white-space: pre" font-family="Montserrat" font-size="14" letter-spacing="0em"><tspan x="87" y="251.519">Based on the selection of Brembo break Pad 2</tspan></text>
<defs>
<linearGradient id="paint0_linear_40_1720" x1="60.0714" y1="76" x2="75" y2="76" gradientUnits="userSpaceOnUse">
<stop stop-color="#424546"/>
<stop offset="1" stop-color="#424546" stop-opacity="0"/>
</linearGradient>
<linearGradient id="paint1_linear_40_1720" x1="56.6429" y1="153" x2="59" y2="153" gradientUnits="userSpaceOnUse">
<stop stop-color="#424546"/>
<stop offset="1" stop-color="#424546" stop-opacity="0"/>
</linearGradient>
<linearGradient id="paint2_linear_40_1720" x1="56.6429" y1="230" x2="59" y2="230" gradientUnits="userSpaceOnUse">
<stop stop-color="#424546"/>
<stop offset="1" stop-color="#424546" stop-opacity="0"/>
</linearGradient>
<clipPath id="clip0_40_1720">
<rect width="14" height="14" fill="white" transform="translate(539 19) rotate(-90)"/>
</clipPath>
</defs>
</svg>
