<svg width="553" height="289" viewBox="0 0 553 289" fill="none" xmlns="http://www.w3.org/2000/svg">
<path d="M8.4 19.12C12.6 19.12 15.74 16.1 15.74 12C15.74 7.9 12.6 4.88 8.4 4.88C4.16 4.88 1.04 7.92 1.04 12C1.04 16.08 4.16 19.12 8.4 19.12ZM8.4 17.8C5.02 17.8 2.5 15.34 2.5 12C2.5 8.66 5.02 6.2 8.4 6.2C11.76 6.2 14.26 8.66 14.26 12C14.26 15.34 11.76 17.8 8.4 17.8ZM26.1973 8.48L22.2173 17.44L18.2773 8.48H16.7973L21.4573 19H22.9173L27.5973 8.48H26.1973ZM38.4842 13.74C38.4842 10.58 36.3442 8.4 33.3842 8.4C30.4242 8.4 28.2442 10.62 28.2442 13.74C28.2442 16.86 30.4842 19.1 33.7642 19.1C35.4242 19.1 36.8842 18.5 37.8242 17.38L37.0242 16.46C36.2242 17.38 35.0842 17.84 33.8042 17.84C31.5042 17.84 29.8242 16.38 29.6642 14.18H38.4642C38.4642 14.02 38.4842 13.86 38.4842 13.74ZM33.3842 9.62C35.4442 9.62 36.9442 11.06 37.1242 13.12H29.6642C29.8442 11.06 31.3442 9.62 33.3842 9.62ZM42.7345 10.54V8.48H41.3745V19H42.7945V13.64C42.7945 11.16 44.1345 9.76 46.3345 9.76C46.4345 9.76 46.5545 9.78 46.6745 9.78V8.4C44.7345 8.4 43.3945 9.14 42.7345 10.54ZM52.9061 8.4C51.2461 8.4 49.6861 8.92 48.6261 9.82L49.2661 10.88C50.1261 10.12 51.4061 9.64 52.7661 9.64C54.7261 9.64 55.7461 10.62 55.7461 12.42V13.06H52.4061C49.3861 13.06 48.3461 14.42 48.3461 16.04C48.3461 17.86 49.8061 19.1 52.1861 19.1C53.9261 19.1 55.1661 18.44 55.8061 17.36V19H57.1661V12.48C57.1661 9.76 55.6261 8.4 52.9061 8.4ZM52.4061 17.98C50.7261 17.98 49.7461 17.22 49.7461 16C49.7461 14.92 50.4061 14.12 52.4461 14.12H55.7461V15.84C55.1861 17.22 54.0061 17.98 52.4061 17.98ZM61.023 19H62.443V4.16H61.023V19ZM66.3941 19H67.8141V4.16H66.3941V19ZM87.4395 5L82.0395 17.16L76.6795 5H75.0795L81.2795 19H82.7395L88.9395 5H87.4395ZM99.0506 13.74C99.0506 10.58 96.9106 8.4 93.9506 8.4C90.9906 8.4 88.8106 10.62 88.8106 13.74C88.8106 16.86 91.0506 19.1 94.3306 19.1C95.9906 19.1 97.4506 18.5 98.3906 17.38L97.5906 16.46C96.7906 17.38 95.6506 17.84 94.3706 17.84C92.0706 17.84 90.3906 16.38 90.2306 14.18H99.0306C99.0306 14.02 99.0506 13.86 99.0506 13.74ZM93.9506 9.62C96.0106 9.62 97.5106 11.06 97.6906 13.12H90.2306C90.4106 11.06 91.9106 9.62 93.9506 9.62ZM107.301 8.4C105.521 8.4 104.141 9.1 103.361 10.32V4.16H101.941V19H103.361V13.48C103.361 11.08 104.781 9.68 107.041 9.68C109.041 9.68 110.201 10.82 110.201 13.04V19H111.621V12.9C111.621 9.88 109.861 8.4 107.301 8.4ZM116.196 6.18C116.796 6.18 117.236 5.72 117.236 5.14C117.236 4.6 116.776 4.16 116.196 4.16C115.616 4.16 115.156 4.62 115.156 5.16C115.156 5.72 115.616 6.18 116.196 6.18ZM115.476 19H116.896V8.48H115.476V19ZM125.207 19.1C126.987 19.1 128.487 18.38 129.327 17.02L128.267 16.3C127.547 17.36 126.427 17.84 125.207 17.84C122.907 17.84 121.227 16.22 121.227 13.74C121.227 11.28 122.907 9.64 125.207 9.64C126.427 9.64 127.547 10.14 128.267 11.2L129.327 10.48C128.487 9.1 126.987 8.4 125.207 8.4C122.067 8.4 119.787 10.6 119.787 13.74C119.787 16.88 122.067 19.1 125.207 19.1ZM131.96 19H133.38V4.16H131.96V19ZM146.512 13.74C146.512 10.58 144.372 8.4 141.412 8.4C138.452 8.4 136.272 10.62 136.272 13.74C136.272 16.86 138.512 19.1 141.792 19.1C143.452 19.1 144.912 18.5 145.852 17.38L145.052 16.46C144.252 17.38 143.112 17.84 141.832 17.84C139.532 17.84 137.852 16.38 137.692 14.18H146.492C146.492 14.02 146.512 13.86 146.512 13.74ZM141.412 9.62C143.472 9.62 144.972 11.06 145.152 13.12H137.692C137.872 11.06 139.372 9.62 141.412 9.62ZM166.116 19L162.696 14.2C164.736 13.54 165.896 12 165.896 9.8C165.896 6.8 163.736 5 160.176 5H154.936V19H156.416V14.56H160.176C160.576 14.56 160.936 14.54 161.296 14.5L164.496 19H166.116ZM160.136 13.3H156.416V6.28H160.136C162.936 6.28 164.416 7.56 164.416 9.8C164.416 12 162.936 13.3 160.136 13.3ZM178.269 13.74C178.269 10.58 176.129 8.4 173.169 8.4C170.209 8.4 168.029 10.62 168.029 13.74C168.029 16.86 170.269 19.1 173.549 19.1C175.209 19.1 176.669 18.5 177.609 17.38L176.809 16.46C176.009 17.38 174.869 17.84 173.589 17.84C171.289 17.84 169.609 16.38 169.449 14.18H178.249C178.249 14.02 178.269 13.86 178.269 13.74ZM173.169 9.62C175.229 9.62 176.729 11.06 176.909 13.12H169.449C169.629 11.06 171.129 9.62 173.169 9.62ZM183.98 19.1C186.72 19.1 188.32 17.92 188.32 16.1C188.32 12.06 181.5 14.2 181.5 11.36C181.5 10.36 182.34 9.62 184.24 9.62C185.32 9.62 186.42 9.88 187.34 10.52L187.96 9.38C187.08 8.78 185.6 8.4 184.24 8.4C181.56 8.4 180.08 9.68 180.08 11.4C180.08 15.56 186.9 13.4 186.9 16.14C186.9 17.18 186.08 17.86 184.08 17.86C182.6 17.86 181.18 17.34 180.34 16.68L179.7 17.8C180.56 18.54 182.24 19.1 183.98 19.1ZM199.005 8.48V14C199.005 16.4 197.625 17.82 195.425 17.82C193.425 17.82 192.265 16.68 192.265 14.44V8.48H190.845V14.58C190.845 17.6 192.605 19.1 195.285 19.1C196.965 19.1 198.325 18.36 199.065 17.08V19H200.425V8.48H199.005ZM204.402 19H205.822V4.16H204.402V19ZM214.852 17.34C214.452 17.7 213.872 17.88 213.292 17.88C212.112 17.88 211.472 17.2 211.472 15.96V9.68H214.672V8.48H211.472V6.18H210.052V8.48H208.172V9.68H210.052V16.04C210.052 17.98 211.152 19.1 213.132 19.1C213.952 19.1 214.792 18.86 215.352 18.36L214.852 17.34ZM220.757 19.1C223.497 19.1 225.097 17.92 225.097 16.1C225.097 12.06 218.277 14.2 218.277 11.36C218.277 10.36 219.117 9.62 221.017 9.62C222.097 9.62 223.197 9.88 224.117 10.52L224.737 9.38C223.857 8.78 222.377 8.4 221.017 8.4C218.337 8.4 216.857 9.68 216.857 11.4C216.857 15.56 223.677 13.4 223.677 16.14C223.677 17.18 222.857 17.86 220.857 17.86C219.377 17.86 217.957 17.34 217.117 16.68L216.477 17.8C217.337 18.54 219.017 19.1 220.757 19.1Z" fill="#15181A"/>
<g clip-path="url(#clip0_93_6476)">
<path d="M542.111 12.0001C542.111 11.141 541.415 10.4445 540.556 10.4445C539.696 10.4445 539 11.141 539 12.0001C539 12.8592 539.696 13.5557 540.556 13.5557C541.415 13.5557 542.111 12.8592 542.111 12.0001Z" fill="#444648"/>
<path d="M547.556 12.0001C547.556 11.141 546.86 10.4445 546 10.4445C545.141 10.4445 544.445 11.141 544.445 12.0001C544.445 12.8592 545.141 13.5557 546 13.5557C546.86 13.5557 547.556 12.8592 547.556 12.0001Z" fill="#444648"/>
<path d="M553 12.0001C553 11.141 552.304 10.4445 551.445 10.4445C550.586 10.4445 549.889 11.141 549.889 12.0001C549.889 12.8592 550.586 13.5557 551.445 13.5557C552.304 13.5557 553 12.8592 553 12.0001Z" fill="#444648"/>
</g>
<rect x="133" y="59" width="260" height="15" rx="7.5" fill="#ECECEC"/>
<rect x="133" y="189" width="260" height="15" rx="7.5" fill="#ECECEC"/>
<rect x="133" y="91" width="360" height="10" rx="5" fill="#ECECEC"/>
<rect x="133" y="221" width="360" height="10" rx="5" fill="#ECECEC"/>
<rect x="133" y="111" width="286" height="10" rx="5" fill="#ECECEC"/>
<rect x="133" y="241" width="286" height="10" rx="5" fill="#ECECEC"/>
<g clip-path="url(#clip1_93_6476)">
<path d="M15.625 59C14.5875 59 13.5625 59.1 12.5813 59.3L13.7938 65.425C14.397 65.3072 15.0103 65.2486 15.625 65.25H18.4875V59H15.625ZM29.95 59H24.2188V65.25H29.95V59ZM41.4062 59H35.675V65.25H41.4062V59ZM52.8625 59H47.1375V65.25H52.8625V59ZM64.325 59H58.5938V65.25H64.325V59ZM75.7812 59H70.05V65.25H75.7812V59ZM84.375 59H81.5125V65.25H84.375C85 65.25 85.6188 65.3125 86.2063 65.4313L87.4188 59.3C86.4164 59.1011 85.3969 59.0006 84.375 59V59ZM97.3688 65.9375C96.2264 64.2341 94.7613 62.7711 93.0562 61.6313L89.5813 66.825C90.6063 67.5125 91.4875 68.3938 92.175 69.4188L97.3625 65.9437L97.3688 65.9375ZM6.9375 61.6313C5.23408 62.7736 3.77108 64.2387 2.63125 65.9437L7.825 69.4188C8.5125 68.3938 9.39375 67.5125 10.4188 66.825L6.9375 61.6375V61.6313ZM100 74.625C100 73.5875 99.9 72.5625 99.7 71.5813L93.575 72.7938C93.6875 73.3813 93.75 73.9937 93.75 74.625V77.4875H100V74.625ZM0.3 71.5813C0.101099 72.5836 0.000621567 73.6031 0 74.625L0 77.4875H6.25V74.625C6.25 74 6.3125 73.3813 6.43125 72.7938L0.3 71.5813V71.5813ZM0 83.2188V88.95H6.25V83.2188H0ZM100 88.95V83.2188H93.75V88.95H100ZM0 94.675V100.406H6.25V94.675H0ZM100 100.406V94.675H93.75V100.406H100ZM0 106.137V111.863H6.25V106.137H0ZM93.75 111.863H100V106.137H93.75V111.863ZM0 117.594V123.325H6.25V117.594H0ZM100 123.325V117.594H93.75V123.325H100ZM0 129.05V134.781H6.25V129.05H0ZM100 134.781V129.05H93.75V134.781H100ZM0 140.512V143.375C0 144.412 0.1 145.438 0.3 146.419L6.425 145.206C6.30717 144.603 6.24856 143.99 6.25 143.375V140.512H0ZM100 143.375V140.512H93.75V143.375C93.75 144 93.6875 144.619 93.5687 145.206L99.7 146.419C99.9 145.431 100 144.419 100 143.375ZM2.63125 152.063C3.775 153.763 5.2375 155.225 6.94375 156.369L10.4188 151.175C9.39285 150.488 8.51162 149.607 7.825 148.581L2.6375 152.056L2.63125 152.063ZM93.0625 156.369C94.7625 155.225 96.225 153.762 97.3688 152.056L92.175 148.581C91.4875 149.606 90.6063 150.488 89.5813 151.175L93.0562 156.363L93.0625 156.369ZM12.5813 158.7C13.5688 158.9 14.5813 159 15.625 159H18.4875V152.75H15.625C15 152.75 14.3813 152.687 13.7938 152.569L12.5813 158.7V158.7ZM84.375 159C85.4125 159 86.4375 158.9 87.4188 158.7L86.2063 152.575C85.603 152.693 84.9897 152.751 84.375 152.75H81.5125V159H84.375ZM24.2188 159H29.95V152.75H24.2188V159ZM35.675 159H41.4062V152.75H35.675V159ZM47.1375 159H52.8625V152.75H47.1375V159ZM58.5938 159H64.325V152.75H58.5938V159ZM70.05 159H75.7812V152.75H70.05V159ZM28.125 105.875C27.2962 105.875 26.5013 106.204 25.9153 106.79C25.3292 107.376 25 108.171 25 109C25 109.829 25.3292 110.624 25.9153 111.21C26.5013 111.796 27.2962 112.125 28.125 112.125H71.875C72.7038 112.125 73.4987 111.796 74.0847 111.21C74.6708 110.624 75 109.829 75 109C75 108.171 74.6708 107.376 74.0847 106.79C73.4987 106.204 72.7038 105.875 71.875 105.875H28.125Z" fill="#E0E1E1"/>
</g>
<g clip-path="url(#clip2_93_6476)">
<path d="M15.625 189C14.5875 189 13.5625 189.1 12.5813 189.3L13.7938 195.425C14.397 195.307 15.0103 195.249 15.625 195.25H18.4875V189H15.625ZM29.95 189H24.2188V195.25H29.95V189ZM41.4062 189H35.675V195.25H41.4062V189ZM52.8625 189H47.1375V195.25H52.8625V189ZM64.325 189H58.5938V195.25H64.325V189ZM75.7812 189H70.05V195.25H75.7812V189ZM84.375 189H81.5125V195.25H84.375C85 195.25 85.6188 195.313 86.2063 195.431L87.4188 189.3C86.4164 189.101 85.3969 189.001 84.375 189V189ZM97.3688 195.938C96.2264 194.234 94.7613 192.771 93.0562 191.631L89.5813 196.825C90.6063 197.512 91.4875 198.394 92.175 199.419L97.3625 195.944L97.3688 195.938ZM6.9375 191.631C5.23408 192.774 3.77108 194.239 2.63125 195.944L7.825 199.419C8.5125 198.394 9.39375 197.512 10.4188 196.825L6.9375 191.637V191.631ZM100 204.625C100 203.588 99.9 202.563 99.7 201.581L93.575 202.794C93.6875 203.381 93.75 203.994 93.75 204.625V207.487H100V204.625ZM0.3 201.581C0.101099 202.584 0.000621567 203.603 0 204.625L0 207.487H6.25V204.625C6.25 204 6.3125 203.381 6.43125 202.794L0.3 201.581V201.581ZM0 213.219V218.95H6.25V213.219H0ZM100 218.95V213.219H93.75V218.95H100ZM0 224.675V230.406H6.25V224.675H0ZM100 230.406V224.675H93.75V230.406H100ZM0 236.137V241.863H6.25V236.137H0ZM93.75 241.863H100V236.137H93.75V241.863ZM0 247.594V253.325H6.25V247.594H0ZM100 253.325V247.594H93.75V253.325H100ZM0 259.05V264.781H6.25V259.05H0ZM100 264.781V259.05H93.75V264.781H100ZM0 270.512V273.375C0 274.412 0.1 275.438 0.3 276.419L6.425 275.206C6.30717 274.603 6.24856 273.99 6.25 273.375V270.512H0ZM100 273.375V270.512H93.75V273.375C93.75 274 93.6875 274.619 93.5687 275.206L99.7 276.419C99.9 275.431 100 274.419 100 273.375ZM2.63125 282.063C3.775 283.763 5.2375 285.225 6.94375 286.369L10.4188 281.175C9.39285 280.488 8.51162 279.607 7.825 278.581L2.6375 282.056L2.63125 282.063ZM93.0625 286.369C94.7625 285.225 96.225 283.762 97.3688 282.056L92.175 278.581C91.4875 279.606 90.6063 280.488 89.5813 281.175L93.0562 286.363L93.0625 286.369ZM12.5813 288.7C13.5688 288.9 14.5813 289 15.625 289H18.4875V282.75H15.625C15 282.75 14.3813 282.687 13.7938 282.569L12.5813 288.7V288.7ZM84.375 289C85.4125 289 86.4375 288.9 87.4188 288.7L86.2063 282.575C85.603 282.693 84.9897 282.751 84.375 282.75H81.5125V289H84.375ZM24.2188 289H29.95V282.75H24.2188V289ZM35.675 289H41.4062V282.75H35.675V289ZM47.1375 289H52.8625V282.75H47.1375V289ZM58.5938 289H64.325V282.75H58.5938V289ZM70.05 289H75.7812V282.75H70.05V289ZM28.125 235.875C27.2962 235.875 26.5013 236.204 25.9153 236.79C25.3292 237.376 25 238.171 25 239C25 239.829 25.3292 240.624 25.9153 241.21C26.5013 241.796 27.2962 242.125 28.125 242.125H71.875C72.7038 242.125 73.4987 241.796 74.0847 241.21C74.6708 240.624 75 239.829 75 239C75 238.171 74.6708 237.376 74.0847 236.79C73.4987 236.204 72.7038 235.875 71.875 235.875H28.125Z" fill="#E0E1E1"/>
</g>
<defs>
<clipPath id="clip0_93_6476">
<rect width="14" height="14" fill="white" transform="translate(539 19) rotate(-90)"/>
</clipPath>
<clipPath id="clip1_93_6476">
<rect width="100" height="100" fill="white" transform="translate(0 59)"/>
</clipPath>
<clipPath id="clip2_93_6476">
<rect width="100" height="100" fill="white" transform="translate(0 189)"/>
</clipPath>
</defs>
</svg>
