<svg width="1234" height="29" viewBox="0 0 1234 29" fill="none" xmlns="http://www.w3.org/2000/svg">
<path d="M10 22L3 15M3 15L10 8M3 15H21" stroke="black" stroke-width="2" stroke-linecap="round" stroke-linejoin="round"/>
<path d="M749.149 23.288C752.077 23.288 754.501 22.232 756.085 20.288L753.589 17.984C752.461 19.304 751.045 19.976 749.365 19.976C746.221 19.976 743.989 17.768 743.989 14.6C743.989 11.432 746.221 9.224 749.365 9.224C751.045 9.224 752.461 9.896 753.589 11.192L756.085 8.888C754.501 6.968 752.077 5.912 749.173 5.912C743.941 5.912 740.053 9.536 740.053 14.6C740.053 19.664 743.941 23.288 749.149 23.288ZM766.495 23.288C771.775 23.288 775.687 19.616 775.687 14.6C775.687 9.584 771.775 5.912 766.495 5.912C761.191 5.912 757.303 9.608 757.303 14.6C757.303 19.592 761.191 23.288 766.495 23.288ZM766.495 19.976C763.495 19.976 761.239 17.792 761.239 14.6C761.239 11.408 763.495 9.224 766.495 9.224C769.495 9.224 771.751 11.408 771.751 14.6C771.751 17.792 769.495 19.976 766.495 19.976ZM797.545 23L797.497 6.2H794.305L788.113 16.64L781.825 6.2H778.609V23H782.257V13.136L787.177 21.224H788.929L793.873 12.92L793.897 23H797.545ZM808.803 6.2H801.531V23H805.419V18.368H808.803C813.291 18.368 816.099 16.04 816.099 12.296C816.099 8.528 813.291 6.2 808.803 6.2ZM808.587 15.2H805.419V9.368H808.587C810.963 9.368 812.163 10.448 812.163 12.296C812.163 14.12 810.963 15.2 808.587 15.2ZM830.583 23H834.663L827.151 6.2H823.311L815.823 23H819.807L821.295 19.4H829.095L830.583 23ZM822.543 16.448L825.207 10.016L827.871 16.448H822.543ZM851.286 23L847.518 17.6C849.702 16.664 850.974 14.816 850.974 12.296C850.974 8.528 848.166 6.2 843.678 6.2H836.406V23H840.294V18.32H843.678H843.87L847.11 23H851.286ZM847.038 12.296C847.038 14.12 845.838 15.224 843.462 15.224H840.294V9.368H843.462C845.838 9.368 847.038 10.448 847.038 12.296ZM854.055 23H857.943V6.2H854.055V23ZM867.45 23.288C872.25 23.288 874.578 20.888 874.578 18.08C874.578 11.912 864.81 14.048 864.81 10.952C864.81 9.896 865.698 9.032 868.002 9.032C869.49 9.032 871.098 9.464 872.658 10.352L873.858 7.4C872.298 6.416 870.138 5.912 868.026 5.912C863.25 5.912 860.946 8.288 860.946 11.144C860.946 17.384 870.714 15.224 870.714 18.368C870.714 19.4 869.778 20.168 867.474 20.168C865.458 20.168 863.346 19.448 861.93 18.416L860.61 21.344C862.098 22.496 864.786 23.288 867.45 23.288ZM885.37 23.288C890.65 23.288 894.562 19.616 894.562 14.6C894.562 9.584 890.65 5.912 885.37 5.912C880.066 5.912 876.178 9.608 876.178 14.6C876.178 19.592 880.066 23.288 885.37 23.288ZM885.37 19.976C882.37 19.976 880.114 17.792 880.114 14.6C880.114 11.408 882.37 9.224 885.37 9.224C888.37 9.224 890.626 11.408 890.626 14.6C890.626 17.792 888.37 19.976 885.37 19.976ZM909.052 6.2V16.4L900.7 6.2H897.484V23H901.324V12.8L909.7 23H912.892V6.2H909.052ZM935.952 6.2L930.768 18.2L925.656 6.2H921.456L928.704 23H932.544L939.816 6.2H935.952ZM941.219 23H945.107V6.2H941.219V23ZM952.958 19.88V15.992H960.758V12.968H952.958V9.32H961.79V6.2H949.094V23H962.102V19.88H952.958ZM986.633 6.2L982.721 18.104L978.881 6.2H975.281L971.321 18.008L967.529 6.2H963.497L969.017 23H973.169L976.985 11.624L980.681 23H984.857L990.353 6.2H986.633Z" fill="#868788"/>
<rect x="496" y="12" width="198" height="5" fill="#D9D9D9"/>
<rect x="1036" y="12" width="198" height="5" fill="#D9D9D9"/>
</svg>
