<svg width="338" height="128" viewBox="0 0 338 128" fill="none" xmlns="http://www.w3.org/2000/svg">
<path d="M60.824 17.288C62.144 16.64 63.08 15.368 63.08 13.544C63.08 10.832 60.92 9.2 57.056 9.2H49.52V26H57.536C61.784 26 63.968 24.344 63.968 21.464C63.968 19.232 62.72 17.816 60.824 17.288ZM56.84 11.144C59.288 11.144 60.68 12.056 60.68 13.832C60.68 15.608 59.288 16.52 56.84 16.52H51.92V11.144H56.84ZM57.44 24.056H51.92V18.464H57.44C60.104 18.464 61.544 19.328 61.544 21.272C61.544 23.216 60.104 24.056 57.44 24.056ZM69.5561 15.416V13.28H67.3481V26H69.6521V19.664C69.6521 16.88 71.1881 15.368 73.6601 15.368C73.8281 15.368 73.9961 15.368 74.1881 15.392V13.16C71.9561 13.16 70.3721 13.928 69.5561 15.416ZM88.4066 19.712C88.4066 15.8 85.7906 13.16 82.1186 13.16C78.4466 13.16 75.7346 15.872 75.7346 19.64C75.7346 23.432 78.4706 26.144 82.5746 26.144C84.6866 26.144 86.4386 25.424 87.5906 24.08L86.3186 22.592C85.3826 23.624 84.1346 24.128 82.6466 24.128C80.1266 24.128 78.3266 22.64 78.0386 20.408H88.3586C88.3826 20.192 88.4066 19.904 88.4066 19.712ZM82.1186 15.104C84.3506 15.104 85.9586 16.616 86.1986 18.752H78.0386C78.2786 16.592 79.9106 15.104 82.1186 15.104ZM95.8863 13.16C93.8463 13.16 91.9503 13.736 90.6303 14.792L91.5903 16.52C92.5743 15.68 94.1103 15.152 95.6223 15.152C97.9023 15.152 99.0303 16.28 99.0303 18.224V18.68H95.3823C91.5903 18.68 90.2703 20.36 90.2703 22.4C90.2703 24.608 92.0943 26.144 94.9743 26.144C96.9663 26.144 98.3823 25.472 99.1503 24.32V26H101.334V18.32C101.334 14.84 99.3663 13.16 95.8863 13.16ZM95.3583 24.368C93.6063 24.368 92.5503 23.576 92.5503 22.304C92.5503 21.224 93.1983 20.336 95.4783 20.336H99.0303V22.112C98.4543 23.576 97.0863 24.368 95.3583 24.368ZM115.318 26H118.15L112.27 18.536L117.622 13.28H114.838L107.902 19.616V8.192H105.598V26H107.902V22.52L110.542 20.072L115.318 26ZM121.375 10.832C122.287 10.832 122.935 10.16 122.935 9.296C122.935 8.48 122.263 7.832 121.375 7.832C120.487 7.832 119.815 8.504 119.815 9.344C119.815 10.184 120.487 10.832 121.375 10.832ZM120.223 26H122.527V13.28H120.223V26ZM133.718 13.16C131.702 13.16 130.07 13.904 129.134 15.2V13.28H126.926V26H129.23V19.448C129.23 16.688 130.814 15.224 133.262 15.224C135.446 15.224 136.694 16.448 136.694 18.944V26H138.998V18.68C138.998 14.936 136.814 13.16 133.718 13.16ZM153.316 13.28V15.248C152.236 13.856 150.508 13.16 148.612 13.16C144.94 13.16 142.156 15.632 142.156 19.304C142.156 22.976 144.94 25.472 148.612 25.472C150.436 25.472 152.092 24.824 153.196 23.504V24.512C153.196 27.392 151.828 28.784 148.828 28.784C146.956 28.784 145.108 28.136 143.932 27.128L142.828 28.904C144.22 30.152 146.572 30.8 148.9 30.8C153.22 30.8 155.5 28.76 155.5 24.272V13.28H153.316ZM148.876 23.456C146.308 23.456 144.484 21.752 144.484 19.304C144.484 16.832 146.308 15.176 148.876 15.176C151.42 15.176 153.244 16.832 153.244 19.304C153.244 21.752 151.42 23.456 148.876 23.456ZM171.58 26.192C176.02 26.192 178.084 23.984 178.084 21.416C178.084 15.248 167.908 17.816 167.908 13.712C167.908 12.248 169.132 11.048 171.988 11.048C173.476 11.048 175.132 11.48 176.596 12.416L177.388 10.496C175.996 9.536 173.956 9.008 171.988 9.008C167.572 9.008 165.556 11.216 165.556 13.808C165.556 20.048 175.732 17.456 175.732 21.56C175.732 23.024 174.484 24.152 171.58 24.152C169.42 24.152 167.284 23.336 166.036 22.208L165.148 24.08C166.492 25.328 169.012 26.192 171.58 26.192ZM190.02 13.28L185.628 23.456L181.188 13.28H178.788L184.404 25.976L183.996 26.864C183.372 28.328 182.676 28.832 181.572 28.832C180.708 28.832 179.916 28.496 179.292 27.896L178.308 29.624C179.1 30.392 180.348 30.8 181.572 30.8C183.516 30.8 184.98 29.96 186.108 27.272L192.276 13.28H190.02ZM197.91 26.144C201.294 26.144 203.406 24.68 203.406 22.376C203.406 17.432 195.342 19.88 195.342 16.88C195.342 15.872 196.326 15.128 198.342 15.128C199.59 15.128 200.862 15.392 202.014 16.136L202.998 14.312C201.894 13.592 200.022 13.16 198.366 13.16C195.102 13.16 193.062 14.696 193.062 16.976C193.062 22.04 201.102 19.568 201.102 22.424C201.102 23.504 200.214 24.152 198.078 24.152C196.422 24.152 194.694 23.6 193.614 22.832L192.654 24.656C193.71 25.496 195.798 26.144 197.91 26.144ZM212.718 23.6C212.238 23.984 211.59 24.2 210.918 24.2C209.646 24.2 208.926 23.432 208.926 22.064V15.176H212.574V13.28H208.926V10.496H206.622V13.28H204.462V15.176H206.622V22.16C206.622 24.728 208.086 26.144 210.654 26.144C211.686 26.144 212.742 25.856 213.438 25.256L212.718 23.6ZM227.297 19.712C227.297 15.8 224.681 13.16 221.009 13.16C217.337 13.16 214.625 15.872 214.625 19.64C214.625 23.432 217.361 26.144 221.465 26.144C223.577 26.144 225.329 25.424 226.481 24.08L225.209 22.592C224.273 23.624 223.025 24.128 221.537 24.128C219.017 24.128 217.217 22.64 216.929 20.408H227.249C227.273 20.192 227.297 19.904 227.297 19.712ZM221.009 15.104C223.241 15.104 224.849 16.616 225.089 18.752H216.929C217.169 16.592 218.801 15.104 221.009 15.104ZM246.409 13.16C244.249 13.16 242.473 14.072 241.513 15.512C240.673 13.928 239.041 13.16 237.097 13.16C235.177 13.16 233.617 13.88 232.705 15.176V13.28H230.497V26H232.801V19.448C232.801 16.688 234.312 15.224 236.617 15.224C238.705 15.224 239.905 16.448 239.905 18.944V26H242.209V19.448C242.209 16.688 243.721 15.224 246.025 15.224C248.113 15.224 249.313 16.448 249.313 18.944V26H251.617V18.68C251.617 14.936 249.505 13.16 246.409 13.16Z" fill="#15181A"/>
<g filter="url(#filter0_b_93_6029)">
<rect width="36" height="36" rx="10" fill="url(#paint0_radial_93_6029)"/>
<rect x="0.5" y="0.5" width="35" height="35" rx="9.5" stroke="url(#paint1_radial_93_6029)"/>
</g>
<path d="M24.9901 16.5375L23.6851 16.1025C23.5963 15.8327 23.4886 15.5696 23.3626 15.315L24.0001 14.0925C24.0695 13.9519 24.093 13.7931 24.0675 13.6384C24.0419 13.4837 23.9685 13.3409 23.8576 13.23L22.7701 12.165C22.6619 12.0504 22.5203 11.9727 22.3655 11.9431C22.2107 11.9135 22.0504 11.9334 21.9076 12L20.6851 12.615C20.4305 12.489 20.1674 12.3813 19.8976 12.2925L19.5001 11.01C19.4479 10.8548 19.3463 10.7209 19.2109 10.6288C19.0755 10.5367 18.9136 10.4915 18.7501 10.5H17.2501C17.0928 10.4996 16.9394 10.5487 16.8116 10.6402C16.6837 10.7317 16.5879 10.8611 16.5376 11.01L16.1026 12.315C15.8328 12.4038 15.5696 12.5115 15.3151 12.6375L14.0926 12C13.9519 11.9307 13.7931 11.9071 13.6384 11.9326C13.4837 11.9582 13.3409 12.0316 13.2301 12.1425L12.1651 13.23C12.0504 13.3382 11.9728 13.4798 11.9431 13.6346C11.9135 13.7895 11.9334 13.9497 12.0001 14.0925L12.6151 15.315C12.4891 15.5696 12.3813 15.8327 12.2926 16.1025L10.9876 16.5375C10.8428 16.5916 10.7183 16.6891 10.631 16.8166C10.5438 16.9442 10.498 17.0955 10.5001 17.25V18.75C10.4997 18.9073 10.5487 19.0607 10.6402 19.1885C10.7317 19.3164 10.8611 19.4122 11.0101 19.4625L12.3151 19.8975C12.4038 20.1673 12.5116 20.4305 12.6376 20.685L12.0001 21.9075C11.9307 22.0482 11.9071 22.207 11.9327 22.3617C11.9582 22.5164 12.0316 22.6592 12.1426 22.77L13.2076 23.835C13.3174 23.9546 13.463 24.0353 13.6226 24.0651C13.7821 24.0948 13.9471 24.072 14.0926 24L15.3151 23.385C15.5696 23.511 15.8328 23.6188 16.1026 23.7075L16.5376 25.0125C16.5916 25.1573 16.6891 25.2818 16.8166 25.3691C16.9442 25.4563 17.0955 25.5021 17.2501 25.5H18.7501C18.9073 25.5004 19.0607 25.4514 19.1885 25.3599C19.3164 25.2684 19.4123 25.139 19.4626 24.99L19.8976 23.685C20.1674 23.5963 20.4305 23.4885 20.6851 23.3625L21.9076 23.9775C22.0482 24.0469 22.207 24.0705 22.3617 24.0449C22.5164 24.0194 22.6592 23.946 22.7701 23.835L23.8351 22.77C23.9497 22.6619 24.0274 22.5203 24.057 22.3655C24.0866 22.2106 24.0667 22.0504 24.0001 21.9075L23.3851 20.685C23.5111 20.4305 23.6188 20.1673 23.7076 19.8975L24.9901 19.5C25.1453 19.4479 25.2792 19.3463 25.3713 19.2109C25.4634 19.0754 25.5086 18.9136 25.5001 18.75V17.25C25.5005 17.0928 25.4515 16.9394 25.3599 16.8116C25.2684 16.6837 25.139 16.5879 24.9901 16.5375ZM18.0001 21C17.4067 21 16.8267 20.8241 16.3334 20.4945C15.84 20.1648 15.4555 19.6963 15.2284 19.1481C15.0014 18.5999 14.942 17.9967 15.0577 17.4148C15.1735 16.8328 15.4592 16.2983 15.8787 15.8787C16.2983 15.4592 16.8329 15.1734 17.4148 15.0577C17.9967 14.9419 18.5999 15.0013 19.1481 15.2284C19.6963 15.4555 20.1648 15.84 20.4945 16.3333C20.8241 16.8267 21.0001 17.4067 21.0001 18C21.0001 18.7957 20.684 19.5588 20.1214 20.1214C19.5588 20.684 18.7957 21 18.0001 21Z" fill="#898A8B" fill-opacity="0.6"/>
<path d="M78 67H78.888V59.368H81.84V58.6H75.048V59.368H78V67ZM86.2946 60.64C85.2266 60.64 84.3986 61.06 83.9306 61.792V58.096H83.0786V67H83.9306V63.688C83.9306 62.248 84.7826 61.408 86.1386 61.408C87.3386 61.408 88.0346 62.092 88.0346 63.424V67H88.8866V63.34C88.8866 61.528 87.8306 60.64 86.2946 60.64ZM96.7312 63.844C96.7312 61.948 95.4472 60.64 93.6712 60.64C91.8952 60.64 90.5872 61.972 90.5872 63.844C90.5872 65.716 91.9312 67.06 93.8992 67.06C94.8952 67.06 95.7712 66.7 96.3352 66.028L95.8552 65.476C95.3752 66.028 94.6912 66.304 93.9232 66.304C92.5432 66.304 91.5352 65.428 91.4392 64.108H96.7192C96.7192 64.012 96.7312 63.916 96.7312 63.844ZM93.6712 61.372C94.9072 61.372 95.8072 62.236 95.9152 63.472H91.4392C91.5472 62.236 92.4472 61.372 93.6712 61.372ZM106.514 58.096V61.888C105.986 61.072 105.122 60.64 104.114 60.64C102.314 60.64 100.97 61.936 100.97 63.844C100.97 65.752 102.314 67.06 104.114 67.06C105.158 67.06 106.034 66.604 106.55 65.752V67H107.366V58.096H106.514ZM104.186 66.304C102.842 66.304 101.834 65.32 101.834 63.844C101.834 62.368 102.842 61.384 104.186 61.384C105.518 61.384 106.526 62.368 106.526 63.844C106.526 65.32 105.518 66.304 104.186 66.304ZM110.171 59.308C110.531 59.308 110.795 59.032 110.795 58.684C110.795 58.36 110.519 58.096 110.171 58.096C109.823 58.096 109.547 58.372 109.547 58.696C109.547 59.032 109.823 59.308 110.171 59.308ZM109.739 67H110.591V60.688H109.739V67ZM114.653 67.06C116.297 67.06 117.257 66.352 117.257 65.26C117.257 62.836 113.165 64.12 113.165 62.416C113.165 61.816 113.669 61.372 114.809 61.372C115.457 61.372 116.117 61.528 116.669 61.912L117.041 61.228C116.513 60.868 115.625 60.64 114.809 60.64C113.201 60.64 112.313 61.408 112.313 62.44C112.313 64.936 116.405 63.64 116.405 65.284C116.405 65.908 115.913 66.316 114.713 66.316C113.825 66.316 112.973 66.004 112.469 65.608L112.085 66.28C112.601 66.724 113.609 67.06 114.653 67.06ZM121.449 67.06C122.517 67.06 123.417 66.628 123.921 65.812L123.285 65.38C122.853 66.016 122.181 66.304 121.449 66.304C120.069 66.304 119.061 65.332 119.061 63.844C119.061 62.368 120.069 61.384 121.449 61.384C122.181 61.384 122.853 61.684 123.285 62.32L123.921 61.888C123.417 61.06 122.517 60.64 121.449 60.64C119.565 60.64 118.197 61.96 118.197 63.844C118.197 65.728 119.565 67.06 121.449 67.06ZM127.286 67.06C128.93 67.06 129.89 66.352 129.89 65.26C129.89 62.836 125.798 64.12 125.798 62.416C125.798 61.816 126.302 61.372 127.442 61.372C128.09 61.372 128.75 61.528 129.302 61.912L129.674 61.228C129.146 60.868 128.258 60.64 127.442 60.64C125.834 60.64 124.946 61.408 124.946 62.44C124.946 64.936 129.038 63.64 129.038 65.284C129.038 65.908 128.546 66.316 127.346 66.316C126.458 66.316 125.606 66.004 125.102 65.608L124.718 66.28C125.234 66.724 126.242 67.06 127.286 67.06ZM137.63 66.004C137.39 66.22 137.042 66.328 136.694 66.328C135.986 66.328 135.602 65.92 135.602 65.176V61.408H137.522V60.688H135.602V59.308H134.75V60.688H133.622V61.408H134.75V65.224C134.75 66.388 135.41 67.06 136.598 67.06C137.09 67.06 137.594 66.916 137.93 66.616L137.63 66.004ZM142.697 60.64C141.629 60.64 140.801 61.06 140.333 61.792V58.096H139.481V67H140.333V63.688C140.333 62.248 141.185 61.408 142.541 61.408C143.741 61.408 144.437 62.092 144.437 63.424V67H145.289V63.34C145.289 61.528 144.233 60.64 142.697 60.64ZM149.81 60.64C148.814 60.64 147.878 60.952 147.242 61.492L147.626 62.128C148.142 61.672 148.91 61.384 149.726 61.384C150.902 61.384 151.514 61.972 151.514 63.052V63.436H149.51C147.698 63.436 147.074 64.252 147.074 65.224C147.074 66.316 147.95 67.06 149.378 67.06C150.422 67.06 151.166 66.664 151.55 66.016V67H152.366V63.088C152.366 61.456 151.442 60.64 149.81 60.64ZM149.51 66.388C148.502 66.388 147.914 65.932 147.914 65.2C147.914 64.552 148.31 64.072 149.534 64.072H151.514V65.104C151.178 65.932 150.47 66.388 149.51 66.388ZM157.704 66.004C157.464 66.22 157.116 66.328 156.768 66.328C156.06 66.328 155.676 65.92 155.676 65.176V61.408H157.596V60.688H155.676V59.308H154.824V60.688H153.696V61.408H154.824V65.224C154.824 66.388 155.484 67.06 156.672 67.06C157.164 67.06 157.668 66.916 158.004 66.616L157.704 66.004ZM163.128 59.308C163.488 59.308 163.752 59.032 163.752 58.684C163.752 58.36 163.476 58.096 163.128 58.096C162.78 58.096 162.504 58.372 162.504 58.696C162.504 59.032 162.78 59.308 163.128 59.308ZM162.696 67H163.548V60.688H162.696V67ZM169.134 60.64C168.042 60.64 167.19 61.084 166.734 61.852V60.688H165.918V67H166.77V63.688C166.77 62.248 167.622 61.408 168.978 61.408C170.178 61.408 170.874 62.092 170.874 63.424V67H171.726V63.34C171.726 61.528 170.67 60.64 169.134 60.64ZM180.204 66.004C179.964 66.22 179.616 66.328 179.268 66.328C178.56 66.328 178.176 65.92 178.176 65.176V61.408H180.096V60.688H178.176V59.308H177.324V60.688H176.196V61.408H177.324V65.224C177.324 66.388 177.984 67.06 179.172 67.06C179.664 67.06 180.168 66.916 180.504 66.616L180.204 66.004ZM185.271 60.64C184.203 60.64 183.375 61.06 182.907 61.792V58.096H182.055V67H182.907V63.688C182.907 62.248 183.759 61.408 185.115 61.408C186.315 61.408 187.011 62.092 187.011 63.424V67H187.863V63.34C187.863 61.528 186.807 60.64 185.271 60.64ZM195.708 63.844C195.708 61.948 194.424 60.64 192.648 60.64C190.872 60.64 189.564 61.972 189.564 63.844C189.564 65.716 190.908 67.06 192.876 67.06C193.872 67.06 194.748 66.7 195.312 66.028L194.832 65.476C194.352 66.028 193.668 66.304 192.9 66.304C191.52 66.304 190.512 65.428 190.416 64.108H195.696C195.696 64.012 195.708 63.916 195.708 63.844ZM192.648 61.372C193.884 61.372 194.784 62.236 194.892 63.472H190.416C190.524 62.236 191.424 61.372 192.648 61.372ZM205.467 67H206.511L203.559 63.268L206.259 60.688H205.203L201.435 64.132V58.096H200.583V67H201.435V65.2L202.923 63.832L205.467 67ZM208.128 59.308C208.488 59.308 208.752 59.032 208.752 58.684C208.752 58.36 208.476 58.096 208.128 58.096C207.78 58.096 207.504 58.372 207.504 58.696C207.504 59.032 207.78 59.308 208.128 59.308ZM207.696 67H208.548V60.688H207.696V67ZM213.942 66.004C213.702 66.22 213.354 66.328 213.006 66.328C212.298 66.328 211.914 65.92 211.914 65.176V61.408H213.834V60.688H211.914V59.308H211.062V60.688H209.934V61.408H211.062V65.224C211.062 66.388 211.722 67.06 212.91 67.06C213.402 67.06 213.906 66.916 214.242 66.616L213.942 66.004ZM222.15 60.64C221.082 60.64 220.254 61.06 219.786 61.792V58.096H218.934V67H219.786V63.688C219.786 62.248 220.638 61.408 221.994 61.408C223.194 61.408 223.89 62.092 223.89 63.424V67H224.742V63.34C224.742 61.528 223.686 60.64 222.15 60.64ZM229.263 60.64C228.267 60.64 227.331 60.952 226.695 61.492L227.079 62.128C227.595 61.672 228.363 61.384 229.179 61.384C230.355 61.384 230.967 61.972 230.967 63.052V63.436H228.963C227.151 63.436 226.527 64.252 226.527 65.224C226.527 66.316 227.403 67.06 228.831 67.06C229.875 67.06 230.619 66.664 231.003 66.016V67H231.819V63.088C231.819 61.456 230.895 60.64 229.263 60.64ZM228.963 66.388C227.955 66.388 227.367 65.932 227.367 65.2C227.367 64.552 227.763 64.072 228.987 64.072H230.967V65.104C230.631 65.932 229.923 66.388 228.963 66.388ZM238.48 60.688L236.092 66.064L233.728 60.688H232.84L235.636 67H236.512L239.32 60.688H238.48ZM245.852 63.844C245.852 61.948 244.568 60.64 242.792 60.64C241.016 60.64 239.708 61.972 239.708 63.844C239.708 65.716 241.052 67.06 243.02 67.06C244.016 67.06 244.892 66.7 245.456 66.028L244.976 65.476C244.496 66.028 243.812 66.304 243.044 66.304C241.664 66.304 240.656 65.428 240.56 64.108H245.84C245.84 64.012 245.852 63.916 245.852 63.844ZM242.792 61.372C244.028 61.372 244.928 62.236 245.036 63.472H240.56C240.668 62.236 241.568 61.372 242.792 61.372ZM252.935 60.64C251.939 60.64 251.003 60.952 250.367 61.492L250.751 62.128C251.267 61.672 252.035 61.384 252.851 61.384C254.027 61.384 254.639 61.972 254.639 63.052V63.436H252.635C250.823 63.436 250.199 64.252 250.199 65.224C250.199 66.316 251.075 67.06 252.503 67.06C253.547 67.06 254.291 66.664 254.675 66.016V67H255.491V63.088C255.491 61.456 254.567 60.64 252.935 60.64ZM252.635 66.388C251.627 66.388 251.039 65.932 251.039 65.2C251.039 64.552 251.435 64.072 252.659 64.072H254.639V65.104C254.303 65.932 253.595 66.388 252.635 66.388ZM265.41 60.688L263.022 66.064L260.658 60.688H259.77L262.566 67H263.442L266.25 60.688H265.41ZM272.782 63.844C272.782 61.948 271.498 60.64 269.722 60.64C267.946 60.64 266.638 61.972 266.638 63.844C266.638 65.716 267.982 67.06 269.95 67.06C270.946 67.06 271.822 66.7 272.386 66.028L271.906 65.476C271.426 66.028 270.742 66.304 269.974 66.304C268.594 66.304 267.586 65.428 267.49 64.108H272.77C272.77 64.012 272.782 63.916 272.782 63.844ZM269.722 61.372C270.958 61.372 271.858 62.236 271.966 63.472H267.49C267.598 62.236 268.498 61.372 269.722 61.372ZM277.732 60.64C276.64 60.64 275.788 61.084 275.332 61.852V60.688H274.516V67H275.368V63.688C275.368 62.248 276.22 61.408 277.576 61.408C278.776 61.408 279.472 62.092 279.472 63.424V67H280.324V63.34C280.324 61.528 279.268 60.64 277.732 60.64ZM285.661 66.004C285.421 66.22 285.073 66.328 284.725 66.328C284.017 66.328 283.633 65.92 283.633 65.176V61.408H285.553V60.688H283.633V59.308H282.781V60.688H281.653V61.408H282.781V65.224C282.781 66.388 283.441 67.06 284.629 67.06C285.121 67.06 285.625 66.916 285.961 66.616L285.661 66.004ZM287.944 59.308C288.304 59.308 288.568 59.032 288.568 58.684C288.568 58.36 288.292 58.096 287.944 58.096C287.596 58.096 287.32 58.372 287.32 58.696C287.32 59.032 287.596 59.308 287.944 59.308ZM287.512 67H288.364V60.688H287.512V67ZM290.735 67H291.587V58.096H290.735V67ZM296.166 60.64C295.17 60.64 294.234 60.952 293.598 61.492L293.982 62.128C294.498 61.672 295.266 61.384 296.082 61.384C297.258 61.384 297.87 61.972 297.87 63.052V63.436H295.866C294.054 63.436 293.43 64.252 293.43 65.224C293.43 66.316 294.306 67.06 295.734 67.06C296.778 67.06 297.522 66.664 297.906 66.016V67H298.722V63.088C298.722 61.456 297.798 60.64 296.166 60.64ZM295.866 66.388C294.858 66.388 294.27 65.932 294.27 65.2C294.27 64.552 294.666 64.072 295.89 64.072H297.87V65.104C297.534 65.932 296.826 66.388 295.866 66.388ZM304.06 66.004C303.82 66.22 303.472 66.328 303.124 66.328C302.416 66.328 302.032 65.92 302.032 65.176V61.408H303.952V60.688H302.032V59.308H301.18V60.688H300.052V61.408H301.18V65.224C301.18 66.388 301.84 67.06 303.028 67.06C303.52 67.06 304.024 66.916 304.36 66.616L304.06 66.004ZM306.343 59.308C306.703 59.308 306.967 59.032 306.967 58.684C306.967 58.36 306.691 58.096 306.343 58.096C305.995 58.096 305.719 58.372 305.719 58.696C305.719 59.032 305.995 59.308 306.343 59.308ZM305.911 67H306.763V60.688H305.911V67ZM311.713 67.06C313.561 67.06 314.917 65.716 314.917 63.844C314.917 61.972 313.561 60.64 311.713 60.64C309.865 60.64 308.497 61.972 308.497 63.844C308.497 65.716 309.865 67.06 311.713 67.06ZM311.713 66.304C310.369 66.304 309.361 65.32 309.361 63.844C309.361 62.368 310.369 61.384 311.713 61.384C313.057 61.384 314.053 62.368 314.053 63.844C314.053 65.32 313.057 66.304 311.713 66.304ZM319.873 60.64C318.781 60.64 317.929 61.084 317.473 61.852V60.688H316.657V67H317.509V63.688C317.509 62.248 318.361 61.408 319.717 61.408C320.917 61.408 321.613 62.092 321.613 63.424V67H322.465V63.34C322.465 61.528 321.409 60.64 319.873 60.64ZM77.88 82.06C79.524 82.06 80.484 81.352 80.484 80.26C80.484 77.836 76.392 79.12 76.392 77.416C76.392 76.816 76.896 76.372 78.036 76.372C78.684 76.372 79.344 76.528 79.896 76.912L80.268 76.228C79.74 75.868 78.852 75.64 78.036 75.64C76.428 75.64 75.54 76.408 75.54 77.44C75.54 79.936 79.632 78.64 79.632 80.284C79.632 80.908 79.14 81.316 77.94 81.316C77.052 81.316 76.2 81.004 75.696 80.608L75.312 81.28C75.828 81.724 76.836 82.06 77.88 82.06ZM86.4059 75.688L84.0299 81.052L81.6539 75.688H80.7659L83.5859 81.988L83.3099 82.6C82.9499 83.392 82.5659 83.656 82.0019 83.656C81.5459 83.656 81.1619 83.488 80.8499 83.176L80.4539 83.812C80.8379 84.196 81.4019 84.388 81.9899 84.388C82.8899 84.388 83.5619 83.992 84.0899 82.756L87.2459 75.688H86.4059ZM90.0675 82.06C91.7115 82.06 92.6715 81.352 92.6715 80.26C92.6715 77.836 88.5795 79.12 88.5795 77.416C88.5795 76.816 89.0835 76.372 90.2235 76.372C90.8715 76.372 91.5315 76.528 92.0835 76.912L92.4555 76.228C91.9275 75.868 91.0395 75.64 90.2235 75.64C88.6155 75.64 87.7275 76.408 87.7275 77.44C87.7275 79.936 91.8195 78.64 91.8195 80.284C91.8195 80.908 91.3275 81.316 90.1275 81.316C89.2395 81.316 88.3875 81.004 87.8835 80.608L87.4995 81.28C88.0155 81.724 89.0235 82.06 90.0675 82.06ZM97.2706 81.004C97.0306 81.22 96.6826 81.328 96.3346 81.328C95.6266 81.328 95.2426 80.92 95.2426 80.176V76.408H97.1626V75.688H95.2426V74.308H94.3906V75.688H93.2626V76.408H94.3906V80.224C94.3906 81.388 95.0506 82.06 96.2386 82.06C96.7306 82.06 97.2346 81.916 97.5706 81.616L97.2706 81.004ZM104.407 78.844C104.407 76.948 103.123 75.64 101.347 75.64C99.5709 75.64 98.2629 76.972 98.2629 78.844C98.2629 80.716 99.6069 82.06 101.575 82.06C102.571 82.06 103.447 81.7 104.011 81.028L103.531 80.476C103.051 81.028 102.367 81.304 101.599 81.304C100.219 81.304 99.2109 80.428 99.1149 79.108H104.395C104.395 79.012 104.407 78.916 104.407 78.844ZM101.347 76.372C102.583 76.372 103.483 77.236 103.591 78.472H99.1149C99.2229 77.236 100.123 76.372 101.347 76.372ZM114.013 75.64C112.873 75.64 111.973 76.156 111.517 76.972C111.133 76.084 110.317 75.64 109.273 75.64C108.217 75.64 107.401 76.084 106.957 76.84V75.688H106.141V82H106.993V78.688C106.993 77.248 107.821 76.408 109.105 76.408C110.257 76.408 110.929 77.092 110.929 78.424V82H111.781V78.688C111.781 77.248 112.597 76.408 113.893 76.408C115.033 76.408 115.705 77.092 115.705 78.424V82H116.557V78.34C116.557 76.528 115.549 75.64 114.013 75.64ZM125.032 81.004C124.792 81.22 124.444 81.328 124.096 81.328C123.388 81.328 123.004 80.92 123.004 80.176V76.408H124.924V75.688H123.004V74.308H122.152V75.688H121.024V76.408H122.152V80.224C122.152 81.388 122.812 82.06 124 82.06C124.492 82.06 124.996 81.916 125.332 81.616L125.032 81.004ZM130.099 75.64C129.031 75.64 128.203 76.06 127.735 76.792V73.096H126.883V82H127.735V78.688C127.735 77.248 128.587 76.408 129.943 76.408C131.143 76.408 131.839 77.092 131.839 78.424V82H132.691V78.34C132.691 76.528 131.635 75.64 130.099 75.64ZM137.212 75.64C136.216 75.64 135.28 75.952 134.644 76.492L135.028 77.128C135.544 76.672 136.312 76.384 137.128 76.384C138.304 76.384 138.916 76.972 138.916 78.052V78.436H136.912C135.1 78.436 134.476 79.252 134.476 80.224C134.476 81.316 135.352 82.06 136.78 82.06C137.824 82.06 138.568 81.664 138.952 81.016V82H139.768V78.088C139.768 76.456 138.844 75.64 137.212 75.64ZM136.912 81.388C135.904 81.388 135.316 80.932 135.316 80.2C135.316 79.552 135.712 79.072 136.936 79.072H138.916V80.104C138.58 80.932 137.872 81.388 136.912 81.388ZM145.107 81.004C144.867 81.22 144.519 81.328 144.171 81.328C143.463 81.328 143.079 80.92 143.079 80.176V76.408H144.999V75.688H143.079V74.308H142.227V75.688H141.099V76.408H142.227V80.224C142.227 81.388 142.887 82.06 144.075 82.06C144.567 82.06 145.071 81.916 145.407 81.616L145.107 81.004ZM150.53 74.308C150.89 74.308 151.154 74.032 151.154 73.684C151.154 73.36 150.878 73.096 150.53 73.096C150.182 73.096 149.906 73.372 149.906 73.696C149.906 74.032 150.182 74.308 150.53 74.308ZM150.098 82H150.95V75.688H150.098V82ZM161.193 75.64C160.053 75.64 159.153 76.156 158.697 76.972C158.313 76.084 157.497 75.64 156.453 75.64C155.397 75.64 154.581 76.084 154.137 76.84V75.688H153.321V82H154.173V78.688C154.173 77.248 155.001 76.408 156.285 76.408C157.437 76.408 158.109 77.092 158.109 78.424V82H158.961V78.688C158.961 77.248 159.777 76.408 161.073 76.408C162.213 76.408 162.885 77.092 162.885 78.424V82H163.737V78.34C163.737 76.528 162.729 75.64 161.193 75.64ZM169.299 75.64C168.255 75.64 167.379 76.096 166.863 76.936V75.688H166.047V84.328H166.899V80.812C167.427 81.628 168.291 82.06 169.299 82.06C171.099 82.06 172.443 80.764 172.443 78.844C172.443 76.936 171.099 75.64 169.299 75.64ZM169.239 81.304C167.895 81.304 166.887 80.32 166.887 78.844C166.887 77.38 167.895 76.384 169.239 76.384C170.571 76.384 171.591 77.38 171.591 78.844C171.591 80.32 170.571 81.304 169.239 81.304ZM174.996 76.924V75.688H174.18V82H175.032V78.784C175.032 77.296 175.836 76.456 177.156 76.456C177.216 76.456 177.288 76.468 177.36 76.468V75.64C176.196 75.64 175.392 76.084 174.996 76.924ZM181.424 82.06C183.272 82.06 184.628 80.716 184.628 78.844C184.628 76.972 183.272 75.64 181.424 75.64C179.576 75.64 178.208 76.972 178.208 78.844C178.208 80.716 179.576 82.06 181.424 82.06ZM181.424 81.304C180.08 81.304 179.072 80.32 179.072 78.844C179.072 77.368 180.08 76.384 181.424 76.384C182.768 76.384 183.764 77.368 183.764 78.844C183.764 80.32 182.768 81.304 181.424 81.304ZM190.656 75.688L188.268 81.064L185.904 75.688H185.016L187.812 82H188.688L191.496 75.688H190.656ZM198.028 78.844C198.028 76.948 196.744 75.64 194.968 75.64C193.192 75.64 191.884 76.972 191.884 78.844C191.884 80.716 193.228 82.06 195.196 82.06C196.192 82.06 197.068 81.7 197.632 81.028L197.152 80.476C196.672 81.028 195.988 81.304 195.22 81.304C193.84 81.304 192.832 80.428 192.736 79.108H198.016C198.016 79.012 198.028 78.916 198.028 78.844ZM194.968 76.372C196.204 76.372 197.104 77.236 197.212 78.472H192.736C192.844 77.236 193.744 76.372 194.968 76.372ZM201.454 82.06C203.098 82.06 204.058 81.352 204.058 80.26C204.058 77.836 199.966 79.12 199.966 77.416C199.966 76.816 200.47 76.372 201.61 76.372C202.258 76.372 202.918 76.528 203.47 76.912L203.842 76.228C203.314 75.868 202.426 75.64 201.61 75.64C200.002 75.64 199.114 76.408 199.114 77.44C199.114 79.936 203.206 78.64 203.206 80.284C203.206 80.908 202.714 81.316 201.514 81.316C200.626 81.316 199.774 81.004 199.27 80.608L198.886 81.28C199.402 81.724 200.41 82.06 201.454 82.06ZM211.798 81.004C211.558 81.22 211.21 81.328 210.862 81.328C210.154 81.328 209.77 80.92 209.77 80.176V76.408H211.69V75.688H209.77V74.308H208.918V75.688H207.79V76.408H208.918V80.224C208.918 81.388 209.578 82.06 210.766 82.06C211.258 82.06 211.762 81.916 212.098 81.616L211.798 81.004ZM216.865 75.64C215.797 75.64 214.969 76.06 214.501 76.792V73.096H213.649V82H214.501V78.688C214.501 77.248 215.353 76.408 216.709 76.408C217.909 76.408 218.605 77.092 218.605 78.424V82H219.457V78.34C219.457 76.528 218.401 75.64 216.865 75.64ZM227.301 78.844C227.301 76.948 226.017 75.64 224.241 75.64C222.465 75.64 221.157 76.972 221.157 78.844C221.157 80.716 222.501 82.06 224.469 82.06C225.465 82.06 226.341 81.7 226.905 81.028L226.425 80.476C225.945 81.028 225.261 81.304 224.493 81.304C223.113 81.304 222.105 80.428 222.009 79.108H227.289C227.289 79.012 227.301 78.916 227.301 78.844ZM224.241 76.372C225.477 76.372 226.377 77.236 226.485 78.472H222.009C222.117 77.236 223.017 76.372 224.241 76.372ZM234.792 82.06C235.86 82.06 236.76 81.628 237.264 80.812L236.628 80.38C236.196 81.016 235.524 81.304 234.792 81.304C233.412 81.304 232.404 80.332 232.404 78.844C232.404 77.368 233.412 76.384 234.792 76.384C235.524 76.384 236.196 76.684 236.628 77.32L237.264 76.888C236.76 76.06 235.86 75.64 234.792 75.64C232.908 75.64 231.54 76.96 231.54 78.844C231.54 80.728 232.908 82.06 234.792 82.06ZM241.413 82.06C243.261 82.06 244.617 80.716 244.617 78.844C244.617 76.972 243.261 75.64 241.413 75.64C239.565 75.64 238.197 76.972 238.197 78.844C238.197 80.716 239.565 82.06 241.413 82.06ZM241.413 81.304C240.069 81.304 239.061 80.32 239.061 78.844C239.061 77.368 240.069 76.384 241.413 76.384C242.757 76.384 243.753 77.368 243.753 78.844C243.753 80.32 242.757 81.304 241.413 81.304ZM248.936 82.06C250.784 82.06 252.14 80.716 252.14 78.844C252.14 76.972 250.784 75.64 248.936 75.64C247.088 75.64 245.72 76.972 245.72 78.844C245.72 80.716 247.088 82.06 248.936 82.06ZM248.936 81.304C247.592 81.304 246.584 80.32 246.584 78.844C246.584 77.368 247.592 76.384 248.936 76.384C250.28 76.384 251.276 77.368 251.276 78.844C251.276 80.32 250.28 81.304 248.936 81.304ZM253.879 82H254.731V73.096H253.879V82ZM257.534 74.308C257.894 74.308 258.158 74.032 258.158 73.684C258.158 73.36 257.882 73.096 257.534 73.096C257.186 73.096 256.91 73.372 256.91 73.696C256.91 74.032 257.186 74.308 257.534 74.308ZM257.102 82H257.954V75.688H257.102V82ZM263.541 75.64C262.449 75.64 261.597 76.084 261.141 76.852V75.688H260.325V82H261.177V78.688C261.177 77.248 262.029 76.408 263.385 76.408C264.585 76.408 265.281 77.092 265.281 78.424V82H266.133V78.34C266.133 76.528 265.077 75.64 263.541 75.64ZM273.497 75.688V76.9C272.969 76.072 272.057 75.64 271.001 75.64C269.201 75.64 267.833 76.876 267.833 78.688C267.833 80.5 269.201 81.76 271.001 81.76C272.033 81.76 272.933 81.34 273.461 80.536V81.34C273.461 82.9 272.729 83.632 271.133 83.632C270.161 83.632 269.249 83.308 268.649 82.768L268.217 83.416C268.877 84.04 270.005 84.388 271.157 84.388C273.245 84.388 274.313 83.404 274.313 81.232V75.688H273.497ZM271.085 81.004C269.693 81.004 268.697 80.056 268.697 78.688C268.697 77.32 269.693 76.384 271.085 76.384C272.477 76.384 273.485 77.32 273.485 78.688C273.485 80.056 272.477 81.004 271.085 81.004ZM282.452 82.06C283.52 82.06 284.42 81.628 284.924 80.812L284.288 80.38C283.856 81.016 283.184 81.304 282.452 81.304C281.072 81.304 280.064 80.332 280.064 78.844C280.064 77.368 281.072 76.384 282.452 76.384C283.184 76.384 283.856 76.684 284.288 77.32L284.924 76.888C284.42 76.06 283.52 75.64 282.452 75.64C280.568 75.64 279.2 76.96 279.2 78.844C279.2 80.728 280.568 82.06 282.452 82.06ZM288.806 75.64C287.81 75.64 286.874 75.952 286.238 76.492L286.622 77.128C287.138 76.672 287.906 76.384 288.722 76.384C289.898 76.384 290.51 76.972 290.51 78.052V78.436H288.506C286.694 78.436 286.07 79.252 286.07 80.224C286.07 81.316 286.946 82.06 288.374 82.06C289.418 82.06 290.162 81.664 290.546 81.016V82H291.362V78.088C291.362 76.456 290.438 75.64 288.806 75.64ZM288.506 81.388C287.498 81.388 286.91 80.932 286.91 80.2C286.91 79.552 287.306 79.072 288.53 79.072H290.51V80.104C290.174 80.932 289.466 81.388 288.506 81.388ZM296.928 75.64C295.884 75.64 295.008 76.096 294.492 76.936V75.688H293.676V84.328H294.528V80.812C295.056 81.628 295.92 82.06 296.928 82.06C298.728 82.06 300.072 80.764 300.072 78.844C300.072 76.936 298.728 75.64 296.928 75.64ZM296.868 81.304C295.524 81.304 294.516 80.32 294.516 78.844C294.516 77.38 295.524 76.384 296.868 76.384C298.2 76.384 299.22 77.38 299.22 78.844C299.22 80.32 298.2 81.304 296.868 81.304ZM303.982 75.64C302.986 75.64 302.05 75.952 301.414 76.492L301.798 77.128C302.314 76.672 303.082 76.384 303.898 76.384C305.074 76.384 305.686 76.972 305.686 78.052V78.436H303.682C301.87 78.436 301.246 79.252 301.246 80.224C301.246 81.316 302.122 82.06 303.55 82.06C304.594 82.06 305.338 81.664 305.722 81.016V82H306.538V78.088C306.538 76.456 305.614 75.64 303.982 75.64ZM303.682 81.388C302.674 81.388 302.086 80.932 302.086 80.2C302.086 79.552 302.482 79.072 303.706 79.072H305.686V80.104C305.35 80.932 304.642 81.388 303.682 81.388ZM311.492 82.06C312.56 82.06 313.46 81.628 313.964 80.812L313.328 80.38C312.896 81.016 312.224 81.304 311.492 81.304C310.112 81.304 309.104 80.332 309.104 78.844C309.104 77.368 310.112 76.384 311.492 76.384C312.224 76.384 312.896 76.684 313.328 77.32L313.964 76.888C313.46 76.06 312.56 75.64 311.492 75.64C309.608 75.64 308.24 76.96 308.24 78.844C308.24 80.728 309.608 82.06 311.492 82.06ZM316.069 74.308C316.429 74.308 316.693 74.032 316.693 73.684C316.693 73.36 316.417 73.096 316.069 73.096C315.721 73.096 315.445 73.372 315.445 73.696C315.445 74.032 315.721 74.308 316.069 74.308ZM315.637 82H316.489V75.688H315.637V82ZM321.884 81.004C321.644 81.22 321.296 81.328 320.948 81.328C320.24 81.328 319.856 80.92 319.856 80.176V76.408H321.776V75.688H319.856V74.308H319.004V75.688H317.876V76.408H319.004V80.224C319.004 81.388 319.664 82.06 320.852 82.06C321.344 82.06 321.848 81.916 322.184 81.616L321.884 81.004ZM328.082 75.688L325.706 81.052L323.33 75.688H322.442L325.262 81.988L324.986 82.6C324.626 83.392 324.242 83.656 323.678 83.656C323.222 83.656 322.838 83.488 322.526 83.176L322.13 83.812C322.514 84.196 323.078 84.388 323.666 84.388C324.566 84.388 325.238 83.992 325.766 82.756L328.922 75.688H328.082Z" fill="#15181A"/>
<circle cx="59" cy="62" r="3" fill="#15181A"/>
<path d="M76.368 110H79.788C82.476 110 84.288 108.272 84.288 105.8C84.288 103.328 82.476 101.6 79.788 101.6H76.368V110ZM77.256 109.232V102.368H79.74C81.972 102.368 83.412 103.784 83.412 105.8C83.412 107.816 81.972 109.232 79.74 109.232H77.256ZM89.9541 110.072C92.4741 110.072 94.3581 108.26 94.3581 105.8C94.3581 103.34 92.4741 101.528 89.9541 101.528C87.4101 101.528 85.5381 103.352 85.5381 105.8C85.5381 108.248 87.4101 110.072 89.9541 110.072ZM89.9541 109.28C87.9261 109.28 86.4141 107.804 86.4141 105.8C86.4141 103.796 87.9261 102.32 89.9541 102.32C91.9701 102.32 93.4701 103.796 93.4701 105.8C93.4701 107.804 91.9701 109.28 89.9541 109.28ZM97.8633 110H98.7513V102.368H101.703V101.6H94.9113V102.368H97.8633V110ZM108.291 103.64C107.295 103.64 106.359 103.952 105.723 104.492L106.107 105.128C106.623 104.672 107.391 104.384 108.207 104.384C109.383 104.384 109.995 104.972 109.995 106.052V106.436H107.991C106.179 106.436 105.555 107.252 105.555 108.224C105.555 109.316 106.431 110.06 107.859 110.06C108.903 110.06 109.647 109.664 110.031 109.016V110H110.847V106.088C110.847 104.456 109.923 103.64 108.291 103.64ZM107.991 109.388C106.983 109.388 106.395 108.932 106.395 108.2C106.395 107.552 106.791 107.072 108.015 107.072H109.995V108.104C109.659 108.932 108.951 109.388 107.991 109.388ZM116.413 103.64C115.369 103.64 114.493 104.096 113.977 104.936V103.688H113.161V112.328H114.013V108.812C114.541 109.628 115.405 110.06 116.413 110.06C118.213 110.06 119.557 108.764 119.557 106.844C119.557 104.936 118.213 103.64 116.413 103.64ZM116.353 109.304C115.009 109.304 114.001 108.32 114.001 106.844C114.001 105.38 115.009 104.384 116.353 104.384C117.685 104.384 118.705 105.38 118.705 106.844C118.705 108.32 117.685 109.304 116.353 109.304ZM124.545 103.64C123.501 103.64 122.625 104.096 122.109 104.936V103.688H121.293V112.328H122.145V108.812C122.673 109.628 123.537 110.06 124.545 110.06C126.345 110.06 127.689 108.764 127.689 106.844C127.689 104.936 126.345 103.64 124.545 103.64ZM124.485 109.304C123.141 109.304 122.133 108.32 122.133 106.844C122.133 105.38 123.141 104.384 124.485 104.384C125.817 104.384 126.837 105.38 126.837 106.844C126.837 108.32 125.817 109.304 124.485 109.304ZM130.242 104.924V103.688H129.426V110H130.278V106.784C130.278 105.296 131.082 104.456 132.402 104.456C132.462 104.456 132.534 104.468 132.606 104.468V103.64C131.442 103.64 130.638 104.084 130.242 104.924ZM136.67 110.06C138.518 110.06 139.874 108.716 139.874 106.844C139.874 104.972 138.518 103.64 136.67 103.64C134.822 103.64 133.454 104.972 133.454 106.844C133.454 108.716 134.822 110.06 136.67 110.06ZM136.67 109.304C135.326 109.304 134.318 108.32 134.318 106.844C134.318 105.368 135.326 104.384 136.67 104.384C138.014 104.384 139.01 105.368 139.01 106.844C139.01 108.32 138.014 109.304 136.67 109.304ZM145.902 103.688L143.514 109.064L141.15 103.688H140.262L143.058 110H143.934L146.742 103.688H145.902ZM153.274 106.844C153.274 104.948 151.99 103.64 150.214 103.64C148.438 103.64 147.13 104.972 147.13 106.844C147.13 108.716 148.474 110.06 150.442 110.06C151.438 110.06 152.314 109.7 152.878 109.028L152.398 108.476C151.918 109.028 151.234 109.304 150.466 109.304C149.086 109.304 148.078 108.428 147.982 107.108H153.262C153.262 107.012 153.274 106.916 153.274 106.844ZM150.214 104.372C151.45 104.372 152.35 105.236 152.458 106.472H147.982C148.09 105.236 148.99 104.372 150.214 104.372ZM159.916 101.096V104.888C159.388 104.072 158.524 103.64 157.516 103.64C155.716 103.64 154.372 104.936 154.372 106.844C154.372 108.752 155.716 110.06 157.516 110.06C158.56 110.06 159.436 109.604 159.952 108.752V110H160.768V101.096H159.916ZM157.588 109.304C156.244 109.304 155.236 108.32 155.236 106.844C155.236 105.368 156.244 104.384 157.588 104.384C158.92 104.384 159.928 105.368 159.928 106.844C159.928 108.32 158.92 109.304 157.588 109.304ZM174.154 103.64C173.014 103.64 172.114 104.156 171.658 104.972C171.274 104.084 170.458 103.64 169.414 103.64C168.358 103.64 167.542 104.084 167.098 104.84V103.688H166.282V110H167.134V106.688C167.134 105.248 167.962 104.408 169.246 104.408C170.398 104.408 171.07 105.092 171.07 106.424V110H171.922V106.688C171.922 105.248 172.738 104.408 174.034 104.408C175.174 104.408 175.846 105.092 175.846 106.424V110H176.698V106.34C176.698 104.528 175.69 103.64 174.154 103.64ZM184.54 106.844C184.54 104.948 183.256 103.64 181.48 103.64C179.704 103.64 178.396 104.972 178.396 106.844C178.396 108.716 179.74 110.06 181.708 110.06C182.704 110.06 183.58 109.7 184.144 109.028L183.664 108.476C183.184 109.028 182.5 109.304 181.732 109.304C180.352 109.304 179.344 108.428 179.248 107.108H184.528C184.528 107.012 184.54 106.916 184.54 106.844ZM181.48 104.372C182.716 104.372 183.616 105.236 183.724 106.472H179.248C179.356 105.236 180.256 104.372 181.48 104.372ZM189.298 109.004C189.058 109.22 188.71 109.328 188.362 109.328C187.654 109.328 187.27 108.92 187.27 108.176V104.408H189.19V103.688H187.27V102.308H186.418V103.688H185.29V104.408H186.418V108.224C186.418 109.388 187.078 110.06 188.266 110.06C188.758 110.06 189.262 109.916 189.598 109.616L189.298 109.004ZM193.357 103.64C192.361 103.64 191.425 103.952 190.789 104.492L191.173 105.128C191.689 104.672 192.457 104.384 193.273 104.384C194.449 104.384 195.061 104.972 195.061 106.052V106.436H193.057C191.245 106.436 190.621 107.252 190.621 108.224C190.621 109.316 191.497 110.06 192.925 110.06C193.969 110.06 194.713 109.664 195.097 109.016V110H195.913V106.088C195.913 104.456 194.989 103.64 193.357 103.64ZM193.057 109.388C192.049 109.388 191.461 108.932 191.461 108.2C191.461 107.552 191.857 107.072 193.081 107.072H195.061V108.104C194.725 108.932 194.017 109.388 193.057 109.388ZM198.227 110H199.079V101.096H198.227V110ZM200.982 107.12H204.126V106.376H200.982V107.12ZM209.284 103.64C208.276 103.64 207.412 104.072 206.884 104.888V101.096H206.032V110H206.848V108.752C207.364 109.604 208.24 110.06 209.284 110.06C211.084 110.06 212.428 108.752 212.428 106.844C212.428 104.936 211.084 103.64 209.284 103.64ZM209.224 109.304C207.88 109.304 206.872 108.32 206.872 106.844C206.872 105.368 207.88 104.384 209.224 104.384C210.556 104.384 211.576 105.368 211.576 106.844C211.576 108.32 210.556 109.304 209.224 109.304ZM214.981 104.924V103.688H214.165V110H215.017V106.784C215.017 105.296 215.821 104.456 217.141 104.456C217.201 104.456 217.273 104.468 217.345 104.468V103.64C216.181 103.64 215.377 104.084 214.981 104.924ZM221.084 103.64C220.088 103.64 219.152 103.952 218.516 104.492L218.9 105.128C219.416 104.672 220.184 104.384 221 104.384C222.176 104.384 222.788 104.972 222.788 106.052V106.436H220.784C218.972 106.436 218.348 107.252 218.348 108.224C218.348 109.316 219.224 110.06 220.652 110.06C221.696 110.06 222.44 109.664 222.824 109.016V110H223.64V106.088C223.64 104.456 222.716 103.64 221.084 103.64ZM220.784 109.388C219.776 109.388 219.188 108.932 219.188 108.2C219.188 107.552 219.584 107.072 220.808 107.072H222.788V108.104C222.452 108.932 221.744 109.388 220.784 109.388ZM226.386 102.308C226.746 102.308 227.01 102.032 227.01 101.684C227.01 101.36 226.734 101.096 226.386 101.096C226.038 101.096 225.762 101.372 225.762 101.696C225.762 102.032 226.038 102.308 226.386 102.308ZM225.954 110H226.806V103.688H225.954V110ZM234.084 101.096V104.888C233.556 104.072 232.692 103.64 231.684 103.64C229.884 103.64 228.54 104.936 228.54 106.844C228.54 108.752 229.884 110.06 231.684 110.06C232.728 110.06 233.604 109.604 234.12 108.752V110H234.936V101.096H234.084ZM231.756 109.304C230.412 109.304 229.404 108.32 229.404 106.844C229.404 105.368 230.412 104.384 231.756 104.384C233.088 104.384 234.096 105.368 234.096 106.844C234.096 108.32 233.088 109.304 231.756 109.304ZM242.817 106.844C242.817 104.948 241.533 103.64 239.757 103.64C237.981 103.64 236.673 104.972 236.673 106.844C236.673 108.716 238.017 110.06 239.985 110.06C240.981 110.06 241.857 109.7 242.421 109.028L241.941 108.476C241.461 109.028 240.777 109.304 240.009 109.304C238.629 109.304 237.621 108.428 237.525 107.108H242.805C242.805 107.012 242.817 106.916 242.817 106.844ZM239.757 104.372C240.993 104.372 241.893 105.236 242.001 106.472H237.525C237.633 105.236 238.533 104.372 239.757 104.372ZM249.459 101.096V104.888C248.931 104.072 248.067 103.64 247.059 103.64C245.259 103.64 243.915 104.936 243.915 106.844C243.915 108.752 245.259 110.06 247.059 110.06C248.103 110.06 248.979 109.604 249.495 108.752V110H250.311V101.096H249.459ZM247.131 109.304C245.787 109.304 244.779 108.32 244.779 106.844C244.779 105.368 245.787 104.384 247.131 104.384C248.463 104.384 249.471 105.368 249.471 106.844C249.471 108.32 248.463 109.304 247.131 109.304ZM259.041 103.64C257.973 103.64 257.145 104.06 256.677 104.792V101.096H255.825V110H256.677V106.688C256.677 105.248 257.529 104.408 258.885 104.408C260.085 104.408 260.781 105.092 260.781 106.424V110H261.633V106.34C261.633 104.528 260.577 103.64 259.041 103.64ZM266.549 110.06C268.397 110.06 269.753 108.716 269.753 106.844C269.753 104.972 268.397 103.64 266.549 103.64C264.701 103.64 263.333 104.972 263.333 106.844C263.333 108.716 264.701 110.06 266.549 110.06ZM266.549 109.304C265.205 109.304 264.197 108.32 264.197 106.844C264.197 105.368 265.205 104.384 266.549 104.384C267.893 104.384 268.889 105.368 268.889 106.844C268.889 108.32 267.893 109.304 266.549 109.304ZM273.185 110.06C274.829 110.06 275.789 109.352 275.789 108.26C275.789 105.836 271.697 107.12 271.697 105.416C271.697 104.816 272.201 104.372 273.341 104.372C273.989 104.372 274.649 104.528 275.201 104.912L275.573 104.228C275.045 103.868 274.157 103.64 273.341 103.64C271.733 103.64 270.845 104.408 270.845 105.44C270.845 107.936 274.937 106.64 274.937 108.284C274.937 108.908 274.445 109.316 273.245 109.316C272.357 109.316 271.505 109.004 271.001 108.608L270.617 109.28C271.133 109.724 272.141 110.06 273.185 110.06ZM282.872 106.844C282.872 104.948 281.588 103.64 279.812 103.64C278.036 103.64 276.728 104.972 276.728 106.844C276.728 108.716 278.072 110.06 280.04 110.06C281.036 110.06 281.912 109.7 282.476 109.028L281.996 108.476C281.516 109.028 280.832 109.304 280.064 109.304C278.684 109.304 277.676 108.428 277.58 107.108H282.86C282.86 107.012 282.872 106.916 282.872 106.844ZM279.812 104.372C281.048 104.372 281.948 105.236 282.056 106.472H277.58C277.688 105.236 278.588 104.372 279.812 104.372ZM286.298 110.06C287.942 110.06 288.902 109.352 288.902 108.26C288.902 105.836 284.81 107.12 284.81 105.416C284.81 104.816 285.314 104.372 286.454 104.372C287.102 104.372 287.762 104.528 288.314 104.912L288.686 104.228C288.158 103.868 287.27 103.64 286.454 103.64C284.846 103.64 283.958 104.408 283.958 105.44C283.958 107.936 288.05 106.64 288.05 108.284C288.05 108.908 287.558 109.316 286.358 109.316C285.47 109.316 284.618 109.004 284.114 108.608L283.73 109.28C284.246 109.724 285.254 110.06 286.298 110.06Z" fill="#15181A"/>
<circle cx="59" cy="106" r="3" fill="#15181A"/>
<g clip-path="url(#clip0_93_6029)">
<path d="M327.111 18.0001C327.111 17.141 326.415 16.4445 325.556 16.4445C324.696 16.4445 324 17.141 324 18.0001C324 18.8592 324.696 19.5557 325.556 19.5557C326.415 19.5557 327.111 18.8592 327.111 18.0001Z" fill="#444648"/>
<path d="M332.556 18.0001C332.556 17.141 331.86 16.4445 331 16.4445C330.141 16.4445 329.445 17.141 329.445 18.0001C329.445 18.8592 330.141 19.5557 331 19.5557C331.86 19.5557 332.556 18.8592 332.556 18.0001Z" fill="#444648"/>
<path d="M338 18.0001C338 17.141 337.304 16.4445 336.445 16.4445C335.586 16.4445 334.889 17.141 334.889 18.0001C334.889 18.8592 335.586 19.5557 336.445 19.5557C337.304 19.5557 338 18.8592 338 18.0001Z" fill="#444648"/>
</g>
<defs>
<filter id="filter0_b_93_6029" x="-15" y="-15" width="66" height="66" filterUnits="userSpaceOnUse" color-interpolation-filters="sRGB">
<feFlood flood-opacity="0" result="BackgroundImageFix"/>
<feGaussianBlur in="BackgroundImage" stdDeviation="7.5"/>
<feComposite in2="SourceAlpha" operator="in" result="effect1_backgroundBlur_93_6029"/>
<feBlend mode="normal" in="SourceGraphic" in2="effect1_backgroundBlur_93_6029" result="shape"/>
</filter>
<radialGradient id="paint0_radial_93_6029" cx="0" cy="0" r="1" gradientUnits="userSpaceOnUse" gradientTransform="translate(18 18) rotate(90) scale(58.4833)">
<stop stop-color="white"/>
<stop offset="1" stop-color="white" stop-opacity="0.5"/>
</radialGradient>
<radialGradient id="paint1_radial_93_6029" cx="0" cy="0" r="1" gradientUnits="userSpaceOnUse" gradientTransform="translate(1.43558 4.17075) rotate(46.1039) scale(44.1706 778.082)">
<stop stop-color="white"/>
<stop offset="1" stop-color="white" stop-opacity="0.2"/>
</radialGradient>
<clipPath id="clip0_93_6029">
<rect width="14" height="14" fill="white" transform="translate(324 25) rotate(-90)"/>
</clipPath>
</defs>
</svg>
