<svg width="338" height="128" viewBox="0 0 338 128" fill="none" xmlns="http://www.w3.org/2000/svg">
<text fill="#15181A" xml:space="preserve" style="white-space: pre" font-family="Montserrat" font-size="24" font-weight="500" letter-spacing="0em"><tspan x="47" y="26.104">Breaking System</tspan></text>
<g filter="url(#filter0_b_40_1713)">
<rect width="36" height="36" rx="10" fill="url(#paint0_radial_40_1713)"/>
<rect x="0.5" y="0.5" width="35" height="35" rx="9.5" stroke="url(#paint1_radial_40_1713)"/>
</g>
<path d="M24.9901 16.5375L23.6851 16.1025C23.5963 15.8327 23.4886 15.5696 23.3626 15.315L24.0001 14.0925C24.0695 13.9519 24.093 13.7931 24.0675 13.6384C24.0419 13.4837 23.9685 13.3409 23.8576 13.23L22.7701 12.165C22.6619 12.0504 22.5203 11.9727 22.3655 11.9431C22.2107 11.9135 22.0504 11.9334 21.9076 12L20.6851 12.615C20.4305 12.489 20.1674 12.3813 19.8976 12.2925L19.5001 11.01C19.4479 10.8548 19.3463 10.7209 19.2109 10.6288C19.0755 10.5367 18.9136 10.4915 18.7501 10.5H17.2501C17.0928 10.4996 16.9394 10.5487 16.8116 10.6402C16.6837 10.7317 16.5879 10.8611 16.5376 11.01L16.1026 12.315C15.8328 12.4038 15.5696 12.5115 15.3151 12.6375L14.0926 12C13.9519 11.9307 13.7931 11.9071 13.6384 11.9326C13.4837 11.9582 13.3409 12.0316 13.2301 12.1425L12.1651 13.23C12.0504 13.3382 11.9728 13.4798 11.9431 13.6346C11.9135 13.7895 11.9334 13.9497 12.0001 14.0925L12.6151 15.315C12.4891 15.5696 12.3813 15.8327 12.2926 16.1025L10.9876 16.5375C10.8428 16.5916 10.7183 16.6891 10.631 16.8166C10.5438 16.9442 10.498 17.0955 10.5001 17.25V18.75C10.4997 18.9073 10.5487 19.0607 10.6402 19.1885C10.7317 19.3164 10.8611 19.4122 11.0101 19.4625L12.3151 19.8975C12.4038 20.1673 12.5116 20.4305 12.6376 20.685L12.0001 21.9075C11.9307 22.0482 11.9071 22.207 11.9327 22.3617C11.9582 22.5164 12.0316 22.6592 12.1426 22.77L13.2076 23.835C13.3174 23.9546 13.463 24.0353 13.6226 24.0651C13.7821 24.0948 13.9471 24.072 14.0926 24L15.3151 23.385C15.5696 23.511 15.8328 23.6188 16.1026 23.7075L16.5376 25.0125C16.5916 25.1573 16.6891 25.2818 16.8166 25.3691C16.9442 25.4563 17.0955 25.5021 17.2501 25.5H18.7501C18.9073 25.5004 19.0607 25.4514 19.1885 25.3599C19.3164 25.2684 19.4123 25.139 19.4626 24.99L19.8976 23.685C20.1674 23.5963 20.4305 23.4885 20.6851 23.3625L21.9076 23.9775C22.0482 24.0469 22.207 24.0705 22.3617 24.0449C22.5164 24.0194 22.6592 23.946 22.7701 23.835L23.8351 22.77C23.9497 22.6619 24.0274 22.5203 24.057 22.3655C24.0866 22.2106 24.0667 22.0504 24.0001 21.9075L23.3851 20.685C23.5111 20.4305 23.6188 20.1673 23.7076 19.8975L24.9901 19.5C25.1453 19.4479 25.2792 19.3463 25.3713 19.2109C25.4634 19.0754 25.5086 18.9136 25.5001 18.75V17.25C25.5005 17.0928 25.4515 16.9394 25.3599 16.8116C25.2684 16.6837 25.139 16.5879 24.9901 16.5375ZM18.0001 21C17.4067 21 16.8267 20.8241 16.3334 20.4945C15.84 20.1648 15.4555 19.6963 15.2284 19.1481C15.0014 18.5999 14.942 17.9967 15.0577 17.4148C15.1735 16.8328 15.4592 16.2983 15.8787 15.8787C16.2983 15.4592 16.8329 15.1734 17.4148 15.0577C17.9967 14.9419 18.5999 15.0013 19.1481 15.2284C19.6963 15.4555 20.1648 15.84 20.4945 16.3333C20.8241 16.8267 21.0001 17.4067 21.0001 18C21.0001 18.7957 20.684 19.5588 20.1214 20.1214C19.5588 20.684 18.7957 21 18.0001 21Z" fill="#898A8B" fill-opacity="0.6"/>
<text fill="#15181A" xml:space="preserve" style="white-space: pre" font-family="Montserrat" font-size="12" letter-spacing="0em"><tspan x="75" y="66.802">Lorem ipsum dolor sit amet, consectetur </tspan><tspan x="75" y="81.802">adipiscing elit. Maecenas volutpat urna leo.</tspan></text>
<circle cx="59" cy="62" r="3" fill="#15181A"/>
<text fill="#15181A" xml:space="preserve" style="white-space: pre" font-family="Montserrat" font-size="12" letter-spacing="0em"><tspan x="75" y="109.802">Lorem ipsum dolor sit amet, </tspan><tspan x="75" y="124.802">consectetur adipiscing</tspan></text>
<circle cx="59" cy="106" r="3" fill="#15181A"/>
<g clip-path="url(#clip0_40_1713)">
<path d="M327.111 17.9999C327.111 17.1407 326.415 16.4443 325.556 16.4443C324.696 16.4443 324 17.1407 324 17.9999C324 18.859 324.696 19.5554 325.556 19.5554C326.415 19.5554 327.111 18.859 327.111 17.9999Z" fill="#444648"/>
<path d="M332.555 17.9999C332.555 17.1407 331.859 16.4443 331 16.4443C330.141 16.4443 329.444 17.1407 329.444 17.9999C329.444 18.859 330.141 19.5554 331 19.5554C331.859 19.5554 332.555 18.859 332.555 17.9999Z" fill="#444648"/>
<path d="M338 17.9999C338 17.1407 337.303 16.4443 336.444 16.4443C335.585 16.4443 334.889 17.1407 334.889 17.9999C334.889 18.859 335.585 19.5554 336.444 19.5554C337.303 19.5554 338 18.859 338 17.9999Z" fill="#444648"/>
</g>
<defs>
<filter id="filter0_b_40_1713" x="-15" y="-15" width="66" height="66" filterUnits="userSpaceOnUse" color-interpolation-filters="sRGB">
<feFlood flood-opacity="0" result="BackgroundImageFix"/>
<feGaussianBlur in="BackgroundImage" stdDeviation="7.5"/>
<feComposite in2="SourceAlpha" operator="in" result="effect1_backgroundBlur_40_1713"/>
<feBlend mode="normal" in="SourceGraphic" in2="effect1_backgroundBlur_40_1713" result="shape"/>
</filter>
<radialGradient id="paint0_radial_40_1713" cx="0" cy="0" r="1" gradientUnits="userSpaceOnUse" gradientTransform="translate(18 18) rotate(90) scale(58.4833)">
<stop stop-color="white"/>
<stop offset="1" stop-color="white" stop-opacity="0.5"/>
</radialGradient>
<radialGradient id="paint1_radial_40_1713" cx="0" cy="0" r="1" gradientUnits="userSpaceOnUse" gradientTransform="translate(1.43558 4.17075) rotate(46.1039) scale(44.1706 778.082)">
<stop stop-color="white"/>
<stop offset="1" stop-color="white" stop-opacity="0.2"/>
</radialGradient>
<clipPath id="clip0_40_1713">
<rect width="14" height="14" fill="white" transform="translate(324 25) rotate(-90)"/>
</clipPath>
</defs>
</svg>
