<svg width="289" height="150" viewBox="0 0 289 150" fill="none" xmlns="http://www.w3.org/2000/svg">
<g filter="url(#filter0_d_93_6032)">
<circle cx="30" cy="26" r="7.5" stroke="url(#paint0_linear_93_6032)" stroke-width="5" shape-rendering="crispEdges"/>
</g>
<circle cx="30" cy="26" r="13.5" stroke="url(#paint1_radial_93_6032)"/>
<circle opacity="0.65" cx="30" cy="26" r="18.5" stroke="url(#paint2_radial_93_6032)"/>
<circle opacity="0.45" cx="30" cy="26" r="22.5" stroke="url(#paint3_radial_93_6032)"/>
<line x1="42.4453" y1="57.7725" x2="89.4453" y2="149.773" stroke="#15181A"/>
<line x1="89" y1="149.5" x2="289" y2="149.5" stroke="#15181A"/>
<path d="M108.44 104.176C109.304 103.712 109.88 102.864 109.88 101.712C109.88 99.936 108.44 98.8 105.752 98.8H100.504V110H106.072C108.952 110 110.456 108.88 110.456 106.96C110.456 105.504 109.64 104.56 108.44 104.176ZM105.528 100.432C106.968 100.432 107.784 100.944 107.784 101.984C107.784 103.008 106.968 103.52 105.528 103.52H102.584V100.432H105.528ZM105.944 108.368H102.584V105.136H105.944C107.512 105.136 108.36 105.632 108.36 106.752C108.36 107.872 107.512 108.368 105.944 108.368ZM122.244 110L119.668 106.32C121.188 105.728 122.052 104.48 122.052 102.784C122.052 100.304 120.228 98.8 117.284 98.8H112.676V110H114.756V106.736H117.284C117.428 106.736 117.572 106.736 117.716 106.72L120.004 110H122.244ZM119.956 102.784C119.956 104.192 119.012 105.024 117.188 105.024H114.756V100.56H117.188C119.012 100.56 119.956 101.376 119.956 102.784ZM126.459 108.256V105.168H131.867V103.456H126.459V100.544H132.555V98.8H124.379V110H132.779V108.256H126.459ZM143.482 110H145.658L140.602 98.8H138.554L133.514 110H135.658L136.762 107.408H142.362L143.482 110ZM137.466 105.776L139.562 100.88L141.674 105.776H137.466ZM154.89 110H157.322L152.33 103.808L157.034 98.8H154.698L149.162 104.544V98.8H147.082V110H149.162V107.136L150.938 105.312L154.89 110ZM158.738 110H160.818V98.8H158.738V110ZM171.736 98.8V106.384L165.56 98.8H163.848V110H165.912V102.416L172.088 110H173.8V98.8H171.736ZM184.449 107.76C183.729 108.176 182.945 108.336 182.145 108.336C179.777 108.336 178.097 106.672 178.097 104.4C178.097 102.08 179.777 100.464 182.161 100.464C183.361 100.464 184.369 100.864 185.249 101.744L186.561 100.464C185.505 99.264 183.937 98.64 182.065 98.64C178.561 98.64 176.001 101.056 176.001 104.4C176.001 107.744 178.561 110.16 182.033 110.16C183.617 110.16 185.249 109.68 186.417 108.736V104.272H184.449V107.76ZM197.054 110.16C200.126 110.16 201.582 108.624 201.582 106.832C201.582 102.72 194.942 104.272 194.942 101.888C194.942 101.04 195.646 100.368 197.374 100.368C198.35 100.368 199.454 100.656 200.462 101.248L201.118 99.632C200.142 98.992 198.734 98.64 197.39 98.64C194.318 98.64 192.878 100.176 192.878 101.984C192.878 106.144 199.534 104.56 199.534 106.976C199.534 107.808 198.798 108.432 197.054 108.432C195.678 108.432 194.254 107.92 193.358 107.2L192.638 108.816C193.566 109.616 195.31 110.16 197.054 110.16ZM212.626 98.8H210.578L207.266 104.256L203.986 98.8H201.762L206.162 106.08V110H208.242V106.048L212.626 98.8ZM217.226 110.16C220.298 110.16 221.754 108.624 221.754 106.832C221.754 102.72 215.114 104.272 215.114 101.888C215.114 101.04 215.818 100.368 217.546 100.368C218.522 100.368 219.626 100.656 220.634 101.248L221.29 99.632C220.314 98.992 218.906 98.64 217.562 98.64C214.49 98.64 213.05 100.176 213.05 101.984C213.05 106.144 219.706 104.56 219.706 106.976C219.706 107.808 218.97 108.432 217.226 108.432C215.85 108.432 214.426 107.92 213.53 107.2L212.81 108.816C213.738 109.616 215.482 110.16 217.226 110.16ZM225.932 110H228.012V100.56H231.724V98.8H222.22V100.56H225.932V110ZM235.365 108.256V105.168H240.773V103.456H235.365V100.544H241.461V98.8H233.285V110H241.685V108.256H235.365ZM256.26 110L256.244 98.8H254.532L250.164 106.224L245.716 98.8H244.004V110H245.988V102.672L249.668 108.72H250.596L254.276 102.576L254.292 110H256.26Z" fill="#15181A"/>
<path d="M106.784 132.816C106.21 133.124 105.636 133.236 105.02 133.236C103.144 133.236 101.842 131.934 101.842 130.1C101.842 128.238 103.144 126.964 105.048 126.964C106.042 126.964 106.868 127.314 107.582 128.07L109.038 126.726C108.086 125.62 106.658 125.032 104.936 125.032C101.814 125.032 99.546 127.146 99.546 130.1C99.546 133.054 101.814 135.168 104.894 135.168C106.294 135.168 107.778 134.734 108.856 133.922V129.946H106.784V132.816ZM118.187 131.262C118.187 128.84 116.479 127.356 114.267 127.356C111.971 127.356 110.249 128.98 110.249 131.234C110.249 133.474 111.943 135.112 114.547 135.112C115.905 135.112 116.955 134.692 117.655 133.894L116.493 132.634C115.975 133.124 115.401 133.362 114.603 133.362C113.455 133.362 112.657 132.788 112.447 131.85H118.145C118.159 131.668 118.187 131.43 118.187 131.262ZM114.281 129.008C115.261 129.008 115.975 129.624 116.129 130.576H112.419C112.573 129.61 113.287 129.008 114.281 129.008ZM124.219 127.356C123.197 127.356 122.315 127.706 121.727 128.35V127.468H119.641V135H121.825V131.276C121.825 129.89 122.581 129.246 123.631 129.246C124.597 129.246 125.157 129.806 125.157 131.024V135H127.341V130.688C127.341 128.392 125.997 127.356 124.219 127.356ZM136.781 131.262C136.781 128.84 135.073 127.356 132.861 127.356C130.565 127.356 128.843 128.98 128.843 131.234C128.843 133.474 130.537 135.112 133.141 135.112C134.499 135.112 135.549 134.692 136.249 133.894L135.087 132.634C134.569 133.124 133.995 133.362 133.197 133.362C132.049 133.362 131.251 132.788 131.041 131.85H136.739C136.753 131.668 136.781 131.43 136.781 131.262ZM132.875 129.008C133.855 129.008 134.569 129.624 134.723 130.576H131.013C131.167 129.61 131.881 129.008 132.875 129.008ZM140.321 128.462V127.468H138.235V135H140.419V131.444C140.419 130.002 141.217 129.344 142.421 129.344C142.589 129.344 142.729 129.358 142.911 129.372V127.356C141.749 127.356 140.853 127.734 140.321 128.462ZM147.206 127.356C146.002 127.356 144.784 127.678 143.958 128.266L144.742 129.792C145.288 129.358 146.114 129.092 146.912 129.092C148.088 129.092 148.648 129.638 148.648 130.576H146.912C144.616 130.576 143.678 131.5 143.678 132.83C143.678 134.132 144.728 135.112 146.492 135.112C147.598 135.112 148.382 134.748 148.788 134.062V135H150.832V130.702C150.832 128.42 149.502 127.356 147.206 127.356ZM147.038 133.642C146.268 133.642 145.806 133.278 145.806 132.732C145.806 132.228 146.128 131.85 147.15 131.85H148.648V132.62C148.396 133.306 147.766 133.642 147.038 133.642ZM157.079 133.096C156.841 133.278 156.519 133.376 156.197 133.376C155.609 133.376 155.259 133.026 155.259 132.382V129.316H157.135V127.636H155.259V125.802H153.075V127.636H151.913V129.316H153.075V132.41C153.075 134.202 154.111 135.112 155.889 135.112C156.561 135.112 157.219 134.958 157.667 134.636L157.079 133.096ZM166.038 131.262C166.038 128.84 164.33 127.356 162.118 127.356C159.822 127.356 158.1 128.98 158.1 131.234C158.1 133.474 159.794 135.112 162.398 135.112C163.756 135.112 164.806 134.692 165.506 133.894L164.344 132.634C163.826 133.124 163.252 133.362 162.454 133.362C161.306 133.362 160.508 132.788 160.298 131.85H165.996C166.01 131.668 166.038 131.43 166.038 131.262ZM162.132 129.008C163.112 129.008 163.826 129.624 163.98 130.576H160.27C160.424 129.61 161.138 129.008 162.132 129.008ZM175.909 127.356C174.901 127.356 174.089 127.678 173.543 128.336V127.468H171.457V137.716H173.641V134.202C174.201 134.818 174.971 135.112 175.909 135.112C178.023 135.112 179.661 133.6 179.661 131.234C179.661 128.868 178.023 127.356 175.909 127.356ZM175.531 133.32C174.439 133.32 173.613 132.536 173.613 131.234C173.613 129.932 174.439 129.148 175.531 129.148C176.623 129.148 177.449 129.932 177.449 131.234C177.449 132.536 176.623 133.32 175.531 133.32ZM184.038 127.356C182.834 127.356 181.616 127.678 180.79 128.266L181.574 129.792C182.12 129.358 182.946 129.092 183.744 129.092C184.92 129.092 185.48 129.638 185.48 130.576H183.744C181.448 130.576 180.51 131.5 180.51 132.83C180.51 134.132 181.56 135.112 183.324 135.112C184.43 135.112 185.214 134.748 185.62 134.062V135H187.664V130.702C187.664 128.42 186.334 127.356 184.038 127.356ZM183.87 133.642C183.1 133.642 182.638 133.278 182.638 132.732C182.638 132.228 182.96 131.85 183.982 131.85H185.48V132.62C185.228 133.306 184.598 133.642 183.87 133.642ZM191.727 128.462V127.468H189.641V135H191.825V131.444C191.825 130.002 192.623 129.344 193.827 129.344C193.995 129.344 194.135 129.358 194.317 129.372V127.356C193.155 127.356 192.259 127.734 191.727 128.462ZM200.145 133.096C199.907 133.278 199.585 133.376 199.263 133.376C198.675 133.376 198.325 133.026 198.325 132.382V129.316H200.201V127.636H198.325V125.802H196.141V127.636H194.979V129.316H196.141V132.41C196.141 134.202 197.177 135.112 198.955 135.112C199.627 135.112 200.285 134.958 200.733 134.636L200.145 133.096ZM208.01 128.462V127.468H205.924V135H208.108V131.444C208.108 130.002 208.906 129.344 210.11 129.344C210.278 129.344 210.418 129.358 210.6 129.372V127.356C209.438 127.356 208.542 127.734 208.01 128.462ZM219.208 131.262C219.208 128.84 217.5 127.356 215.288 127.356C212.992 127.356 211.27 128.98 211.27 131.234C211.27 133.474 212.964 135.112 215.568 135.112C216.926 135.112 217.976 134.692 218.676 133.894L217.514 132.634C216.996 133.124 216.422 133.362 215.624 133.362C214.476 133.362 213.678 132.788 213.468 131.85H219.166C219.18 131.668 219.208 131.43 219.208 131.262ZM215.302 129.008C216.282 129.008 216.996 129.624 217.15 130.576H213.44C213.594 129.61 214.308 129.008 215.302 129.008ZM223.196 135.112C225.45 135.112 226.752 134.118 226.752 132.718C226.752 129.75 222.202 130.996 222.202 129.708C222.202 129.316 222.622 129.008 223.602 129.008C224.288 129.008 225.03 129.148 225.772 129.568L226.5 128.014C225.786 127.594 224.638 127.356 223.602 127.356C221.404 127.356 220.116 128.364 220.116 129.792C220.116 132.802 224.666 131.542 224.666 132.774C224.666 133.194 224.288 133.46 223.28 133.46C222.356 133.46 221.334 133.166 220.662 132.732L219.934 134.3C220.634 134.762 221.922 135.112 223.196 135.112ZM233.504 127.468V131.192C233.504 132.578 232.776 133.222 231.768 133.222C230.802 133.222 230.242 132.662 230.242 131.402V127.468H228.058V131.724C228.058 134.048 229.388 135.112 231.278 135.112C232.202 135.112 233.042 134.762 233.616 134.104V135H235.688V127.468H233.504ZM237.711 135H239.895V124.612H237.711V135ZM246.739 133.096C246.501 133.278 246.179 133.376 245.857 133.376C245.269 133.376 244.919 133.026 244.919 132.382V129.316H246.795V127.636H244.919V125.802H242.735V127.636H241.573V129.316H242.735V132.41C242.735 134.202 243.771 135.112 245.549 135.112C246.221 135.112 246.879 134.958 247.327 134.636L246.739 133.096ZM251.087 135.112C253.341 135.112 254.643 134.118 254.643 132.718C254.643 129.75 250.093 130.996 250.093 129.708C250.093 129.316 250.513 129.008 251.493 129.008C252.179 129.008 252.921 129.148 253.663 129.568L254.391 128.014C253.677 127.594 252.529 127.356 251.493 127.356C249.295 127.356 248.007 128.364 248.007 129.792C248.007 132.802 252.557 131.542 252.557 132.774C252.557 133.194 252.179 133.46 251.171 133.46C250.247 133.46 249.225 133.166 248.553 132.732L247.825 134.3C248.525 134.762 249.813 135.112 251.087 135.112Z" fill="#E23620"/>
<circle cx="275" cy="130" r="9" transform="rotate(-90 275 130)" fill="white"/>
<path d="M273.501 126.951L273.3 127.157C273.237 127.222 273.203 127.309 273.203 127.401C273.203 127.493 273.237 127.58 273.3 127.645L275.578 129.999L273.298 132.356C273.235 132.421 273.2 132.507 273.2 132.599C273.2 132.692 273.235 132.778 273.298 132.843L273.497 133.05C273.627 133.184 273.839 133.184 273.969 133.05L276.693 130.244C276.756 130.179 276.8 130.092 276.8 129.999L276.8 129.998C276.8 129.906 276.756 129.819 276.693 129.755L273.976 126.951C273.913 126.886 273.827 126.85 273.738 126.85C273.649 126.85 273.564 126.886 273.501 126.951Z" fill="#15181A"/>
<defs>
<filter id="filter0_d_93_6032" x="0" y="0" width="60" height="60" filterUnits="userSpaceOnUse" color-interpolation-filters="sRGB">
<feFlood flood-opacity="0" result="BackgroundImageFix"/>
<feColorMatrix in="SourceAlpha" type="matrix" values="0 0 0 0 0 0 0 0 0 0 0 0 0 0 0 0 0 0 127 0" result="hardAlpha"/>
<feOffset dy="4"/>
<feGaussianBlur stdDeviation="10"/>
<feComposite in2="hardAlpha" operator="out"/>
<feColorMatrix type="matrix" values="0 0 0 0 0 0 0 0 0 0 0 0 0 0 0 0 0 0 0.15 0"/>
<feBlend mode="normal" in2="BackgroundImageFix" result="effect1_dropShadow_93_6032"/>
<feBlend mode="normal" in="SourceGraphic" in2="effect1_dropShadow_93_6032" result="shape"/>
</filter>
<linearGradient id="paint0_linear_93_6032" x1="37.0707" y1="18.9966" x2="38.5522" y2="32.532" gradientUnits="userSpaceOnUse">
<stop stop-color="#E23620" stop-opacity="0.2"/>
<stop offset="1" stop-color="#E23620"/>
</linearGradient>
<radialGradient id="paint1_radial_93_6032" cx="0" cy="0" r="1" gradientUnits="userSpaceOnUse" gradientTransform="translate(33.5 14.5) rotate(105.333) scale(32.1442)">
<stop stop-color="white"/>
<stop offset="1" stop-color="white" stop-opacity="0"/>
</radialGradient>
<radialGradient id="paint2_radial_93_6032" cx="0" cy="0" r="1" gradientUnits="userSpaceOnUse" gradientTransform="translate(34.8462 10.0769) rotate(105.333) scale(44.5074)">
<stop stop-color="white"/>
<stop offset="1" stop-color="white" stop-opacity="0.2"/>
</radialGradient>
<radialGradient id="paint3_radial_93_6032" cx="0" cy="0" r="1" gradientUnits="userSpaceOnUse" gradientTransform="translate(35.9231 6.53846) rotate(105.333) scale(54.3979)">
<stop stop-color="white"/>
<stop offset="1" stop-color="white" stop-opacity="0.2"/>
</radialGradient>
</defs>
</svg>
