<svg width="1784" height="97" viewBox="0 0 1784 97" fill="none" xmlns="http://www.w3.org/2000/svg">
<line y1="96" x2="624" y2="96" stroke="url(#paint0_radial_40_1714)" stroke-width="2"/>
<text fill="#15181A" xml:space="preserve" style="white-space: pre" font-family="Montserrat" font-size="36" font-weight="500" letter-spacing="0em"><tspan x="0" y="34.906">OEM Mode</tspan></text>
<text fill="#15181A" xml:space="preserve" style="white-space: pre" font-family="Montserrat" font-size="14" letter-spacing="0em"><tspan x="0" y="65.519">Lorem ipsum dolor sit amet, consectetur adipiscing elit. Maecenas volutpat urna leo.</tspan></text>
<g filter="url(#filter0_b_40_1714)">
<rect x="1752" y="26" width="32" height="29" rx="8" fill="url(#paint1_radial_40_1714)"/>
<rect x="1752.5" y="26.5" width="31" height="28" rx="7.5" stroke="#F2F2F5"/>
</g>
<g clip-path="url(#clip0_40_1714)">
<path d="M1764.11 40.9999C1764.11 40.1407 1763.41 39.4443 1762.56 39.4443C1761.7 39.4443 1761 40.1407 1761 40.9999C1761 41.859 1761.7 42.5554 1762.56 42.5554C1763.41 42.5554 1764.11 41.859 1764.11 40.9999Z" fill="#444648"/>
<path d="M1769.56 40.9999C1769.56 40.1407 1768.86 39.4443 1768 39.4443C1767.14 39.4443 1766.44 40.1407 1766.44 40.9999C1766.44 41.859 1767.14 42.5554 1768 42.5554C1768.86 42.5554 1769.56 41.859 1769.56 40.9999Z" fill="#444648"/>
<path d="M1775 40.9999C1775 40.1407 1774.3 39.4443 1773.44 39.4443C1772.59 39.4443 1771.89 40.1407 1771.89 40.9999C1771.89 41.859 1772.59 42.5554 1773.44 42.5554C1774.3 42.5554 1775 41.859 1775 40.9999Z" fill="#444648"/>
</g>
<g filter="url(#filter1_b_40_1714)">
<rect x="1660" y="26" width="88" height="29" rx="8" fill="url(#paint2_radial_40_1714)"/>
<rect x="1660.5" y="26.5" width="87" height="28" rx="7.5" stroke="#F2F2F5"/>
</g>
<g filter="url(#filter2_d_40_1714)">
<text fill="#15181A" xml:space="preserve" style="white-space: pre" font-family="Montserrat" font-size="12" font-weight="500" letter-spacing="0em"><tspan x="1678" y="44.802">Widgets</tspan></text>
</g>
<g clip-path="url(#clip1_40_1714)">
<rect x="1433" y="1.00024" width="180" height="10" transform="rotate(90 1433 1.00024)" fill="#ECECEC"/>
<rect x="1535" y="1" width="180" height="70" transform="rotate(90 1535 1)" fill="#ECECEC"/>
<rect x="1419" y="-49" width="180" height="10" transform="rotate(90 1419 -49)" fill="#ECECEC"/>
<rect x="1461" y="-48.9998" width="180" height="10" transform="rotate(90 1461 -48.9998)" fill="#ECECEC"/>
<rect x="1405" y="-99.0002" width="180" height="10" transform="rotate(90 1405 -99.0002)" fill="#ECECEC"/>
<rect x="1461" y="-99" width="180" height="24" transform="rotate(90 1461 -99)" fill="#ECECEC"/>
</g>
<defs>
<filter id="filter0_b_40_1714" x="1737" y="11" width="62" height="59" filterUnits="userSpaceOnUse" color-interpolation-filters="sRGB">
<feFlood flood-opacity="0" result="BackgroundImageFix"/>
<feGaussianBlur in="BackgroundImage" stdDeviation="7.5"/>
<feComposite in2="SourceAlpha" operator="in" result="effect1_backgroundBlur_40_1714"/>
<feBlend mode="normal" in="SourceGraphic" in2="effect1_backgroundBlur_40_1714" result="shape"/>
</filter>
<filter id="filter1_b_40_1714" x="1645" y="11" width="118" height="59" filterUnits="userSpaceOnUse" color-interpolation-filters="sRGB">
<feFlood flood-opacity="0" result="BackgroundImageFix"/>
<feGaussianBlur in="BackgroundImage" stdDeviation="7.5"/>
<feComposite in2="SourceAlpha" operator="in" result="effect1_backgroundBlur_40_1714"/>
<feBlend mode="normal" in="SourceGraphic" in2="effect1_backgroundBlur_40_1714" result="shape"/>
</filter>
<filter id="filter2_d_40_1714" x="1668.38" y="30.916" width="70.7607" height="31.4839" filterUnits="userSpaceOnUse" color-interpolation-filters="sRGB">
<feFlood flood-opacity="0" result="BackgroundImageFix"/>
<feColorMatrix in="SourceAlpha" type="matrix" values="0 0 0 0 0 0 0 0 0 0 0 0 0 0 0 0 0 0 127 0" result="hardAlpha"/>
<feOffset dy="5"/>
<feGaussianBlur stdDeviation="5"/>
<feComposite in2="hardAlpha" operator="out"/>
<feColorMatrix type="matrix" values="0 0 0 0 0.32549 0 0 0 0 0.352941 0 0 0 0 0.392157 0 0 0 0.25 0"/>
<feBlend mode="normal" in2="BackgroundImageFix" result="effect1_dropShadow_40_1714"/>
<feBlend mode="normal" in="SourceGraphic" in2="effect1_dropShadow_40_1714" result="shape"/>
</filter>
<radialGradient id="paint0_radial_40_1714" cx="0" cy="0" r="1" gradientUnits="userSpaceOnUse" gradientTransform="translate(44.121 94.5006) rotate(0.334882) scale(598.798 9417.6)">
<stop stop-color="#E4E4E4"/>
<stop offset="1" stop-color="#E4E4E4" stop-opacity="0"/>
</radialGradient>
<radialGradient id="paint1_radial_40_1714" cx="0" cy="0" r="1" gradientUnits="userSpaceOnUse" gradientTransform="translate(1768 40.5) rotate(90) scale(47.1116 51.9852)">
<stop stop-color="white"/>
<stop offset="1" stop-color="white" stop-opacity="0.5"/>
</radialGradient>
<radialGradient id="paint2_radial_40_1714" cx="0" cy="0" r="1" gradientUnits="userSpaceOnUse" gradientTransform="translate(1704 40.5) rotate(90) scale(47.1116 142.959)">
<stop stop-color="white"/>
<stop offset="1" stop-color="white" stop-opacity="0.5"/>
</radialGradient>
<clipPath id="clip0_40_1714">
<rect width="14" height="14" fill="white" transform="translate(1761 48) rotate(-90)"/>
</clipPath>
<clipPath id="clip1_40_1714">
<rect width="238" height="38" fill="white" transform="translate(1318 22)"/>
</clipPath>
</defs>
</svg>
