<svg width="1784" height="97" viewBox="0 0 1784 97" fill="none" xmlns="http://www.w3.org/2000/svg">
<path d="M15.156 35.288C22.824 35.288 28.512 29.816 28.512 22.4C28.512 14.984 22.824 9.512 15.156 9.512C7.416 9.512 1.728 15.02 1.728 22.4C1.728 29.78 7.416 35.288 15.156 35.288ZM15.156 32.084C9.504 32.084 5.328 27.98 5.328 22.4C5.328 16.82 9.504 12.716 15.156 12.716C20.736 12.716 24.912 16.82 24.912 22.4C24.912 27.98 20.736 32.084 15.156 32.084ZM37.6144 31.868V23.732H50.2504V20.672H37.6144V12.932H51.7984V9.8H34.0144V35H52.3024V31.868H37.6144ZM84.9516 35L84.9156 9.8H81.9636L71.5956 27.512L61.0836 9.8H58.1316V35H61.5876V16.748L70.6956 31.94H72.3516L81.4596 16.64L81.4956 35H84.9516ZM129.002 35L128.966 9.8H126.014L115.646 27.512L105.134 9.8H102.182V35H105.638V16.748L114.746 31.94H116.402L125.51 16.64L125.546 35H129.002ZM144.233 35.216C149.957 35.216 154.133 31.148 154.133 25.46C154.133 19.772 149.957 15.74 144.233 15.74C138.509 15.74 134.297 19.772 134.297 25.46C134.297 31.148 138.509 35.216 144.233 35.216ZM144.233 32.192C140.561 32.192 137.789 29.528 137.789 25.46C137.789 21.392 140.561 18.764 144.233 18.764C147.905 18.764 150.641 21.392 150.641 25.46C150.641 29.528 147.905 32.192 144.233 32.192ZM173.457 8.288V18.8C171.873 16.748 169.497 15.74 166.797 15.74C161.217 15.74 157.149 19.628 157.149 25.46C157.149 31.292 161.217 35.216 166.797 35.216C169.605 35.216 172.053 34.136 173.601 31.976V35H176.913V8.288H173.457ZM167.085 32.192C163.413 32.192 160.641 29.528 160.641 25.46C160.641 21.392 163.413 18.764 167.085 18.764C170.721 18.764 173.493 21.392 173.493 25.46C173.493 29.528 170.721 32.192 167.085 32.192ZM200.696 25.568C200.696 19.7 196.772 15.74 191.264 15.74C185.756 15.74 181.688 19.808 181.688 25.46C181.688 31.148 185.792 35.216 191.948 35.216C195.116 35.216 197.744 34.136 199.472 32.12L197.564 29.888C196.16 31.436 194.288 32.192 192.056 32.192C188.276 32.192 185.576 29.96 185.144 26.612H200.624C200.66 26.288 200.696 25.856 200.696 25.568ZM191.264 18.656C194.612 18.656 197.024 20.924 197.384 24.128H185.144C185.504 20.888 187.952 18.656 191.264 18.656Z" fill="#15181A"/>
<path d="M7.77 60.946C8.666 60.582 9.268 59.84 9.268 58.72C9.268 57.124 8.008 56.2 5.824 56.2H1.596V66H6.104C8.554 66 9.786 65.048 9.786 63.382C9.786 62.052 9.03 61.226 7.77 60.946ZM5.754 57.054C7.322 57.054 8.232 57.656 8.232 58.832C8.232 60.008 7.322 60.61 5.754 60.61H2.632V57.054H5.754ZM6.09 65.146H2.632V61.464H6.09C7.812 61.464 8.75 62.024 8.75 63.298C8.75 64.586 7.812 65.146 6.09 65.146ZM12.8927 60.078V58.636H11.9407V66H12.9347V62.248C12.9347 60.512 13.8727 59.532 15.4127 59.532C15.4827 59.532 15.5667 59.546 15.6507 59.546V58.58C14.2927 58.58 13.3547 59.098 12.8927 60.078ZM17.9545 57.026C18.3745 57.026 18.6825 56.704 18.6825 56.298C18.6825 55.92 18.3605 55.612 17.9545 55.612C17.5485 55.612 17.2265 55.934 17.2265 56.312C17.2265 56.704 17.5485 57.026 17.9545 57.026ZM17.4505 66H18.4445V58.636H17.4505V66ZM24.9622 58.58C23.6882 58.58 22.6942 59.098 22.1622 59.994V58.636H21.2102V66H22.2042V62.136C22.2042 60.456 23.1982 59.476 24.7802 59.476C26.1802 59.476 26.9922 60.274 26.9922 61.828V66H27.9862V61.73C27.9862 59.616 26.7542 58.58 24.9622 58.58ZM36.5782 58.636V60.05C35.9622 59.084 34.8982 58.58 33.6662 58.58C31.5662 58.58 29.9702 60.022 29.9702 62.136C29.9702 64.25 31.5662 65.72 33.6662 65.72C34.8702 65.72 35.9202 65.23 36.5362 64.292V65.23C36.5362 67.05 35.6822 67.904 33.8202 67.904C32.6862 67.904 31.6222 67.526 30.9222 66.896L30.4182 67.652C31.1882 68.38 32.5042 68.786 33.8482 68.786C36.2842 68.786 37.5302 67.638 37.5302 65.104V58.636H36.5782ZM33.7642 64.838C32.1402 64.838 30.9782 63.732 30.9782 62.136C30.9782 60.54 32.1402 59.448 33.7642 59.448C35.3882 59.448 36.5642 60.54 36.5642 62.136C36.5642 63.732 35.3882 64.838 33.7642 64.838ZM47.5019 64.838C47.2219 65.09 46.8159 65.216 46.4099 65.216C45.5839 65.216 45.1359 64.74 45.1359 63.872V59.476H47.3759V58.636H45.1359V57.026H44.1419V58.636H42.8259V59.476H44.1419V63.928C44.1419 65.286 44.9119 66.07 46.2979 66.07C46.8719 66.07 47.4599 65.902 47.8519 65.552L47.5019 64.838ZM53.4134 58.58C52.1674 58.58 51.2014 59.07 50.6554 59.924V55.612H49.6614V66H50.6554V62.136C50.6554 60.456 51.6494 59.476 53.2314 59.476C54.6314 59.476 55.4434 60.274 55.4434 61.828V66H56.4374V61.73C56.4374 59.616 55.2054 58.58 53.4134 58.58ZM65.5893 62.318C65.5893 60.106 64.0913 58.58 62.0193 58.58C59.9473 58.58 58.4213 60.134 58.4213 62.318C58.4213 64.502 59.9893 66.07 62.2853 66.07C63.4473 66.07 64.4693 65.65 65.1273 64.866L64.5673 64.222C64.0073 64.866 63.2093 65.188 62.3133 65.188C60.7033 65.188 59.5273 64.166 59.4153 62.626H65.5753C65.5753 62.514 65.5893 62.402 65.5893 62.318ZM62.0193 59.434C63.4613 59.434 64.5113 60.442 64.6373 61.884H59.4153C59.5413 60.442 60.5913 59.434 62.0193 59.434ZM75.0706 58.58C73.8946 58.58 72.8866 59.084 72.2706 60.036V55.612H71.2766V66H72.2286V64.544C72.8306 65.538 73.8526 66.07 75.0706 66.07C77.1706 66.07 78.7386 64.544 78.7386 62.318C78.7386 60.092 77.1706 58.58 75.0706 58.58ZM75.0006 65.188C73.4326 65.188 72.2566 64.04 72.2566 62.318C72.2566 60.596 73.4326 59.448 75.0006 59.448C76.5546 59.448 77.7446 60.596 77.7446 62.318C77.7446 64.04 76.5546 65.188 75.0006 65.188ZM87.1909 62.318C87.1909 60.106 85.6929 58.58 83.6209 58.58C81.5489 58.58 80.0229 60.134 80.0229 62.318C80.0229 64.502 81.5909 66.07 83.8869 66.07C85.0489 66.07 86.0709 65.65 86.7289 64.866L86.1689 64.222C85.6089 64.866 84.8109 65.188 83.9149 65.188C82.3049 65.188 81.1289 64.166 81.0169 62.626H87.1769C87.1769 62.514 87.1909 62.402 87.1909 62.318ZM83.6209 59.434C85.0629 59.434 86.1129 60.442 86.2389 61.884H81.0169C81.1429 60.442 82.1929 59.434 83.6209 59.434ZM91.1881 66.07C93.1061 66.07 94.2261 65.244 94.2261 63.97C94.2261 61.142 89.4521 62.64 89.4521 60.652C89.4521 59.952 90.0401 59.434 91.3701 59.434C92.1261 59.434 92.8961 59.616 93.5401 60.064L93.9741 59.266C93.3581 58.846 92.3221 58.58 91.3701 58.58C89.4941 58.58 88.4581 59.476 88.4581 60.68C88.4581 63.592 93.2321 62.08 93.2321 63.998C93.2321 64.726 92.6581 65.202 91.2581 65.202C90.2221 65.202 89.2281 64.838 88.6401 64.376L88.1921 65.16C88.7941 65.678 89.9701 66.07 91.1881 66.07ZM99.5917 64.838C99.3117 65.09 98.9057 65.216 98.4997 65.216C97.6737 65.216 97.2257 64.74 97.2257 63.872V59.476H99.4657V58.636H97.2257V57.026H96.2317V58.636H94.9157V59.476H96.2317V63.928C96.2317 65.286 97.0017 66.07 98.3877 66.07C98.9617 66.07 99.5497 65.902 99.9417 65.552L99.5917 64.838ZM109.209 58.58C107.991 58.58 106.969 59.112 106.367 60.092V58.636H105.415V68.716H106.409V64.614C107.025 65.566 108.033 66.07 109.209 66.07C111.309 66.07 112.877 64.558 112.877 62.318C112.877 60.092 111.309 58.58 109.209 58.58ZM109.139 65.188C107.571 65.188 106.395 64.04 106.395 62.318C106.395 60.61 107.571 59.448 109.139 59.448C110.693 59.448 111.883 60.61 111.883 62.318C111.883 64.04 110.693 65.188 109.139 65.188ZM115.856 60.078V58.636H114.904V66H115.898V62.248C115.898 60.512 116.836 59.532 118.376 59.532C118.446 59.532 118.53 59.546 118.614 59.546V58.58C117.256 58.58 116.318 59.098 115.856 60.078ZM123.355 66.07C125.511 66.07 127.093 64.502 127.093 62.318C127.093 60.134 125.511 58.58 123.355 58.58C121.199 58.58 119.603 60.134 119.603 62.318C119.603 64.502 121.199 66.07 123.355 66.07ZM123.355 65.188C121.787 65.188 120.611 64.04 120.611 62.318C120.611 60.596 121.787 59.448 123.355 59.448C124.923 59.448 126.085 60.596 126.085 62.318C126.085 64.04 124.923 65.188 123.355 65.188ZM134.848 55.612V60.036C134.232 59.084 133.224 58.58 132.048 58.58C129.948 58.58 128.38 60.092 128.38 62.318C128.38 64.544 129.948 66.07 132.048 66.07C133.266 66.07 134.288 65.538 134.89 64.544V66H135.842V55.612H134.848ZM132.132 65.188C130.564 65.188 129.388 64.04 129.388 62.318C129.388 60.596 130.564 59.448 132.132 59.448C133.686 59.448 134.862 60.596 134.862 62.318C134.862 64.04 133.686 65.188 132.132 65.188ZM144.253 58.636V62.5C144.253 64.18 143.287 65.174 141.747 65.174C140.347 65.174 139.535 64.376 139.535 62.808V58.636H138.541V62.906C138.541 65.02 139.773 66.07 141.649 66.07C142.825 66.07 143.777 65.552 144.295 64.656V66H145.247V58.636H144.253ZM151.083 66.07C152.329 66.07 153.379 65.566 153.967 64.614L153.225 64.11C152.721 64.852 151.937 65.188 151.083 65.188C149.473 65.188 148.297 64.054 148.297 62.318C148.297 60.596 149.473 59.448 151.083 59.448C151.937 59.448 152.721 59.798 153.225 60.54L153.967 60.036C153.379 59.07 152.329 58.58 151.083 58.58C148.885 58.58 147.289 60.12 147.289 62.318C147.289 64.516 148.885 66.07 151.083 66.07ZM159.529 64.838C159.249 65.09 158.843 65.216 158.437 65.216C157.611 65.216 157.163 64.74 157.163 63.872V59.476H159.403V58.636H157.163V57.026H156.169V58.636H154.853V59.476H156.169V63.928C156.169 65.286 156.939 66.07 158.325 66.07C158.899 66.07 159.487 65.902 159.879 65.552L159.529 64.838ZM163.663 66.07C165.581 66.07 166.701 65.244 166.701 63.97C166.701 61.142 161.927 62.64 161.927 60.652C161.927 59.952 162.515 59.434 163.845 59.434C164.601 59.434 165.371 59.616 166.015 60.064L166.449 59.266C165.833 58.846 164.797 58.58 163.845 58.58C161.969 58.58 160.933 59.476 160.933 60.68C160.933 63.592 165.707 62.08 165.707 63.998C165.707 64.726 165.133 65.202 163.733 65.202C162.697 65.202 161.703 64.838 161.115 64.376L160.667 65.16C161.269 65.678 162.445 66.07 163.663 66.07ZM175.73 64.838C175.45 65.09 175.044 65.216 174.638 65.216C173.812 65.216 173.364 64.74 173.364 63.872V59.476H175.604V58.636H173.364V57.026H172.37V58.636H171.054V59.476H172.37V63.928C172.37 65.286 173.14 66.07 174.526 66.07C175.1 66.07 175.688 65.902 176.08 65.552L175.73 64.838ZM180.64 66.07C182.796 66.07 184.378 64.502 184.378 62.318C184.378 60.134 182.796 58.58 180.64 58.58C178.484 58.58 176.888 60.134 176.888 62.318C176.888 64.502 178.484 66.07 180.64 66.07ZM180.64 65.188C179.072 65.188 177.896 64.04 177.896 62.318C177.896 60.596 179.072 59.448 180.64 59.448C182.208 59.448 183.37 60.596 183.37 62.318C183.37 64.04 182.208 65.188 180.64 65.188ZM190.072 66H191.066V55.612H190.072V66ZM194.335 57.026C194.755 57.026 195.063 56.704 195.063 56.298C195.063 55.92 194.741 55.612 194.335 55.612C193.929 55.612 193.607 55.934 193.607 56.312C193.607 56.704 193.929 57.026 194.335 57.026ZM193.831 66H194.825V58.636H193.831V66ZM200.027 56.382C200.447 56.382 200.839 56.508 201.119 56.746L201.455 56.004C201.091 55.696 200.531 55.542 199.985 55.542C198.543 55.542 197.759 56.41 197.759 57.726V58.636H196.443V59.476H197.759V66H198.753V59.476H200.993V58.636H198.725V57.768C198.725 56.858 199.173 56.382 200.027 56.382ZM208.638 62.318C208.638 60.106 207.14 58.58 205.068 58.58C202.996 58.58 201.47 60.134 201.47 62.318C201.47 64.502 203.038 66.07 205.334 66.07C206.496 66.07 207.518 65.65 208.176 64.866L207.616 64.222C207.056 64.866 206.258 65.188 205.362 65.188C203.752 65.188 202.576 64.166 202.464 62.626H208.624C208.624 62.514 208.638 62.402 208.638 62.318ZM205.068 59.434C206.51 59.434 207.56 60.442 207.686 61.884H202.464C202.59 60.442 203.64 59.434 205.068 59.434ZM224.223 58.636L221.885 64.894L219.533 58.636H218.679L216.313 64.894L214.003 58.636H213.051L215.823 66H216.761L219.085 59.966L221.409 66H222.347L225.133 58.636H224.223ZM227.134 57.026C227.554 57.026 227.862 56.704 227.862 56.298C227.862 55.92 227.54 55.612 227.134 55.612C226.728 55.612 226.406 55.934 226.406 56.312C226.406 56.704 226.728 57.026 227.134 57.026ZM226.63 66H227.624V58.636H226.63V66ZM233.918 64.838C233.638 65.09 233.232 65.216 232.826 65.216C232 65.216 231.552 64.74 231.552 63.872V59.476H233.792V58.636H231.552V57.026H230.558V58.636H229.242V59.476H230.558V63.928C230.558 65.286 231.328 66.07 232.714 66.07C233.288 66.07 233.876 65.902 234.268 65.552L233.918 64.838ZM239.829 58.58C238.583 58.58 237.617 59.07 237.071 59.924V55.612H236.077V66H237.071V62.136C237.071 60.456 238.065 59.476 239.647 59.476C241.047 59.476 241.859 60.274 241.859 61.828V66H242.853V61.73C242.853 59.616 241.621 58.58 239.829 58.58ZM252.744 64.838C252.464 65.09 252.058 65.216 251.652 65.216C250.826 65.216 250.378 64.74 250.378 63.872V59.476H252.618V58.636H250.378V57.026H249.384V58.636H248.068V59.476H249.384V63.928C249.384 65.286 250.154 66.07 251.54 66.07C252.114 66.07 252.702 65.902 253.094 65.552L252.744 64.838ZM258.656 58.58C257.41 58.58 256.444 59.07 255.898 59.924V55.612H254.904V66H255.898V62.136C255.898 60.456 256.892 59.476 258.474 59.476C259.874 59.476 260.686 60.274 260.686 61.828V66H261.68V61.73C261.68 59.616 260.448 58.58 258.656 58.58ZM270.832 62.318C270.832 60.106 269.334 58.58 267.262 58.58C265.19 58.58 263.664 60.134 263.664 62.318C263.664 64.502 265.232 66.07 267.528 66.07C268.69 66.07 269.712 65.65 270.37 64.866L269.81 64.222C269.25 64.866 268.452 65.188 267.556 65.188C265.946 65.188 264.77 64.166 264.658 62.626H270.818C270.818 62.514 270.832 62.402 270.832 62.318ZM267.262 59.434C268.704 59.434 269.754 60.442 269.88 61.884H264.658C264.784 60.442 265.834 59.434 267.262 59.434ZM282.945 62.318C282.945 60.106 281.447 58.58 279.375 58.58C277.303 58.58 275.777 60.134 275.777 62.318C275.777 64.502 277.345 66.07 279.641 66.07C280.803 66.07 281.825 65.65 282.483 64.866L281.923 64.222C281.363 64.866 280.565 65.188 279.669 65.188C278.059 65.188 276.883 64.166 276.771 62.626H282.931C282.931 62.514 282.945 62.402 282.945 62.318ZM279.375 59.434C280.817 59.434 281.867 60.442 281.993 61.884H276.771C276.897 60.442 277.947 59.434 279.375 59.434ZM288.72 58.58C287.446 58.58 286.452 59.098 285.92 59.994V58.636H284.968V66H285.962V62.136C285.962 60.456 286.956 59.476 288.538 59.476C289.938 59.476 290.75 60.274 290.75 61.828V66H291.744V61.73C291.744 59.616 290.512 58.58 288.72 58.58ZM298.195 58.58C296.949 58.58 295.983 59.07 295.437 59.924V55.612H294.443V66H295.437V62.136C295.437 60.456 296.431 59.476 298.013 59.476C299.413 59.476 300.225 60.274 300.225 61.828V66H301.219V61.73C301.219 59.616 299.987 58.58 298.195 58.58ZM306.493 58.58C305.331 58.58 304.239 58.944 303.497 59.574L303.945 60.316C304.547 59.784 305.443 59.448 306.395 59.448C307.767 59.448 308.481 60.134 308.481 61.394V61.842H306.143C304.029 61.842 303.301 62.794 303.301 63.928C303.301 65.202 304.323 66.07 305.989 66.07C307.207 66.07 308.075 65.608 308.523 64.852V66H309.475V61.436C309.475 59.532 308.397 58.58 306.493 58.58ZM306.143 65.286C304.967 65.286 304.281 64.754 304.281 63.9C304.281 63.144 304.743 62.584 306.171 62.584H308.481V63.788C308.089 64.754 307.263 65.286 306.143 65.286ZM315.927 58.58C314.653 58.58 313.659 59.098 313.127 59.994V58.636H312.175V66H313.169V62.136C313.169 60.456 314.163 59.476 315.745 59.476C317.145 59.476 317.957 60.274 317.957 61.828V66H318.951V61.73C318.951 59.616 317.719 58.58 315.927 58.58ZM324.729 66.07C325.975 66.07 327.025 65.566 327.613 64.614L326.871 64.11C326.367 64.852 325.583 65.188 324.729 65.188C323.119 65.188 321.943 64.054 321.943 62.318C321.943 60.596 323.119 59.448 324.729 59.448C325.583 59.448 326.367 59.798 326.871 60.54L327.613 60.036C327.025 59.07 325.975 58.58 324.729 58.58C322.531 58.58 320.935 60.12 320.935 62.318C320.935 64.516 322.531 66.07 324.729 66.07ZM335.869 62.318C335.869 60.106 334.371 58.58 332.299 58.58C330.227 58.58 328.701 60.134 328.701 62.318C328.701 64.502 330.269 66.07 332.565 66.07C333.727 66.07 334.749 65.65 335.407 64.866L334.847 64.222C334.287 64.866 333.489 65.188 332.593 65.188C330.983 65.188 329.807 64.166 329.695 62.626H335.855C335.855 62.514 335.869 62.402 335.869 62.318ZM332.299 59.434C333.741 59.434 334.791 60.442 334.917 61.884H329.695C329.821 60.442 330.871 59.434 332.299 59.434ZM343.618 55.612V60.036C343.002 59.084 341.994 58.58 340.818 58.58C338.718 58.58 337.15 60.092 337.15 62.318C337.15 64.544 338.718 66.07 340.818 66.07C342.036 66.07 343.058 65.538 343.66 64.544V66H344.612V55.612H343.618ZM340.902 65.188C339.334 65.188 338.158 64.04 338.158 62.318C338.158 60.596 339.334 59.448 340.902 59.448C342.456 59.448 343.632 60.596 343.632 62.318C343.632 64.04 342.456 65.188 340.902 65.188ZM354.096 66.07C355.342 66.07 356.392 65.566 356.98 64.614L356.238 64.11C355.734 64.852 354.95 65.188 354.096 65.188C352.486 65.188 351.31 64.054 351.31 62.318C351.31 60.596 352.486 59.448 354.096 59.448C354.95 59.448 355.734 59.798 356.238 60.54L356.98 60.036C356.392 59.07 355.342 58.58 354.096 58.58C351.898 58.58 350.302 60.12 350.302 62.318C350.302 64.516 351.898 66.07 354.096 66.07ZM361.82 66.07C363.976 66.07 365.558 64.502 365.558 62.318C365.558 60.134 363.976 58.58 361.82 58.58C359.664 58.58 358.068 60.134 358.068 62.318C358.068 64.502 359.664 66.07 361.82 66.07ZM361.82 65.188C360.252 65.188 359.076 64.04 359.076 62.318C359.076 60.596 360.252 59.448 361.82 59.448C363.388 59.448 364.55 60.596 364.55 62.318C364.55 64.04 363.388 65.188 361.82 65.188ZM367.587 66H368.581V55.612H367.587V66ZM371.347 66H372.341V55.612H371.347V66ZM377.683 58.58C376.521 58.58 375.429 58.944 374.687 59.574L375.135 60.316C375.737 59.784 376.633 59.448 377.585 59.448C378.957 59.448 379.671 60.134 379.671 61.394V61.842H377.333C375.219 61.842 374.491 62.794 374.491 63.928C374.491 65.202 375.513 66.07 377.179 66.07C378.397 66.07 379.265 65.608 379.713 64.852V66H380.665V61.436C380.665 59.532 379.587 58.58 377.683 58.58ZM377.333 65.286C376.157 65.286 375.471 64.754 375.471 63.9C375.471 63.144 375.933 62.584 377.361 62.584H379.671V63.788C379.279 64.754 378.453 65.286 377.333 65.286ZM387.159 58.58C385.983 58.58 384.975 59.084 384.359 60.036V55.612H383.365V66H384.317V64.544C384.919 65.538 385.941 66.07 387.159 66.07C389.259 66.07 390.827 64.544 390.827 62.318C390.827 60.092 389.259 58.58 387.159 58.58ZM387.089 65.188C385.521 65.188 384.345 64.04 384.345 62.318C384.345 60.596 385.521 59.448 387.089 59.448C388.643 59.448 389.833 60.596 389.833 62.318C389.833 64.04 388.643 65.188 387.089 65.188ZM395.863 66.07C398.019 66.07 399.601 64.502 399.601 62.318C399.601 60.134 398.019 58.58 395.863 58.58C393.707 58.58 392.111 60.134 392.111 62.318C392.111 64.502 393.707 66.07 395.863 66.07ZM395.863 65.188C394.295 65.188 393.119 64.04 393.119 62.318C393.119 60.596 394.295 59.448 395.863 59.448C397.431 59.448 398.593 60.596 398.593 62.318C398.593 64.04 397.431 65.188 395.863 65.188ZM402.582 60.078V58.636H401.63V66H402.624V62.248C402.624 60.512 403.562 59.532 405.102 59.532C405.172 59.532 405.256 59.546 405.34 59.546V58.58C403.982 58.58 403.044 59.098 402.582 60.078ZM409.702 58.58C408.54 58.58 407.448 58.944 406.706 59.574L407.154 60.316C407.756 59.784 408.652 59.448 409.604 59.448C410.976 59.448 411.69 60.134 411.69 61.394V61.842H409.352C407.238 61.842 406.51 62.794 406.51 63.928C406.51 65.202 407.532 66.07 409.198 66.07C410.416 66.07 411.284 65.608 411.732 64.852V66H412.684V61.436C412.684 59.532 411.606 58.58 409.702 58.58ZM409.352 65.286C408.176 65.286 407.49 64.754 407.49 63.9C407.49 63.144 407.952 62.584 409.38 62.584H411.69V63.788C411.298 64.754 410.472 65.286 409.352 65.286ZM418.912 64.838C418.632 65.09 418.226 65.216 417.82 65.216C416.994 65.216 416.546 64.74 416.546 63.872V59.476H418.786V58.636H416.546V57.026H415.552V58.636H414.236V59.476H415.552V63.928C415.552 65.286 416.322 66.07 417.708 66.07C418.282 66.07 418.87 65.902 419.262 65.552L418.912 64.838ZM421.576 57.026C421.996 57.026 422.304 56.704 422.304 56.298C422.304 55.92 421.982 55.612 421.576 55.612C421.17 55.612 420.848 55.934 420.848 56.312C420.848 56.704 421.17 57.026 421.576 57.026ZM421.072 66H422.066V58.636H421.072V66ZM427.841 66.07C429.997 66.07 431.579 64.502 431.579 62.318C431.579 60.134 429.997 58.58 427.841 58.58C425.685 58.58 424.089 60.134 424.089 62.318C424.089 64.502 425.685 66.07 427.841 66.07ZM427.841 65.188C426.273 65.188 425.097 64.04 425.097 62.318C425.097 60.596 426.273 59.448 427.841 59.448C429.409 59.448 430.571 60.596 430.571 62.318C430.571 64.04 429.409 65.188 427.841 65.188ZM437.361 58.58C436.087 58.58 435.093 59.098 434.561 59.994V58.636H433.609V66H434.603V62.136C434.603 60.456 435.597 59.476 437.179 59.476C438.579 59.476 439.391 60.274 439.391 61.828V66H440.385V61.73C440.385 59.616 439.153 58.58 437.361 58.58ZM448.721 66.07C450.639 66.07 451.759 65.244 451.759 63.97C451.759 61.142 446.985 62.64 446.985 60.652C446.985 59.952 447.573 59.434 448.903 59.434C449.659 59.434 450.429 59.616 451.073 60.064L451.507 59.266C450.891 58.846 449.855 58.58 448.903 58.58C447.027 58.58 445.991 59.476 445.991 60.68C445.991 63.592 450.765 62.08 450.765 63.998C450.765 64.726 450.191 65.202 448.791 65.202C447.755 65.202 446.761 64.838 446.173 64.376L445.725 65.16C446.327 65.678 447.503 66.07 448.721 66.07ZM458.668 58.636L455.896 64.894L453.124 58.636H452.088L455.378 65.986L455.056 66.7C454.636 67.624 454.188 67.932 453.53 67.932C452.998 67.932 452.55 67.736 452.186 67.372L451.724 68.114C452.172 68.562 452.83 68.786 453.516 68.786C454.566 68.786 455.35 68.324 455.966 66.882L459.648 58.636H458.668ZM462.94 66.07C464.858 66.07 465.978 65.244 465.978 63.97C465.978 61.142 461.204 62.64 461.204 60.652C461.204 59.952 461.792 59.434 463.122 59.434C463.878 59.434 464.648 59.616 465.292 60.064L465.726 59.266C465.11 58.846 464.074 58.58 463.122 58.58C461.246 58.58 460.21 59.476 460.21 60.68C460.21 63.592 464.984 62.08 464.984 63.998C464.984 64.726 464.41 65.202 463.01 65.202C461.974 65.202 460.98 64.838 460.392 64.376L459.944 65.16C460.546 65.678 461.722 66.07 462.94 66.07ZM471.344 64.838C471.064 65.09 470.658 65.216 470.252 65.216C469.426 65.216 468.978 64.74 468.978 63.872V59.476H471.218V58.636H468.978V57.026H467.984V58.636H466.668V59.476H467.984V63.928C467.984 65.286 468.754 66.07 470.14 66.07C470.714 66.07 471.302 65.902 471.694 65.552L471.344 64.838ZM479.669 62.318C479.669 60.106 478.171 58.58 476.099 58.58C474.027 58.58 472.501 60.134 472.501 62.318C472.501 64.502 474.069 66.07 476.365 66.07C477.527 66.07 478.549 65.65 479.207 64.866L478.647 64.222C478.087 64.866 477.289 65.188 476.393 65.188C474.783 65.188 473.607 64.166 473.495 62.626H479.655C479.655 62.514 479.669 62.402 479.669 62.318ZM476.099 59.434C477.541 59.434 478.591 60.442 478.717 61.884H473.495C473.621 60.442 474.671 59.434 476.099 59.434ZM490.877 58.58C489.547 58.58 488.497 59.182 487.965 60.134C487.517 59.098 486.565 58.58 485.347 58.58C484.115 58.58 483.163 59.098 482.645 59.98V58.636H481.693V66H482.687V62.136C482.687 60.456 483.653 59.476 485.151 59.476C486.495 59.476 487.279 60.274 487.279 61.828V66H488.273V62.136C488.273 60.456 489.225 59.476 490.737 59.476C492.067 59.476 492.851 60.274 492.851 61.828V66H493.845V61.73C493.845 59.616 492.669 58.58 490.877 58.58ZM502.78 58.58C501.618 58.58 500.526 58.944 499.784 59.574L500.232 60.316C500.834 59.784 501.73 59.448 502.682 59.448C504.054 59.448 504.768 60.134 504.768 61.394V61.842H502.43C500.316 61.842 499.588 62.794 499.588 63.928C499.588 65.202 500.61 66.07 502.276 66.07C503.494 66.07 504.362 65.608 504.81 64.852V66H505.762V61.436C505.762 59.532 504.684 58.58 502.78 58.58ZM502.43 65.286C501.254 65.286 500.568 64.754 500.568 63.9C500.568 63.144 501.03 62.584 502.458 62.584H504.768V63.788C504.376 64.754 503.55 65.286 502.43 65.286ZM512.214 58.58C510.94 58.58 509.946 59.098 509.414 59.994V58.636H508.462V66H509.456V62.136C509.456 60.456 510.45 59.476 512.032 59.476C513.432 59.476 514.244 60.274 514.244 61.828V66H515.238V61.73C515.238 59.616 514.006 58.58 512.214 58.58ZM523.69 55.612V60.036C523.074 59.084 522.066 58.58 520.89 58.58C518.79 58.58 517.222 60.092 517.222 62.318C517.222 64.544 518.79 66.07 520.89 66.07C522.108 66.07 523.13 65.538 523.732 64.544V66H524.684V55.612H523.69ZM520.974 65.188C519.406 65.188 518.23 64.04 518.23 62.318C518.23 60.596 519.406 59.448 520.974 59.448C522.528 59.448 523.704 60.596 523.704 62.318C523.704 64.04 522.528 65.188 520.974 65.188ZM531.62 57.026C532.04 57.026 532.348 56.704 532.348 56.298C532.348 55.92 532.026 55.612 531.62 55.612C531.214 55.612 530.892 55.934 530.892 56.312C530.892 56.704 531.214 57.026 531.62 57.026ZM531.116 66H532.11V58.636H531.116V66ZM540.602 55.612V60.036C539.986 59.084 538.978 58.58 537.802 58.58C535.702 58.58 534.134 60.092 534.134 62.318C534.134 64.544 535.702 66.07 537.802 66.07C539.02 66.07 540.042 65.538 540.644 64.544V66H541.596V55.612H540.602ZM537.886 65.188C536.318 65.188 535.142 64.04 535.142 62.318C535.142 60.596 536.318 59.448 537.886 59.448C539.44 59.448 540.616 60.596 540.616 62.318C540.616 64.04 539.44 65.188 537.886 65.188ZM550.791 62.318C550.791 60.106 549.293 58.58 547.221 58.58C545.149 58.58 543.623 60.134 543.623 62.318C543.623 64.502 545.191 66.07 547.487 66.07C548.649 66.07 549.671 65.65 550.329 64.866L549.769 64.222C549.209 64.866 548.411 65.188 547.515 65.188C545.905 65.188 544.729 64.166 544.617 62.626H550.777C550.777 62.514 550.791 62.402 550.791 62.318ZM547.221 59.434C548.663 59.434 549.713 60.442 549.839 61.884H544.617C544.743 60.442 545.793 59.434 547.221 59.434ZM555.185 58.58C554.023 58.58 552.931 58.944 552.189 59.574L552.637 60.316C553.239 59.784 554.135 59.448 555.087 59.448C556.459 59.448 557.173 60.134 557.173 61.394V61.842H554.835C552.721 61.842 551.993 62.794 551.993 63.928C551.993 65.202 553.015 66.07 554.681 66.07C555.899 66.07 556.767 65.608 557.215 64.852V66H558.167V61.436C558.167 59.532 557.089 58.58 555.185 58.58ZM554.835 65.286C553.659 65.286 552.973 64.754 552.973 63.9C552.973 63.144 553.435 62.584 554.863 62.584H557.173V63.788C556.781 64.754 555.955 65.286 554.835 65.286ZM564.394 64.838C564.114 65.09 563.708 65.216 563.302 65.216C562.476 65.216 562.028 64.74 562.028 63.872V59.476H564.268V58.636H562.028V57.026H561.034V58.636H559.718V59.476H561.034V63.928C561.034 65.286 561.804 66.07 563.19 66.07C563.764 66.07 564.352 65.902 564.744 65.552L564.394 64.838ZM567.058 57.026C567.478 57.026 567.786 56.704 567.786 56.298C567.786 55.92 567.464 55.612 567.058 55.612C566.652 55.612 566.33 55.934 566.33 56.312C566.33 56.704 566.652 57.026 567.058 57.026ZM566.554 66H567.548V58.636H566.554V66ZM573.324 66.07C575.48 66.07 577.062 64.502 577.062 62.318C577.062 60.134 575.48 58.58 573.324 58.58C571.168 58.58 569.572 60.134 569.572 62.318C569.572 64.502 571.168 66.07 573.324 66.07ZM573.324 65.188C571.756 65.188 570.58 64.04 570.58 62.318C570.58 60.596 571.756 59.448 573.324 59.448C574.892 59.448 576.054 60.596 576.054 62.318C576.054 64.04 574.892 65.188 573.324 65.188ZM582.843 58.58C581.569 58.58 580.575 59.098 580.043 59.994V58.636H579.091V66H580.085V62.136C580.085 60.456 581.079 59.476 582.661 59.476C584.061 59.476 584.873 60.274 584.873 61.828V66H585.867V61.73C585.867 59.616 584.635 58.58 582.843 58.58ZM596.024 58.58C594.806 58.58 593.784 59.112 593.182 60.092V58.636H592.23V68.716H593.224V64.614C593.84 65.566 594.848 66.07 596.024 66.07C598.124 66.07 599.692 64.558 599.692 62.318C599.692 60.092 598.124 58.58 596.024 58.58ZM595.954 65.188C594.386 65.188 593.21 64.04 593.21 62.318C593.21 60.61 594.386 59.448 595.954 59.448C597.508 59.448 598.698 60.61 598.698 62.318C598.698 64.04 597.508 65.188 595.954 65.188ZM601.718 66H602.712V55.612H601.718V66ZM608.054 58.58C606.892 58.58 605.8 58.944 605.058 59.574L605.506 60.316C606.108 59.784 607.004 59.448 607.956 59.448C609.328 59.448 610.042 60.134 610.042 61.394V61.842H607.704C605.59 61.842 604.862 62.794 604.862 63.928C604.862 65.202 605.884 66.07 607.55 66.07C608.768 66.07 609.636 65.608 610.084 64.852V66H611.036V61.436C611.036 59.532 609.958 58.58 608.054 58.58ZM607.704 65.286C606.528 65.286 605.842 64.754 605.842 63.9C605.842 63.144 606.304 62.584 607.732 62.584H610.042V63.788C609.65 64.754 608.824 65.286 607.704 65.286ZM617.264 64.838C616.984 65.09 616.578 65.216 616.172 65.216C615.346 65.216 614.898 64.74 614.898 63.872V59.476H617.138V58.636H614.898V57.026H613.904V58.636H612.588V59.476H613.904V63.928C613.904 65.286 614.674 66.07 616.06 66.07C616.634 66.07 617.222 65.902 617.614 65.552L617.264 64.838ZM621.859 56.382C622.279 56.382 622.671 56.508 622.951 56.746L623.287 56.004C622.923 55.696 622.363 55.542 621.817 55.542C620.375 55.542 619.591 56.41 619.591 57.726V58.636H618.275V59.476H619.591V66H620.585V59.476H622.825V58.636H620.557V57.768C620.557 56.858 621.005 56.382 621.859 56.382ZM627.054 66.07C629.21 66.07 630.792 64.502 630.792 62.318C630.792 60.134 629.21 58.58 627.054 58.58C624.898 58.58 623.302 60.134 623.302 62.318C623.302 64.502 624.898 66.07 627.054 66.07ZM627.054 65.188C625.486 65.188 624.31 64.04 624.31 62.318C624.31 60.596 625.486 59.448 627.054 59.448C628.622 59.448 629.784 60.596 629.784 62.318C629.784 64.04 628.622 65.188 627.054 65.188ZM633.774 60.078V58.636H632.822V66H633.816V62.248C633.816 60.512 634.754 59.532 636.294 59.532C636.364 59.532 636.448 59.546 636.532 59.546V58.58C635.174 58.58 634.236 59.098 633.774 60.078ZM647.515 58.58C646.185 58.58 645.135 59.182 644.603 60.134C644.155 59.098 643.203 58.58 641.985 58.58C640.753 58.58 639.801 59.098 639.283 59.98V58.636H638.331V66H639.325V62.136C639.325 60.456 640.291 59.476 641.789 59.476C643.133 59.476 643.917 60.274 643.917 61.828V66H644.911V62.136C644.911 60.456 645.863 59.476 647.375 59.476C648.705 59.476 649.489 60.274 649.489 61.828V66H650.483V61.73C650.483 59.616 649.307 58.58 647.515 58.58Z" fill="#15181A"/>
<g filter="url(#filter0_b_93_6028)">
<rect x="1752" y="26" width="32" height="29" rx="8" fill="url(#paint0_radial_93_6028)"/>
<rect x="1752.5" y="26.5" width="31" height="28" rx="7.5" stroke="#F2F2F5"/>
</g>
<g clip-path="url(#clip0_93_6028)">
<path d="M1764.11 41.0001C1764.11 40.141 1763.41 39.4445 1762.56 39.4445C1761.7 39.4445 1761 40.141 1761 41.0001C1761 41.8592 1761.7 42.5557 1762.56 42.5557C1763.41 42.5557 1764.11 41.8592 1764.11 41.0001Z" fill="#444648"/>
<path d="M1769.56 41.0001C1769.56 40.141 1768.86 39.4445 1768 39.4445C1767.14 39.4445 1766.44 40.141 1766.44 41.0001C1766.44 41.8592 1767.14 42.5557 1768 42.5557C1768.86 42.5557 1769.56 41.8592 1769.56 41.0001Z" fill="#444648"/>
<path d="M1775 41.0001C1775 40.141 1774.3 39.4445 1773.44 39.4445C1772.59 39.4445 1771.89 40.141 1771.89 41.0001C1771.89 41.8592 1772.59 42.5557 1773.44 42.5557C1774.3 42.5557 1775 41.8592 1775 41.0001Z" fill="#444648"/>
</g>
<g filter="url(#filter1_b_93_6028)">
<rect x="1660" y="26" width="88" height="29" rx="8" fill="url(#paint1_radial_93_6028)"/>
<rect x="1660.5" y="26.5" width="87" height="28" rx="7.5" stroke="#F2F2F5"/>
</g>
<g filter="url(#filter2_d_93_6028)">
<path d="M1689.99 36.6L1687.67 43.464L1685.36 36.6H1684.25L1681.89 43.428L1679.62 36.6H1678.38L1681.19 45H1682.48L1684.77 38.292L1687.06 45H1688.32L1691.13 36.6H1689.99ZM1693.02 37.416C1693.47 37.416 1693.8 37.08 1693.8 36.648C1693.8 36.24 1693.46 35.916 1693.02 35.916C1692.57 35.916 1692.24 36.252 1692.24 36.672C1692.24 37.092 1692.57 37.416 1693.02 37.416ZM1692.44 45H1693.59V38.64H1692.44V45ZM1700.64 36.096V39.6C1700.11 38.916 1699.32 38.58 1698.42 38.58C1696.56 38.58 1695.2 39.876 1695.2 41.82C1695.2 43.764 1696.56 45.072 1698.42 45.072C1699.36 45.072 1700.17 44.712 1700.69 43.992V45H1701.79V36.096H1700.64ZM1698.52 44.064C1697.29 44.064 1696.37 43.176 1696.37 41.82C1696.37 40.464 1697.29 39.588 1698.52 39.588C1699.73 39.588 1700.65 40.464 1700.65 41.82C1700.65 43.176 1699.73 44.064 1698.52 44.064ZM1708.96 38.64V39.624C1708.42 38.928 1707.56 38.58 1706.61 38.58C1704.77 38.58 1703.38 39.816 1703.38 41.652C1703.38 43.488 1704.77 44.736 1706.61 44.736C1707.52 44.736 1708.35 44.412 1708.9 43.752V44.256C1708.9 45.696 1708.22 46.392 1706.72 46.392C1705.78 46.392 1704.86 46.068 1704.27 45.564L1703.72 46.452C1704.41 47.076 1705.59 47.4 1706.75 47.4C1708.91 47.4 1710.05 46.38 1710.05 44.136V38.64H1708.96ZM1706.74 43.728C1705.46 43.728 1704.55 42.876 1704.55 41.652C1704.55 40.416 1705.46 39.588 1706.74 39.588C1708.01 39.588 1708.93 40.416 1708.93 41.652C1708.93 42.876 1708.01 43.728 1706.74 43.728ZM1718 41.856C1718 39.9 1716.7 38.58 1714.86 38.58C1713.02 38.58 1711.67 39.936 1711.67 41.82C1711.67 43.716 1713.04 45.072 1715.09 45.072C1716.14 45.072 1717.02 44.712 1717.6 44.04L1716.96 43.296C1716.49 43.812 1715.87 44.064 1715.12 44.064C1713.86 44.064 1712.96 43.32 1712.82 42.204H1717.98C1717.99 42.096 1718 41.952 1718 41.856ZM1714.86 39.552C1715.98 39.552 1716.78 40.308 1716.9 41.376H1712.82C1712.94 40.296 1713.76 39.552 1714.86 39.552ZM1722.82 43.8C1722.58 43.992 1722.26 44.1 1721.92 44.1C1721.28 44.1 1720.92 43.716 1720.92 43.032V39.588H1722.75V38.64H1720.92V37.248H1719.77V38.64H1718.69V39.588H1719.77V43.08C1719.77 44.364 1720.5 45.072 1721.79 45.072C1722.3 45.072 1722.83 44.928 1723.18 44.628L1722.82 43.8ZM1726.4 45.072C1728.09 45.072 1729.14 44.34 1729.14 43.188C1729.14 40.716 1725.11 41.94 1725.11 40.44C1725.11 39.936 1725.6 39.564 1726.61 39.564C1727.24 39.564 1727.87 39.696 1728.45 40.068L1728.94 39.156C1728.39 38.796 1727.45 38.58 1726.62 38.58C1724.99 38.58 1723.97 39.348 1723.97 40.488C1723.97 43.02 1727.99 41.784 1727.99 43.212C1727.99 43.752 1727.55 44.076 1726.48 44.076C1725.65 44.076 1724.79 43.8 1724.25 43.416L1723.77 44.328C1724.3 44.748 1725.34 45.072 1726.4 45.072Z" fill="#15181A"/>
</g>
<g clip-path="url(#clip1_93_6028)">
<rect x="1365" y="-3.93848" width="53.4318" height="120.68" transform="rotate(-27.9721 1365 -3.93848)" fill="#15181A" fill-opacity="0.05"/>
<rect x="1441" y="-3.93848" width="38.1204" height="120.68" transform="rotate(-27.9721 1441 -3.93848)" fill="#15181A" fill-opacity="0.05"/>
<rect x="1500" y="-3.93848" width="27.2898" height="120.68" transform="rotate(-27.9721 1500 -3.93848)" fill="#15181A" fill-opacity="0.05"/>
</g>
<line y1="96" x2="624" y2="96" stroke="url(#paint2_radial_93_6028)" stroke-width="2"/>
<defs>
<filter id="filter0_b_93_6028" x="1737" y="11" width="62" height="59" filterUnits="userSpaceOnUse" color-interpolation-filters="sRGB">
<feFlood flood-opacity="0" result="BackgroundImageFix"/>
<feGaussianBlur in="BackgroundImage" stdDeviation="7.5"/>
<feComposite in2="SourceAlpha" operator="in" result="effect1_backgroundBlur_93_6028"/>
<feBlend mode="normal" in="SourceGraphic" in2="effect1_backgroundBlur_93_6028" result="shape"/>
</filter>
<filter id="filter1_b_93_6028" x="1645" y="11" width="118" height="59" filterUnits="userSpaceOnUse" color-interpolation-filters="sRGB">
<feFlood flood-opacity="0" result="BackgroundImageFix"/>
<feGaussianBlur in="BackgroundImage" stdDeviation="7.5"/>
<feComposite in2="SourceAlpha" operator="in" result="effect1_backgroundBlur_93_6028"/>
<feBlend mode="normal" in="SourceGraphic" in2="effect1_backgroundBlur_93_6028" result="shape"/>
</filter>
<filter id="filter2_d_93_6028" x="1668.38" y="30.916" width="70.7607" height="31.4844" filterUnits="userSpaceOnUse" color-interpolation-filters="sRGB">
<feFlood flood-opacity="0" result="BackgroundImageFix"/>
<feColorMatrix in="SourceAlpha" type="matrix" values="0 0 0 0 0 0 0 0 0 0 0 0 0 0 0 0 0 0 127 0" result="hardAlpha"/>
<feOffset dy="5"/>
<feGaussianBlur stdDeviation="5"/>
<feComposite in2="hardAlpha" operator="out"/>
<feColorMatrix type="matrix" values="0 0 0 0 0.32549 0 0 0 0 0.352941 0 0 0 0 0.392157 0 0 0 0.25 0"/>
<feBlend mode="normal" in2="BackgroundImageFix" result="effect1_dropShadow_93_6028"/>
<feBlend mode="normal" in="SourceGraphic" in2="effect1_dropShadow_93_6028" result="shape"/>
</filter>
<radialGradient id="paint0_radial_93_6028" cx="0" cy="0" r="1" gradientUnits="userSpaceOnUse" gradientTransform="translate(1768 40.5) rotate(90) scale(47.1116 51.9852)">
<stop stop-color="white"/>
<stop offset="1" stop-color="white" stop-opacity="0.5"/>
</radialGradient>
<radialGradient id="paint1_radial_93_6028" cx="0" cy="0" r="1" gradientUnits="userSpaceOnUse" gradientTransform="translate(1704 40.5) rotate(90) scale(47.1116 142.959)">
<stop stop-color="white"/>
<stop offset="1" stop-color="white" stop-opacity="0.5"/>
</radialGradient>
<radialGradient id="paint2_radial_93_6028" cx="0" cy="0" r="1" gradientUnits="userSpaceOnUse" gradientTransform="translate(44.121 94.5006) rotate(0.334882) scale(598.798 9417.6)">
<stop stop-color="#E4E4E4"/>
<stop offset="1" stop-color="#E4E4E4" stop-opacity="0"/>
</radialGradient>
<clipPath id="clip0_93_6028">
<rect width="14" height="14" fill="white" transform="translate(1761 48) rotate(-90)"/>
</clipPath>
<clipPath id="clip1_93_6028">
<rect width="266" height="38" fill="white" transform="translate(1344 22)"/>
</clipPath>
</defs>
</svg>
