<svg width="1121" height="104" viewBox="0 0 1121 104" fill="none" xmlns="http://www.w3.org/2000/svg">
<circle cx="1101" cy="61" r="20" fill="white"/>
<path d="M1107.78 57.6686L1107.32 57.2219C1107.17 57.0824 1106.98 57.0055 1106.78 57.0055C1106.57 57.0055 1106.38 57.0824 1106.23 57.2219L1101 62.2831L1095.77 57.2163C1095.62 57.0768 1095.43 57 1095.22 57C1095.02 57 1094.83 57.0768 1094.68 57.2163L1094.22 57.6603C1093.93 57.949 1093.93 58.4193 1094.22 58.708L1100.46 64.7624C1100.6 64.9018 1100.8 65 1101 65H1101.01C1101.21 65 1101.4 64.9017 1101.55 64.7624L1107.78 58.7244C1107.92 58.585 1108 58.3936 1108 58.1952C1108 57.9967 1107.92 57.8079 1107.78 57.6686Z" fill="#15181A"/>
<line x1="300.5" y1="-2.18557e-08" x2="300.5" y2="104" stroke="#E4E4E4"/>
<line x1="714.5" y1="-2.18557e-08" x2="714.5" y2="104" stroke="#E4E4E4"/>
<path fill-rule="evenodd" clip-rule="evenodd" d="M42.0938 69.9103C42.0938 69.9206 42.0994 69.9281 42.0994 69.9375C42.0994 69.9422 42.0966 69.9469 42.0966 69.9525C42.0975 69.9572 42.0994 69.9619 42.0994 69.9675C42.0994 70.485 41.6803 70.905 41.1619 70.905C41.1759 70.9041 32.8125 70.875 32.8125 70.875C32.2941 70.875 31.875 70.455 31.875 69.9375C31.875 69.4191 32.2941 69 32.8125 69H40.2619C40.2797 68.6869 40.3125 68.3794 40.3125 68.0625C40.3125 58.2253 32.3372 50.25 22.5 50.25C12.6628 50.25 4.6875 58.2253 4.6875 68.0625C4.6875 68.3794 4.72031 68.6869 4.73719 69H12.1875C12.7059 69 13.125 69.4191 13.125 69.9375C13.125 70.455 12.7059 70.875 12.1875 70.875C12.1875 70.875 3.825 70.9041 3.83812 70.9041C3.31969 70.9041 2.90063 70.4841 2.90063 69.9666C2.90063 69.9609 2.9025 69.9562 2.90344 69.9516C2.90344 69.9459 2.90063 69.9413 2.90063 69.9366C2.90063 69.9263 2.90625 69.9188 2.90625 69.9103C2.84906 69.3009 2.8125 68.6859 2.8125 68.0625C2.8125 57.1884 11.6269 48.375 22.5 48.375C33.3731 48.375 42.1875 57.1884 42.1875 68.0625C42.1875 68.6859 42.1509 69.3009 42.0938 69.9103ZM16.4278 58.8075C16.7963 58.605 17.2387 58.6725 17.5425 58.9322L17.4956 58.8544C25.7213 64.8731 27.4116 67.6416 27.4425 67.6931C28.7859 69.9028 27.9872 72.7284 25.6622 74.0034C23.3372 75.2784 20.3625 74.5219 19.02 72.3122C18.9872 72.2625 17.31 69.4866 15.9347 59.7103L15.9825 59.7872C15.8991 59.4084 16.0603 59.0091 16.4278 58.8075ZM20.7056 71.3897C21.2259 72.2437 22.1953 72.7753 23.2359 72.7753C23.7441 72.7753 24.2475 72.6469 24.6909 72.4031C25.3659 72.0328 25.8488 71.4366 26.0503 70.7212C26.2528 70.005 26.1487 69.2588 25.7662 68.6288C25.7503 68.6053 24.2925 66.3919 18.2081 61.74C19.4091 69.0666 20.6953 71.3709 20.7056 71.3897Z" fill="#15181A"/>
<path d="M104.376 73.384L110.964 65.248V62.8H94.332V65.932H106.464L100.128 73.708V76.228H102.144C106.464 76.228 108.372 77.956 108.372 80.62C108.372 83.356 106.212 85.084 102.432 85.084C99.336 85.084 96.528 83.968 94.836 82.384L93.18 85.228C95.304 87.136 98.832 88.288 102.432 88.288C108.84 88.288 111.972 84.832 111.972 80.584C111.972 76.696 109.416 73.852 104.376 73.384ZM137.254 78.712H132.466V73.24H129.082V78.712H119.398L131.746 62.8H127.858L114.97 79.288V81.808H128.974V88H132.466V81.808H137.254V78.712ZM149.708 88.288C155.576 88.288 159.968 83.608 159.968 75.4C159.968 67.192 155.576 62.512 149.708 62.512C143.804 62.512 139.412 67.192 139.412 75.4C139.412 83.608 143.804 88.288 149.708 88.288ZM149.708 85.084C145.748 85.084 143.012 81.844 143.012 75.4C143.012 68.956 145.748 65.716 149.708 65.716C153.632 65.716 156.368 68.956 156.368 75.4C156.368 81.844 153.632 85.084 149.708 85.084ZM193.215 62.8V73.636H178.743V62.8H175.143V88H178.743V76.768H193.215V88H196.815V62.8H193.215ZM214.186 62.8H204.358V88H207.958V80.368H214.186C220.738 80.368 224.698 77.056 224.698 71.584C224.698 66.112 220.738 62.8 214.186 62.8ZM214.078 77.236H207.958V65.932H214.078C218.686 65.932 221.098 67.984 221.098 71.584C221.098 75.184 218.686 77.236 214.078 77.236Z" fill="#15181A"/>
<path opacity="0.5" d="M96.176 29.8H91.328V41H93.92V37.912H96.176C99.168 37.912 101.04 36.36 101.04 33.864C101.04 31.352 99.168 29.8 96.176 29.8ZM96.032 35.8H93.92V31.912H96.032C97.616 31.912 98.416 32.632 98.416 33.864C98.416 35.08 97.616 35.8 96.032 35.8ZM108.471 41.192C111.991 41.192 114.599 38.744 114.599 35.4C114.599 32.056 111.991 29.608 108.471 29.608C104.935 29.608 102.343 32.072 102.343 35.4C102.343 38.728 104.935 41.192 108.471 41.192ZM108.471 38.984C106.471 38.984 104.967 37.528 104.967 35.4C104.967 33.272 106.471 31.816 108.471 31.816C110.471 31.816 111.975 33.272 111.975 35.4C111.975 37.528 110.471 38.984 108.471 38.984ZM130.62 29.8L128.012 37.736L125.452 29.8H123.052L120.412 37.672L117.884 29.8H115.196L118.876 41H121.644L124.188 33.416L126.652 41H129.436L133.1 29.8H130.62ZM137.123 38.92V36.328H142.323V34.312H137.123V31.88H143.011V29.8H134.547V41H143.219V38.92H137.123ZM155.201 41L152.689 37.4C154.145 36.776 154.993 35.544 154.993 33.864C154.993 31.352 153.121 29.8 150.129 29.8H145.281V41H147.873V37.88H150.129H150.257L152.417 41H155.201ZM152.369 33.864C152.369 35.08 151.569 35.816 149.985 35.816H147.873V31.912H149.985C151.569 31.912 152.369 32.632 152.369 33.864ZM167.002 41.192C170.522 41.192 173.13 38.744 173.13 35.4C173.13 32.056 170.522 29.608 167.002 29.608C163.466 29.608 160.874 32.072 160.874 35.4C160.874 38.728 163.466 41.192 167.002 41.192ZM167.002 38.984C165.002 38.984 163.498 37.528 163.498 35.4C163.498 33.272 165.002 31.816 167.002 31.816C169.002 31.816 170.506 33.272 170.506 35.4C170.506 37.528 169.002 38.984 167.002 38.984ZM180.054 41.192C183.238 41.192 185.126 39.368 185.126 36.072V29.8H182.566V35.976C182.566 38.104 181.654 38.984 180.07 38.984C178.502 38.984 177.574 38.104 177.574 35.976V29.8H174.982V36.072C174.982 39.368 176.87 41.192 180.054 41.192ZM189.82 41H192.412V31.912H195.996V29.8H186.236V31.912H189.82V41ZM202.239 29.8H197.391V41H199.983V37.912H202.239C205.231 37.912 207.103 36.36 207.103 33.864C207.103 31.352 205.231 29.8 202.239 29.8ZM202.095 35.8H199.983V31.912H202.095C203.679 31.912 204.479 32.632 204.479 33.864C204.479 35.08 203.679 35.8 202.095 35.8ZM213.882 41.192C217.066 41.192 218.954 39.368 218.954 36.072V29.8H216.394V35.976C216.394 38.104 215.482 38.984 213.898 38.984C212.33 38.984 211.402 38.104 211.402 35.976V29.8H208.81V36.072C208.81 39.368 210.698 41.192 213.882 41.192ZM223.648 41H226.24V31.912H229.824V29.8H220.064V31.912H223.648V41Z" fill="#15181A"/>
<path d="M463.288 62.8V65.932H468.976V88H472.54V62.8H463.288ZM480.464 83.284C479.096 83.284 478.052 84.292 478.052 85.732C478.052 86.812 478.664 87.64 479.564 87.964L478.232 93.328H480.5L482.192 88.324C482.66 86.992 482.804 86.452 482.804 85.732C482.804 84.328 481.832 83.284 480.464 83.284ZM496.659 72.7C493.527 72.7 490.863 73.852 489.423 76.012C489.387 75.688 489.387 75.4 489.387 75.112C489.387 68.812 492.663 65.608 497.775 65.608C499.575 65.608 501.303 65.932 502.599 66.796L503.967 63.988C502.347 62.98 500.079 62.512 497.703 62.512C490.647 62.512 485.787 67.12 485.787 75.724C485.787 83.752 489.603 88.288 496.371 88.288C501.375 88.288 505.299 85.192 505.299 80.332C505.299 75.688 501.663 72.7 496.659 72.7ZM496.227 85.372C492.339 85.372 490.251 83.104 490.251 80.512C490.251 77.74 492.627 75.616 496.047 75.616C499.575 75.616 501.807 77.524 501.807 80.476C501.807 83.464 499.503 85.372 496.227 85.372ZM523.413 74.788C525.717 73.708 526.977 71.836 526.977 69.352C526.977 65.14 523.305 62.512 517.833 62.512C512.397 62.512 508.761 65.14 508.761 69.352C508.761 71.836 509.985 73.708 512.289 74.788C509.445 75.868 507.861 77.992 507.861 80.872C507.861 85.444 511.713 88.288 517.833 88.288C523.989 88.288 527.877 85.444 527.877 80.872C527.877 77.992 526.293 75.904 523.413 74.788ZM517.833 65.428C521.217 65.428 523.449 66.976 523.449 69.496C523.449 71.98 521.325 73.528 517.833 73.528C514.377 73.528 512.325 71.98 512.325 69.496C512.325 66.976 514.449 65.428 517.833 65.428ZM517.833 85.372C513.837 85.372 511.461 83.608 511.461 80.764C511.461 77.992 513.837 76.264 517.833 76.264C521.829 76.264 524.277 77.992 524.277 80.764C524.277 83.608 521.829 85.372 517.833 85.372ZM541.469 88.288C547.337 88.288 551.729 83.608 551.729 75.4C551.729 67.192 547.337 62.512 541.469 62.512C535.565 62.512 531.173 67.192 531.173 75.4C531.173 83.608 535.565 88.288 541.469 88.288ZM541.469 85.084C537.509 85.084 534.773 81.844 534.773 75.4C534.773 68.956 537.509 65.716 541.469 65.716C545.393 65.716 548.129 68.956 548.129 75.4C548.129 81.844 545.393 85.084 541.469 85.084ZM584.761 88H588.973L577.525 74.14L588.289 62.8H584.185L570.505 76.876V62.8H566.905V88H570.505V81.484L575.113 76.804L584.761 88ZM609.326 83.464C607.526 84.616 605.546 85.084 603.422 85.084C597.626 85.084 593.414 80.944 593.414 75.4C593.414 69.784 597.626 65.716 603.458 65.716C606.302 65.716 608.678 66.616 610.766 68.632L612.998 66.4C610.694 63.844 607.31 62.512 603.314 62.512C595.502 62.512 589.814 67.948 589.814 75.4C589.814 82.852 595.502 88.288 603.242 88.288C606.77 88.288 610.262 87.208 612.782 85.084V75.256H609.326V83.464Z" fill="#15181A"/>
<path opacity="0.5" d="M475.776 29.8L473.168 37.736L470.608 29.8H468.208L465.568 37.672L463.04 29.8H460.352L464.032 41H466.8L469.344 33.416L471.808 41H474.592L478.256 29.8H475.776ZM482.279 38.92V36.328H487.479V34.312H482.279V31.88H488.167V29.8H479.703V41H488.375V38.92H482.279ZM490.437 41H493.029V29.8H490.437V41ZM503.255 38.504C502.599 38.856 501.943 38.984 501.239 38.984C499.095 38.984 497.607 37.496 497.607 35.4C497.607 33.272 499.095 31.816 501.271 31.816C502.407 31.816 503.351 32.216 504.167 33.08L505.831 31.544C504.743 30.28 503.111 29.608 501.143 29.608C497.575 29.608 494.983 32.024 494.983 35.4C494.983 38.776 497.575 41.192 501.095 41.192C502.695 41.192 504.391 40.696 505.623 39.768V35.224H503.255V38.504ZM515.711 29.8V34.216H510.623V29.8H508.031V41H510.623V36.408H515.711V41H518.303V29.8H515.711ZM523.273 41H525.865V31.912H529.449V29.8H519.689V31.912H523.273V41Z" fill="#15181A"/>
<g opacity="0.8">
<path d="M402.5 42.25H377.5C376.679 42.25 375.867 42.4117 375.108 42.7258C374.35 43.0398 373.661 43.5002 373.081 44.0806C371.908 45.2527 371.25 46.8424 371.25 48.5V73.5C371.25 75.1576 371.908 76.7473 373.081 77.9194C373.661 78.4998 374.35 78.9602 375.108 79.2742C375.867 79.5883 376.679 79.75 377.5 79.75H402.5C404.158 79.75 405.747 79.0915 406.919 77.9194C408.092 76.7473 408.75 75.1576 408.75 73.5V48.5C408.75 47.6792 408.588 46.8665 408.274 46.1082C407.96 45.3499 407.5 44.6609 406.919 44.0806C406.339 43.5002 405.65 43.0398 404.892 42.7258C404.133 42.4117 403.321 42.25 402.5 42.25V42.25ZM406.25 73.5C406.25 74.4946 405.855 75.4484 405.152 76.1517C404.448 76.8549 403.495 77.25 402.5 77.25H377.5C376.505 77.25 375.552 76.8549 374.848 76.1517C374.145 75.4484 373.75 74.4946 373.75 73.5V48.5C373.75 47.5054 374.145 46.5516 374.848 45.8483C375.552 45.1451 376.505 44.75 377.5 44.75H402.5C403.495 44.75 404.448 45.1451 405.152 45.8483C405.855 46.5516 406.25 47.5054 406.25 48.5V73.5Z" fill="#15181A"/>
<path d="M397.5 47.25H382.5C382.168 47.25 381.851 47.3817 381.616 47.6161C381.382 47.8505 381.25 48.1685 381.25 48.5V56C381.25 56.3315 381.382 56.6495 381.616 56.8839C381.851 57.1183 382.168 57.25 382.5 57.25H397.5C397.832 57.25 398.149 57.1183 398.384 56.8839C398.618 56.6495 398.75 56.3315 398.75 56V48.5C398.75 48.1685 398.618 47.8505 398.384 47.6161C398.149 47.3817 397.832 47.25 397.5 47.25ZM396.25 54.75H383.75V49.75H396.25V54.75Z" fill="#15181A"/>
</g>
<path d="M877.288 62.8V65.932H882.976V88H886.54V62.8H877.288ZM894.464 83.284C893.096 83.284 892.052 84.292 892.052 85.732C892.052 86.812 892.664 87.64 893.564 87.964L892.232 93.328H894.5L896.192 88.324C896.66 86.992 896.804 86.452 896.804 85.732C896.804 84.328 895.832 83.284 894.464 83.284ZM905.348 84.868L913.052 77.452C916.472 74.176 917.192 71.98 917.192 69.532C917.192 65.212 913.808 62.512 908.552 62.512C904.628 62.512 901.28 63.916 899.336 66.328L901.784 68.452C903.332 66.58 905.528 65.716 908.228 65.716C911.756 65.716 913.592 67.3 913.592 69.892C913.592 71.476 913.088 73.06 910.424 75.652L900.164 85.552V88H918.272V84.868H905.348ZM920.478 62.8V70.432H923.934V65.932H935.454L925.482 88H929.298L939.486 65.248V62.8H920.478ZM952.235 88.288C958.103 88.288 962.495 83.608 962.495 75.4C962.495 67.192 958.103 62.512 952.235 62.512C946.331 62.512 941.939 67.192 941.939 75.4C941.939 83.608 946.331 88.288 952.235 88.288ZM952.235 85.084C948.275 85.084 945.539 81.844 945.539 75.4C945.539 68.956 948.275 65.716 952.235 65.716C956.159 65.716 958.895 68.956 958.895 75.4C958.895 81.844 956.159 85.084 952.235 85.084ZM982.675 88H986.239V65.932H994.879V62.8H974.035V65.932H982.675V88ZM1004.5 88.216C1010.22 88.216 1014.4 84.148 1014.4 78.46C1014.4 72.772 1010.22 68.74 1004.5 68.74C998.775 68.74 994.563 72.772 994.563 78.46C994.563 84.148 998.775 88.216 1004.5 88.216ZM1004.5 85.192C1000.83 85.192 998.055 82.528 998.055 78.46C998.055 74.392 1000.83 71.764 1004.5 71.764C1008.17 71.764 1010.91 74.392 1010.91 78.46C1010.91 82.528 1008.17 85.192 1004.5 85.192ZM1029.37 68.74C1026.34 68.74 1023.89 69.856 1022.49 71.8V68.92H1019.18V88H1022.63V78.172C1022.63 74.032 1025.01 71.836 1028.68 71.836C1031.96 71.836 1033.83 73.672 1033.83 77.416V88H1037.29V77.02C1037.29 71.404 1034.01 68.74 1029.37 68.74Z" fill="#15181A"/>
<path opacity="0.5" d="M880.688 41.192C882.64 41.192 884.256 40.488 885.312 39.192L883.648 37.656C882.896 38.536 881.952 38.984 880.832 38.984C878.736 38.984 877.248 37.512 877.248 35.4C877.248 33.288 878.736 31.816 880.832 31.816C881.952 31.816 882.896 32.264 883.648 33.128L885.312 31.592C884.256 30.312 882.64 29.608 880.704 29.608C877.216 29.608 874.624 32.024 874.624 35.4C874.624 38.776 877.216 41.192 880.688 41.192ZM892.252 41.192C895.772 41.192 898.38 38.744 898.38 35.4C898.38 32.056 895.772 29.608 892.252 29.608C888.716 29.608 886.124 32.072 886.124 35.4C886.124 38.728 888.716 41.192 892.252 41.192ZM892.252 38.984C890.252 38.984 888.748 37.528 888.748 35.4C888.748 33.272 890.252 31.816 892.252 31.816C894.252 31.816 895.756 33.272 895.756 35.4C895.756 37.528 894.252 38.984 892.252 38.984ZM903.02 38.888L905.596 36.456C907.164 35 907.468 34.008 907.468 32.92C907.468 30.888 905.804 29.608 903.308 29.608C901.292 29.608 899.724 30.424 898.86 31.688L900.748 32.904C901.292 32.152 902.108 31.784 903.068 31.784C904.252 31.784 904.86 32.296 904.86 33.176C904.86 33.72 904.684 34.296 903.692 35.24L899.372 39.32V41H907.836V38.888H903.02ZM916.717 38.92V36.328H921.917V34.312H916.717V31.88H922.605V29.8H914.141V41H922.812V38.92H916.717ZM937.499 41L937.467 29.8H935.339L931.211 36.76L927.019 29.8H924.875V41H927.307V34.424L930.587 39.816H931.755L935.051 34.28L935.067 41H937.499ZM940.156 41H942.748V29.8H940.156V41ZM949.086 41.192C952.286 41.192 953.838 39.592 953.838 37.72C953.838 33.608 947.326 35.032 947.326 32.968C947.326 32.264 947.918 31.688 949.454 31.688C950.446 31.688 951.518 31.976 952.558 32.568L953.358 30.6C952.318 29.944 950.878 29.608 949.47 29.608C946.286 29.608 944.75 31.192 944.75 33.096C944.75 37.256 951.262 35.816 951.262 37.912C951.262 38.6 950.638 39.112 949.102 39.112C947.758 39.112 946.35 38.632 945.406 37.944L944.526 39.896C945.518 40.664 947.31 41.192 949.086 41.192ZM959.289 41.192C962.489 41.192 964.041 39.592 964.041 37.72C964.041 33.608 957.529 35.032 957.529 32.968C957.529 32.264 958.121 31.688 959.657 31.688C960.649 31.688 961.721 31.976 962.761 32.568L963.561 30.6C962.521 29.944 961.081 29.608 959.673 29.608C956.489 29.608 954.953 31.192 954.953 33.096C954.953 37.256 961.465 35.816 961.465 37.912C961.465 38.6 960.841 39.112 959.305 39.112C957.961 39.112 956.553 38.632 955.609 37.944L954.729 39.896C955.721 40.664 957.513 41.192 959.289 41.192ZM965.812 41H968.404V29.8H965.812V41ZM976.486 41.192C980.006 41.192 982.614 38.744 982.614 35.4C982.614 32.056 980.006 29.608 976.486 29.608C972.95 29.608 970.358 32.072 970.358 35.4C970.358 38.728 972.95 41.192 976.486 41.192ZM976.486 38.984C974.486 38.984 972.982 37.528 972.982 35.4C972.982 33.272 974.486 31.816 976.486 31.816C978.486 31.816 979.99 33.272 979.99 35.4C979.99 37.528 978.486 38.984 976.486 38.984ZM992.274 29.8V36.6L986.706 29.8H984.562V41H987.122V34.2L992.706 41H994.834V29.8H992.274ZM1001.16 41.192C1004.36 41.192 1005.92 39.592 1005.92 37.72C1005.92 33.608 999.404 35.032 999.404 32.968C999.404 32.264 999.996 31.688 1001.53 31.688C1002.52 31.688 1003.6 31.976 1004.64 32.568L1005.44 30.6C1004.4 29.944 1002.96 29.608 1001.55 29.608C998.364 29.608 996.828 31.192 996.828 33.096C996.828 37.256 1003.34 35.816 1003.34 37.912C1003.34 38.6 1002.72 39.112 1001.18 39.112C999.836 39.112 998.428 38.632 997.484 37.944L996.604 39.896C997.596 40.664 999.388 41.192 1001.16 41.192Z" fill="#15181A"/>
<g opacity="0.8" clip-path="url(#clip0_93_6033)">
<path d="M821.125 44.4587C820.991 43.8962 820.486 43.5 819.91 43.5C819.908 43.5 819.905 43.5 819.903 43.5C813.319 43.5412 797.309 44.645 790.845 53.975C787.488 58.8225 787.199 65.1162 789.986 72.6812C790.008 72.74 790.051 72.78 790.08 72.8337C789.084 75.3 788.698 76.9413 788.688 76.9875C788.543 77.6625 788.974 78.3275 789.649 78.4725C789.736 78.4913 789.824 78.5 789.911 78.5C790.488 78.5 791.006 78.0987 791.133 77.5125C791.159 77.385 794.344 64.5462 805.604 57.04C806.179 56.6575 806.334 55.8812 805.95 55.3062C805.566 54.7312 804.791 54.575 804.216 54.96C797.831 59.2163 793.899 64.97 791.586 69.53C789.931 63.8075 790.365 59.0588 792.901 55.3988C797.893 48.1938 809.731 46.4563 816.878 46.0888C815.34 48.34 813.66 52.4675 813.66 59.75C813.66 63.65 812.554 66.6525 810.374 68.675C806.879 71.9137 801.201 72.2175 797.049 71.905C796.359 71.8488 795.76 72.3687 795.708 73.0575C795.655 73.745 796.171 74.345 796.859 74.3975C797.69 74.4613 798.578 74.5 799.5 74.5C803.728 74.5 808.659 73.6713 812.073 70.5075C814.785 67.9938 816.16 64.375 816.16 59.7513C816.16 48.3775 820.448 45.8812 820.469 45.87C820.989 45.6087 821.261 45.0237 821.125 44.4587Z" fill="black"/>
</g>
<defs>
<clipPath id="clip0_93_6033">
<rect width="40" height="40" fill="white" transform="translate(784 41)"/>
</clipPath>
</defs>
</svg>
