<svg width="553" height="37" viewBox="0 0 553 37" fill="none" xmlns="http://www.w3.org/2000/svg">
<text fill="#15181A" xml:space="preserve" style="white-space: pre" font-family="Montserrat" font-size="20" letter-spacing="0em"><tspan x="0" y="22.17">Products</tspan></text>
<g clip-path="url(#clip0_40_1718)">
<path d="M542.111 14.9999C542.111 14.1407 541.415 13.4443 540.556 13.4443C539.696 13.4443 539 14.1407 539 14.9999C539 15.859 539.696 16.5554 540.556 16.5554C541.415 16.5554 542.111 15.859 542.111 14.9999Z" fill="#444648"/>
<path d="M547.555 14.9999C547.555 14.1407 546.859 13.4443 546 13.4443C545.141 13.4443 544.444 14.1407 544.444 14.9999C544.444 15.859 545.141 16.5554 546 16.5554C546.859 16.5554 547.555 15.859 547.555 14.9999Z" fill="#444648"/>
<path d="M553 14.9999C553 14.1407 552.303 13.4443 551.444 13.4443C550.585 13.4443 549.889 14.1407 549.889 14.9999C549.889 15.859 550.585 16.5554 551.444 16.5554C552.303 16.5554 553 15.859 553 14.9999Z" fill="#444648"/>
</g>
<g filter="url(#filter0_b_40_1718)">
<rect x="416" width="109" height="29" rx="8" fill="url(#paint0_radial_40_1718)"/>
<rect x="416.5" y="0.5" width="108" height="28" rx="7.5" stroke="#F2F2F5"/>
</g>
<path d="M433.758 16.5H428.5V18H433.758V20.25L436.75 17.25L433.758 14.25V16.5ZM438.242 15.75V13.5H443.5V12H438.242V9.75L435.25 12.75L438.242 15.75Z" fill="#444648"/>
<g filter="url(#filter1_d_40_1718)">
<text fill="#15181A" xml:space="preserve" style="white-space: pre" font-family="Montserrat" font-size="12" font-weight="500" letter-spacing="0em"><tspan x="455" y="18.802">Compare</tspan></text>
</g>
<defs>
<filter id="filter0_b_40_1718" x="401" y="-15" width="139" height="59" filterUnits="userSpaceOnUse" color-interpolation-filters="sRGB">
<feFlood flood-opacity="0" result="BackgroundImageFix"/>
<feGaussianBlur in="BackgroundImage" stdDeviation="7.5"/>
<feComposite in2="SourceAlpha" operator="in" result="effect1_backgroundBlur_40_1718"/>
<feBlend mode="normal" in="SourceGraphic" in2="effect1_backgroundBlur_40_1718" result="shape"/>
</filter>
<filter id="filter1_d_40_1718" x="445.576" y="5.50391" width="75.0371" height="30.824" filterUnits="userSpaceOnUse" color-interpolation-filters="sRGB">
<feFlood flood-opacity="0" result="BackgroundImageFix"/>
<feColorMatrix in="SourceAlpha" type="matrix" values="0 0 0 0 0 0 0 0 0 0 0 0 0 0 0 0 0 0 127 0" result="hardAlpha"/>
<feOffset dy="5"/>
<feGaussianBlur stdDeviation="5"/>
<feComposite in2="hardAlpha" operator="out"/>
<feColorMatrix type="matrix" values="0 0 0 0 0.32549 0 0 0 0 0.352941 0 0 0 0 0.392157 0 0 0 0.25 0"/>
<feBlend mode="normal" in2="BackgroundImageFix" result="effect1_dropShadow_40_1718"/>
<feBlend mode="normal" in="SourceGraphic" in2="effect1_dropShadow_40_1718" result="shape"/>
</filter>
<radialGradient id="paint0_radial_40_1718" cx="0" cy="0" r="1" gradientUnits="userSpaceOnUse" gradientTransform="translate(470.5 14.5) rotate(90) scale(47.1116 177.075)">
<stop stop-color="white"/>
<stop offset="1" stop-color="white" stop-opacity="0.5"/>
</radialGradient>
<clipPath id="clip0_40_1718">
<rect width="14" height="14" fill="white" transform="translate(539 22) rotate(-90)"/>
</clipPath>
</defs>
</svg>
