<svg width="553" height="37" viewBox="0 0 553 37" fill="none" xmlns="http://www.w3.org/2000/svg">
<path d="M7.52 8H2.28V22H3.76V17.58H7.52C11.08 17.58 13.24 15.78 13.24 12.8C13.24 9.8 11.08 8 7.52 8ZM7.48 16.28H3.76V9.28H7.48C10.28 9.28 11.76 10.56 11.76 12.8C11.76 15 10.28 16.28 7.48 16.28ZM17.2267 13.54V11.48H15.8667V22H17.2867V16.64C17.2867 14.16 18.6267 12.76 20.8267 12.76C20.9267 12.76 21.0467 12.78 21.1667 12.78V11.4C19.2267 11.4 17.8867 12.14 17.2267 13.54ZM27.9402 22.1C31.0202 22.1 33.2802 19.86 33.2802 16.74C33.2802 13.62 31.0202 11.4 27.9402 11.4C24.8602 11.4 22.5802 13.62 22.5802 16.74C22.5802 19.86 24.8602 22.1 27.9402 22.1ZM27.9402 20.84C25.7002 20.84 24.0202 19.2 24.0202 16.74C24.0202 14.28 25.7002 12.64 27.9402 12.64C30.1802 12.64 31.8402 14.28 31.8402 16.74C31.8402 19.2 30.1802 20.84 27.9402 20.84ZM44.3592 7.16V13.48C43.4792 12.12 42.0392 11.4 40.3592 11.4C37.3592 11.4 35.1192 13.56 35.1192 16.74C35.1192 19.92 37.3592 22.1 40.3592 22.1C42.0992 22.1 43.5592 21.34 44.4192 19.92V22H45.7792V7.16H44.3592ZM40.4792 20.84C38.2392 20.84 36.5592 19.2 36.5592 16.74C36.5592 14.28 38.2392 12.64 40.4792 12.64C42.6992 12.64 44.3792 14.28 44.3792 16.74C44.3792 19.2 42.6992 20.84 40.4792 20.84ZM57.7939 11.48V17C57.7939 19.4 56.4139 20.82 54.2139 20.82C52.2139 20.82 51.0539 19.68 51.0539 17.44V11.48H49.6339V17.58C49.6339 20.6 51.3939 22.1 54.0739 22.1C55.7539 22.1 57.1139 21.36 57.8539 20.08V22H59.2139V11.48H57.7939ZM67.5509 22.1C69.3309 22.1 70.8309 21.38 71.6709 20.02L70.6109 19.3C69.8909 20.36 68.7709 20.84 67.5509 20.84C65.2509 20.84 63.5709 19.22 63.5709 16.74C63.5709 14.28 65.2509 12.64 67.5509 12.64C68.7709 12.64 69.8909 13.14 70.6109 14.2L71.6709 13.48C70.8309 12.1 69.3309 11.4 67.5509 11.4C64.4109 11.4 62.1309 13.6 62.1309 16.74C62.1309 19.88 64.4109 22.1 67.5509 22.1ZM79.6177 20.34C79.2177 20.7 78.6377 20.88 78.0577 20.88C76.8777 20.88 76.2377 20.2 76.2377 18.96V12.68H79.4377V11.48H76.2377V9.18H74.8177V11.48H72.9377V12.68H74.8177V19.04C74.8177 20.98 75.9177 22.1 77.8977 22.1C78.7177 22.1 79.5577 21.86 80.1177 21.36L79.6177 20.34ZM85.5227 22.1C88.2627 22.1 89.8627 20.92 89.8627 19.1C89.8627 15.06 83.0427 17.2 83.0427 14.36C83.0427 13.36 83.8827 12.62 85.7827 12.62C86.8627 12.62 87.9627 12.88 88.8827 13.52L89.5027 12.38C88.6227 11.78 87.1427 11.4 85.7827 11.4C83.1027 11.4 81.6227 12.68 81.6227 14.4C81.6227 18.56 88.4427 16.4 88.4427 19.14C88.4427 20.18 87.6227 20.86 85.6227 20.86C84.1427 20.86 82.7227 20.34 81.8827 19.68L81.2427 20.8C82.1027 21.54 83.7827 22.1 85.5227 22.1Z" fill="#15181A"/>
<g clip-path="url(#clip0_93_6034)">
<path d="M542.111 15.0001C542.111 14.141 541.415 13.4445 540.556 13.4445C539.696 13.4445 539 14.141 539 15.0001C539 15.8592 539.696 16.5557 540.556 16.5557C541.415 16.5557 542.111 15.8592 542.111 15.0001Z" fill="#444648"/>
<path d="M547.556 15.0001C547.556 14.141 546.86 13.4445 546 13.4445C545.141 13.4445 544.445 14.141 544.445 15.0001C544.445 15.8592 545.141 16.5557 546 16.5557C546.86 16.5557 547.556 15.8592 547.556 15.0001Z" fill="#444648"/>
<path d="M553 15.0001C553 14.141 552.304 13.4445 551.445 13.4445C550.586 13.4445 549.889 14.141 549.889 15.0001C549.889 15.8592 550.586 16.5557 551.445 16.5557C552.304 16.5557 553 15.8592 553 15.0001Z" fill="#444648"/>
</g>
<g filter="url(#filter0_b_93_6034)">
<rect x="416" width="109" height="29" rx="8" fill="url(#paint0_radial_93_6034)"/>
<rect x="416.5" y="0.5" width="108" height="28" rx="7.5" stroke="#F2F2F5"/>
</g>
<path d="M433.758 16.5H428.5V18H433.758V20.25L436.75 17.25L433.758 14.25V16.5ZM438.242 15.75V13.5H443.5V12H438.242V9.75L435.25 12.75L438.242 15.75Z" fill="#444648"/>
<g filter="url(#filter1_d_93_6034)">
<path d="M460.016 19.096C461.324 19.096 462.452 18.64 463.22 17.776L462.44 17.02C461.792 17.704 461 18.028 460.076 18.028C458.18 18.028 456.776 16.66 456.776 14.8C456.776 12.94 458.18 11.572 460.076 11.572C461 11.572 461.792 11.884 462.44 12.568L463.22 11.812C462.452 10.948 461.324 10.504 460.028 10.504C457.472 10.504 455.576 12.316 455.576 14.8C455.576 17.284 457.472 19.096 460.016 19.096ZM467.218 19.072C469.126 19.072 470.518 17.716 470.518 15.82C470.518 13.924 469.126 12.58 467.218 12.58C465.31 12.58 463.906 13.924 463.906 15.82C463.906 17.716 465.31 19.072 467.218 19.072ZM467.218 18.064C465.994 18.064 465.07 17.176 465.07 15.82C465.07 14.464 465.994 13.588 467.218 13.588C468.442 13.588 469.354 14.464 469.354 15.82C469.354 17.176 468.442 18.064 467.218 18.064ZM480.068 12.58C478.988 12.58 478.1 13.036 477.62 13.756C477.2 12.964 476.384 12.58 475.412 12.58C474.452 12.58 473.672 12.94 473.216 13.588V12.64H472.112V19H473.264V15.724C473.264 14.344 474.02 13.612 475.172 13.612C476.216 13.612 476.816 14.224 476.816 15.472V19H477.968V15.724C477.968 14.344 478.724 13.612 479.876 13.612C480.92 13.612 481.52 14.224 481.52 15.472V19H482.672V15.34C482.672 13.468 481.616 12.58 480.068 12.58ZM488.163 12.58C487.227 12.58 486.411 12.94 485.895 13.648V12.64H484.791V21.328H485.943V18.04C486.471 18.724 487.263 19.072 488.163 19.072C490.023 19.072 491.379 17.776 491.379 15.82C491.379 13.876 490.023 12.58 488.163 12.58ZM488.067 18.064C486.855 18.064 485.931 17.176 485.931 15.82C485.931 14.476 486.855 13.588 488.067 13.588C489.291 13.588 490.215 14.476 490.215 15.82C490.215 17.176 489.291 18.064 488.067 18.064ZM495.228 12.58C494.208 12.58 493.26 12.868 492.6 13.396L493.08 14.26C493.572 13.84 494.34 13.576 495.096 13.576C496.236 13.576 496.8 14.14 496.8 15.112V15.34H494.976C493.08 15.34 492.42 16.18 492.42 17.2C492.42 18.304 493.332 19.072 494.772 19.072C495.768 19.072 496.476 18.736 496.86 18.16V19H497.952V15.16C497.952 13.42 496.968 12.58 495.228 12.58ZM494.964 18.184C494.088 18.184 493.56 17.788 493.56 17.152C493.56 16.612 493.884 16.168 495.024 16.168H496.8V17.056C496.512 17.788 495.828 18.184 494.964 18.184ZM501.188 13.708V12.64H500.084V19H501.236V15.832C501.236 14.44 502.004 13.684 503.24 13.684C503.324 13.684 503.408 13.684 503.504 13.696V12.58C502.388 12.58 501.596 12.964 501.188 13.708ZM510.613 15.856C510.613 13.9 509.305 12.58 507.469 12.58C505.633 12.58 504.277 13.936 504.277 15.82C504.277 17.716 505.645 19.072 507.697 19.072C508.753 19.072 509.629 18.712 510.205 18.04L509.569 17.296C509.101 17.812 508.477 18.064 507.733 18.064C506.473 18.064 505.573 17.32 505.429 16.204H510.589C510.601 16.096 510.613 15.952 510.613 15.856ZM507.469 13.552C508.585 13.552 509.389 14.308 509.509 15.376H505.429C505.549 14.296 506.365 13.552 507.469 13.552Z" fill="#15181A"/>
</g>
<defs>
<filter id="filter0_b_93_6034" x="401" y="-15" width="139" height="59" filterUnits="userSpaceOnUse" color-interpolation-filters="sRGB">
<feFlood flood-opacity="0" result="BackgroundImageFix"/>
<feGaussianBlur in="BackgroundImage" stdDeviation="7.5"/>
<feComposite in2="SourceAlpha" operator="in" result="effect1_backgroundBlur_93_6034"/>
<feBlend mode="normal" in="SourceGraphic" in2="effect1_backgroundBlur_93_6034" result="shape"/>
</filter>
<filter id="filter1_d_93_6034" x="445.576" y="5.50391" width="75.0371" height="30.8242" filterUnits="userSpaceOnUse" color-interpolation-filters="sRGB">
<feFlood flood-opacity="0" result="BackgroundImageFix"/>
<feColorMatrix in="SourceAlpha" type="matrix" values="0 0 0 0 0 0 0 0 0 0 0 0 0 0 0 0 0 0 127 0" result="hardAlpha"/>
<feOffset dy="5"/>
<feGaussianBlur stdDeviation="5"/>
<feComposite in2="hardAlpha" operator="out"/>
<feColorMatrix type="matrix" values="0 0 0 0 0.32549 0 0 0 0 0.352941 0 0 0 0 0.392157 0 0 0 0.25 0"/>
<feBlend mode="normal" in2="BackgroundImageFix" result="effect1_dropShadow_93_6034"/>
<feBlend mode="normal" in="SourceGraphic" in2="effect1_dropShadow_93_6034" result="shape"/>
</filter>
<radialGradient id="paint0_radial_93_6034" cx="0" cy="0" r="1" gradientUnits="userSpaceOnUse" gradientTransform="translate(470.5 14.5) rotate(90) scale(47.1116 177.075)">
<stop stop-color="white"/>
<stop offset="1" stop-color="white" stop-opacity="0.5"/>
</radialGradient>
<clipPath id="clip0_93_6034">
<rect width="14" height="14" fill="white" transform="translate(539 22) rotate(-90)"/>
</clipPath>
</defs>
</svg>
