<svg width="61" height="1080" viewBox="0 0 61 1080" fill="none" xmlns="http://www.w3.org/2000/svg">
<g filter="url(#filter0_b_40_1711)">
<rect width="60" height="1080" fill="url(#paint0_radial_40_1711)"/>
</g>
<path d="M25.5 580.525C23.4 580.525 21.75 582.175 21.75 584.275C21.75 586.375 23.4 588.025 25.5 588.025C27.6 588.025 29.25 586.375 29.25 584.275C29.25 582.175 27.6 580.525 25.5 580.525ZM25.5 586.525C24.225 586.525 23.25 585.55 23.25 584.275C23.25 583 24.225 582.025 25.5 582.025C26.775 582.025 27.75 583 27.75 584.275C27.75 585.55 26.775 586.525 25.5 586.525ZM25.5 589.525C23.4 589.525 21.75 591.175 21.75 593.275C21.75 595.375 23.4 597.025 25.5 597.025C27.6 597.025 29.25 595.375 29.25 593.275C29.25 591.175 27.6 589.525 25.5 589.525ZM25.5 595.525C24.225 595.525 23.25 594.55 23.25 593.275C23.25 592 24.225 591.025 25.5 591.025C26.775 591.025 27.75 592 27.75 593.275C27.75 594.475 26.775 595.525 25.5 595.525ZM34.5 588.025C36.6 588.025 38.25 586.375 38.25 584.275C38.25 582.175 36.6 580.525 34.5 580.525C32.4 580.525 30.75 582.175 30.75 584.275C30.75 586.375 32.4 588.025 34.5 588.025ZM34.5 582.025C35.775 582.025 36.75 583 36.75 584.275C36.75 585.55 35.775 586.525 34.5 586.525C33.225 586.525 32.25 585.55 32.25 584.275C32.25 583 33.225 582.025 34.5 582.025ZM34.5 589.525C32.4 589.525 30.75 591.175 30.75 593.275C30.75 595.375 32.4 597.025 34.5 597.025C36.6 597.025 38.25 595.375 38.25 593.275C38.25 591.175 36.6 589.525 34.5 589.525ZM34.5 595.525C33.225 595.525 32.25 594.55 32.25 593.275C32.25 592 33.225 591.025 34.5 591.025C35.775 591.025 36.75 592 36.75 593.275C36.75 594.475 35.775 595.525 34.5 595.525Z" fill="#898A8B" fill-opacity="0.6"/>
<path d="M36.9901 685.538L35.6851 685.103C35.5963 684.833 35.4886 684.57 35.3626 684.315L36.0001 683.093C36.0695 682.952 36.093 682.793 36.0675 682.638C36.0419 682.484 35.9685 682.341 35.8576 682.23L34.7701 681.165C34.6619 681.05 34.5203 680.973 34.3655 680.943C34.2107 680.913 34.0504 680.933 33.9076 681L32.6851 681.615C32.4305 681.489 32.1674 681.381 31.8976 681.293L31.5001 680.01C31.4479 679.855 31.3463 679.721 31.2109 679.629C31.0755 679.537 30.9136 679.492 30.7501 679.5H29.2501C29.0928 679.5 28.9394 679.549 28.8116 679.64C28.6837 679.732 28.5879 679.861 28.5376 680.01L28.1026 681.315C27.8328 681.404 27.5696 681.512 27.3151 681.638L26.0926 681C25.9519 680.931 25.7931 680.907 25.6384 680.933C25.4837 680.958 25.3409 681.032 25.2301 681.143L24.1651 682.23C24.0504 682.338 23.9728 682.48 23.9431 682.635C23.9135 682.789 23.9334 682.95 24.0001 683.093L24.6151 684.315C24.4891 684.57 24.3813 684.833 24.2926 685.103L22.9876 685.538C22.8428 685.592 22.7183 685.689 22.631 685.817C22.5438 685.944 22.498 686.096 22.5001 686.25V687.75C22.4997 687.907 22.5487 688.061 22.6402 688.189C22.7317 688.316 22.8611 688.412 23.0101 688.463L24.3151 688.898C24.4038 689.167 24.5116 689.431 24.6376 689.685L24.0001 690.908C23.9307 691.048 23.9071 691.207 23.9327 691.362C23.9582 691.516 24.0316 691.659 24.1426 691.77L25.2076 692.835C25.3174 692.955 25.463 693.035 25.6226 693.065C25.7821 693.095 25.9471 693.072 26.0926 693L27.3151 692.385C27.5696 692.511 27.8328 692.619 28.1026 692.708L28.5376 694.013C28.5916 694.157 28.6891 694.282 28.8166 694.369C28.9442 694.456 29.0955 694.502 29.2501 694.5H30.7501C30.9073 694.5 31.0607 694.451 31.1885 694.36C31.3164 694.268 31.4123 694.139 31.4626 693.99L31.8976 692.685C32.1674 692.596 32.4305 692.489 32.6851 692.363L33.9076 692.978C34.0482 693.047 34.207 693.071 34.3617 693.045C34.5164 693.019 34.6592 692.946 34.7701 692.835L35.8351 691.77C35.9497 691.662 36.0274 691.52 36.057 691.365C36.0866 691.211 36.0667 691.05 36.0001 690.908L35.3851 689.685C35.5111 689.431 35.6188 689.167 35.7076 688.898L36.9901 688.5C37.1453 688.448 37.2792 688.346 37.3713 688.211C37.4634 688.075 37.5086 687.914 37.5001 687.75V686.25C37.5005 686.093 37.4515 685.939 37.3599 685.812C37.2684 685.684 37.139 685.588 36.9901 685.538ZM30.0001 690C29.4067 690 28.8267 689.824 28.3334 689.494C27.84 689.165 27.4555 688.696 27.2284 688.148C27.0014 687.6 26.942 686.997 27.0577 686.415C27.1735 685.833 27.4592 685.298 27.8787 684.879C28.2983 684.459 28.8329 684.173 29.4148 684.058C29.9967 683.942 30.5999 684.001 31.1481 684.228C31.6963 684.455 32.1648 684.84 32.4945 685.333C32.8241 685.827 33.0001 686.407 33.0001 687C33.0001 687.796 32.684 688.559 32.1214 689.121C31.5588 689.684 30.7957 690 30.0001 690Z" fill="#898A8B" fill-opacity="0.6"/>
<g clip-path="url(#clip0_40_1711)">
<path d="M30 385.275L21.75 391.875V402H38.25V391.875L30 385.275ZM36.75 400.5H23.25V392.625L30 387.225L36.75 392.625V400.5ZM25.5 399H34.5V397.5H25.5V399Z" fill="#15181A"/>
</g>
<path d="M36 497.75V496.25C36 495.454 35.6839 494.691 35.1213 494.129C34.5587 493.566 33.7956 493.25 33 493.25H27C26.2044 493.25 25.4413 493.566 24.8787 494.129C24.3161 494.691 24 495.454 24 496.25V497.75" stroke="#898A8B" stroke-opacity="0.6" stroke-width="2" stroke-linecap="round" stroke-linejoin="round"/>
<path d="M30 490.25C31.6569 490.25 33 488.907 33 487.25C33 485.593 31.6569 484.25 30 484.25C28.3431 484.25 27 485.593 27 487.25C27 488.907 28.3431 490.25 30 490.25Z" stroke="#898A8B" stroke-opacity="0.6" stroke-width="2" stroke-linecap="round" stroke-linejoin="round"/>
<rect y="59" width="60" height="1" fill="#E4E4E4"/>
<rect x="60" width="1" height="1080" fill="#E4E4E4"/>
<defs>
<filter id="filter0_b_40_1711" x="-15" y="-15" width="90" height="1110" filterUnits="userSpaceOnUse" color-interpolation-filters="sRGB">
<feFlood flood-opacity="0" result="BackgroundImageFix"/>
<feGaussianBlur in="BackgroundImage" stdDeviation="7.5"/>
<feComposite in2="SourceAlpha" operator="in" result="effect1_backgroundBlur_40_1711"/>
<feBlend mode="normal" in="SourceGraphic" in2="effect1_backgroundBlur_40_1711" result="shape"/>
</filter>
<radialGradient id="paint0_radial_40_1711" cx="0" cy="0" r="1" gradientUnits="userSpaceOnUse" gradientTransform="translate(30 540) rotate(90) scale(1754.5 97.4722)">
<stop stop-color="white"/>
<stop offset="1" stop-color="white" stop-opacity="0.5"/>
</radialGradient>
<clipPath id="clip0_40_1711">
<rect width="18" height="18" fill="white" transform="translate(21 384)"/>
</clipPath>
</defs>
</svg>
