<svg width="61" height="1080" viewBox="0 0 61 1080" fill="none" xmlns="http://www.w3.org/2000/svg">
<g filter="url(#filter0_b_93_5795)">
<rect width="60" height="1080" fill="url(#paint0_radial_93_5795)"/>
</g>
<path d="M25.5 580.525C23.4 580.525 21.75 582.175 21.75 584.275C21.75 586.375 23.4 588.025 25.5 588.025C27.6 588.025 29.25 586.375 29.25 584.275C29.25 582.175 27.6 580.525 25.5 580.525ZM25.5 586.525C24.225 586.525 23.25 585.55 23.25 584.275C23.25 583 24.225 582.025 25.5 582.025C26.775 582.025 27.75 583 27.75 584.275C27.75 585.55 26.775 586.525 25.5 586.525ZM25.5 589.525C23.4 589.525 21.75 591.175 21.75 593.275C21.75 595.375 23.4 597.025 25.5 597.025C27.6 597.025 29.25 595.375 29.25 593.275C29.25 591.175 27.6 589.525 25.5 589.525ZM25.5 595.525C24.225 595.525 23.25 594.55 23.25 593.275C23.25 592 24.225 591.025 25.5 591.025C26.775 591.025 27.75 592 27.75 593.275C27.75 594.475 26.775 595.525 25.5 595.525ZM34.5 588.025C36.6 588.025 38.25 586.375 38.25 584.275C38.25 582.175 36.6 580.525 34.5 580.525C32.4 580.525 30.75 582.175 30.75 584.275C30.75 586.375 32.4 588.025 34.5 588.025ZM34.5 582.025C35.775 582.025 36.75 583 36.75 584.275C36.75 585.55 35.775 586.525 34.5 586.525C33.225 586.525 32.25 585.55 32.25 584.275C32.25 583 33.225 582.025 34.5 582.025ZM34.5 589.525C32.4 589.525 30.75 591.175 30.75 593.275C30.75 595.375 32.4 597.025 34.5 597.025C36.6 597.025 38.25 595.375 38.25 593.275C38.25 591.175 36.6 589.525 34.5 589.525ZM34.5 595.525C33.225 595.525 32.25 594.55 32.25 593.275C32.25 592 33.225 591.025 34.5 591.025C35.775 591.025 36.75 592 36.75 593.275C36.75 594.475 35.775 595.525 34.5 595.525Z" fill="#898A8B" fill-opacity="0.6"/>
<path d="M36.9899 685.538L35.6849 685.103C35.5962 684.833 35.4884 684.57 35.3624 684.315L35.9999 683.093C36.0693 682.952 36.0929 682.793 36.0673 682.638C36.0418 682.484 35.9684 682.341 35.8574 682.23L34.7699 681.165C34.6618 681.05 34.5202 680.973 34.3654 680.943C34.2105 680.913 34.0503 680.933 33.9074 681L32.6849 681.615C32.4304 681.489 32.1672 681.381 31.8974 681.293L31.4999 680.01C31.4478 679.855 31.3462 679.721 31.2108 679.629C31.0753 679.537 30.9135 679.492 30.7499 679.5H29.2499C29.0927 679.5 28.9393 679.549 28.8115 679.64C28.6836 679.732 28.5878 679.861 28.5374 680.01L28.1024 681.315C27.8326 681.404 27.5695 681.512 27.3149 681.638L26.0924 681C25.9518 680.931 25.793 680.907 25.6383 680.933C25.4836 680.958 25.3408 681.032 25.2299 681.143L24.1649 682.23C24.0503 682.338 23.9726 682.48 23.943 682.635C23.9134 682.789 23.9333 682.95 23.9999 683.093L24.6149 684.315C24.4889 684.57 24.3812 684.833 24.2924 685.103L22.9874 685.538C22.8427 685.592 22.7182 685.689 22.6309 685.817C22.5436 685.944 22.4979 686.096 22.4999 686.25V687.75C22.4995 687.907 22.5486 688.061 22.6401 688.189C22.7316 688.316 22.861 688.412 23.0099 688.463L24.3149 688.898C24.4037 689.167 24.5114 689.431 24.6374 689.685L23.9999 690.908C23.9306 691.048 23.907 691.207 23.9325 691.362C23.9581 691.516 24.0315 691.659 24.1424 691.77L25.2074 692.835C25.3172 692.955 25.4629 693.035 25.6224 693.065C25.782 693.095 25.9469 693.072 26.0924 693L27.3149 692.385C27.5695 692.511 27.8326 692.619 28.1024 692.708L28.5374 694.013C28.5915 694.157 28.689 694.282 28.8165 694.369C28.9441 694.456 29.0954 694.502 29.2499 694.5H30.7499C30.9072 694.5 31.0606 694.451 31.1884 694.36C31.3163 694.268 31.4121 694.139 31.4624 693.99L31.8974 692.685C32.1672 692.596 32.4304 692.489 32.6849 692.363L33.9074 692.978C34.0481 693.047 34.2069 693.071 34.3616 693.045C34.5163 693.019 34.6591 692.946 34.7699 692.835L35.8349 691.77C35.9496 691.662 36.0273 691.52 36.0569 691.365C36.0865 691.211 36.0666 691.05 35.9999 690.908L35.3849 689.685C35.5109 689.431 35.6187 689.167 35.7074 688.898L36.9899 688.5C37.1452 688.448 37.2791 688.346 37.3712 688.211C37.4632 688.075 37.5085 687.914 37.4999 687.75V686.25C37.5003 686.093 37.4513 685.939 37.3598 685.812C37.2683 685.684 37.1389 685.588 36.9899 685.538ZM29.9999 690C29.4066 690 28.8266 689.824 28.3332 689.494C27.8399 689.165 27.4554 688.696 27.2283 688.148C27.0012 687.6 26.9418 686.997 27.0576 686.415C27.1733 685.833 27.4591 685.298 27.8786 684.879C28.2982 684.459 28.8327 684.173 29.4147 684.058C29.9966 683.942 30.5998 684.001 31.148 684.228C31.6962 684.455 32.1647 684.84 32.4944 685.333C32.824 685.827 32.9999 686.407 32.9999 687C32.9999 687.796 32.6839 688.559 32.1213 689.121C31.5587 689.684 30.7956 690 29.9999 690Z" fill="#898A8B" fill-opacity="0.6"/>
<g clip-path="url(#clip0_93_5795)">
<path d="M30 385.275L21.75 391.875V402H38.25V391.875L30 385.275ZM36.75 400.5H23.25V392.625L30 387.225L36.75 392.625V400.5ZM25.5 399H34.5V397.5H25.5V399Z" fill="#15181A"/>
</g>
<path d="M36 497.75V496.25C36 495.454 35.6839 494.691 35.1213 494.129C34.5587 493.566 33.7956 493.25 33 493.25H27C26.2044 493.25 25.4413 493.566 24.8787 494.129C24.3161 494.691 24 495.454 24 496.25V497.75" stroke="#898A8B" stroke-opacity="0.6" stroke-width="2" stroke-linecap="round" stroke-linejoin="round"/>
<path d="M30 490.25C31.6569 490.25 33 488.907 33 487.25C33 485.593 31.6569 484.25 30 484.25C28.3431 484.25 27 485.593 27 487.25C27 488.907 28.3431 490.25 30 490.25Z" stroke="#898A8B" stroke-opacity="0.6" stroke-width="2" stroke-linecap="round" stroke-linejoin="round"/>
<rect y="59" width="60" height="1" fill="#E4E4E4"/>
<rect x="60" width="1" height="1080" fill="#E4E4E4"/>
<path d="M35.7484 35.4017L28.9355 22.2735H27.0903L19 38H27.9419L29.6452 34.5812L27.8 31.9829L26.0968 35.4017H23.4L27.8 26.5128H28.2258L34.0452 38H41V22H38.0194V26.7863V35.4017H35.7484Z" fill="#15181A" stroke="#15181A"/>
<defs>
<filter id="filter0_b_93_5795" x="-15" y="-15" width="90" height="1110" filterUnits="userSpaceOnUse" color-interpolation-filters="sRGB">
<feFlood flood-opacity="0" result="BackgroundImageFix"/>
<feGaussianBlur in="BackgroundImage" stdDeviation="7.5"/>
<feComposite in2="SourceAlpha" operator="in" result="effect1_backgroundBlur_93_5795"/>
<feBlend mode="normal" in="SourceGraphic" in2="effect1_backgroundBlur_93_5795" result="shape"/>
</filter>
<radialGradient id="paint0_radial_93_5795" cx="0" cy="0" r="1" gradientUnits="userSpaceOnUse" gradientTransform="translate(30 540) rotate(90) scale(1754.5 97.4722)">
<stop stop-color="white"/>
<stop offset="1" stop-color="white" stop-opacity="0.5"/>
</radialGradient>
<clipPath id="clip0_93_5795">
<rect width="18" height="18" fill="white" transform="translate(21 384)"/>
</clipPath>
</defs>
</svg>
