<svg width="1121" height="104" viewBox="0 0 1121 104" fill="none" xmlns="http://www.w3.org/2000/svg">
<line x1="300.5" y1="-2.18557e-08" x2="300.5" y2="104" stroke="#E4E4E4"/>
<line x1="714.5" y1="-2.18557e-08" x2="714.5" y2="104" stroke="#E4E4E4"/>
<path fill-rule="evenodd" clip-rule="evenodd" d="M42.0938 69.9103C42.0938 69.9206 42.0994 69.9281 42.0994 69.9375C42.0994 69.9422 42.0966 69.9469 42.0966 69.9525C42.0975 69.9572 42.0994 69.9619 42.0994 69.9675C42.0994 70.485 41.6803 70.905 41.1619 70.905C41.1759 70.9041 32.8125 70.875 32.8125 70.875C32.2941 70.875 31.875 70.455 31.875 69.9375C31.875 69.4191 32.2941 69 32.8125 69H40.2619C40.2797 68.6869 40.3125 68.3794 40.3125 68.0625C40.3125 58.2253 32.3372 50.25 22.5 50.25C12.6628 50.25 4.6875 58.2253 4.6875 68.0625C4.6875 68.3794 4.72031 68.6869 4.73719 69H12.1875C12.7059 69 13.125 69.4191 13.125 69.9375C13.125 70.455 12.7059 70.875 12.1875 70.875C12.1875 70.875 3.825 70.9041 3.83812 70.9041C3.31969 70.9041 2.90063 70.4841 2.90063 69.9666C2.90063 69.9609 2.9025 69.9562 2.90344 69.9516C2.90344 69.9459 2.90063 69.9413 2.90063 69.9366C2.90063 69.9263 2.90625 69.9188 2.90625 69.9103C2.84906 69.3009 2.8125 68.6859 2.8125 68.0625C2.8125 57.1884 11.6269 48.375 22.5 48.375C33.3731 48.375 42.1875 57.1884 42.1875 68.0625C42.1875 68.6859 42.1509 69.3009 42.0938 69.9103ZM16.4278 58.8075C16.7963 58.605 17.2387 58.6725 17.5425 58.9322L17.4956 58.8544C25.7213 64.8731 27.4116 67.6416 27.4425 67.6931C28.7859 69.9028 27.9872 72.7284 25.6622 74.0034C23.3372 75.2784 20.3625 74.5219 19.02 72.3122C18.9872 72.2625 17.31 69.4866 15.9347 59.7103L15.9825 59.7872C15.8991 59.4084 16.0603 59.0091 16.4278 58.8075ZM20.7056 71.3897C21.2259 72.2437 22.1953 72.7753 23.2359 72.7753C23.7441 72.7753 24.2475 72.6469 24.6909 72.4031C25.3659 72.0328 25.8488 71.4366 26.0503 70.7212C26.2528 70.005 26.1487 69.2588 25.7662 68.6288C25.7503 68.6053 24.2925 66.3919 18.2081 61.74C19.4091 69.0666 20.6953 71.3709 20.7056 71.3897Z" fill="#15181A"/>
<text fill="#15181A" xml:space="preserve" style="white-space: pre" font-family="Montserrat" font-size="36" font-weight="500" letter-spacing="0em"><tspan x="93" y="87.906">340 HP</tspan></text>
<text opacity="0.5" fill="#15181A" xml:space="preserve" style="white-space: pre" font-family="Montserrat" font-size="16" font-weight="bold" letter-spacing="0em"><tspan x="90" y="40.736">POWER OUTPUT</tspan></text>
<text fill="#E23620" xml:space="preserve" style="white-space: pre" font-family="Montserrat" font-size="36" font-weight="500" letter-spacing="0em"><tspan x="463" y="87.906">1,680 KG</tspan></text>
<text opacity="0.5" fill="#15181A" xml:space="preserve" style="white-space: pre" font-family="Montserrat" font-size="16" font-weight="bold" letter-spacing="0em"><tspan x="460" y="40.736">WEIGHT</tspan></text>
<g opacity="0.8">
<path d="M402.5 42.25H377.5C376.679 42.25 375.867 42.4117 375.108 42.7258C374.35 43.0398 373.661 43.5002 373.081 44.0806C371.908 45.2527 371.25 46.8424 371.25 48.5V73.5C371.25 75.1576 371.908 76.7473 373.081 77.9194C373.661 78.4998 374.35 78.9602 375.108 79.2742C375.867 79.5883 376.679 79.75 377.5 79.75H402.5C404.158 79.75 405.747 79.0915 406.919 77.9194C408.092 76.7473 408.75 75.1576 408.75 73.5V48.5C408.75 47.6792 408.588 46.8665 408.274 46.1082C407.96 45.3499 407.5 44.6609 406.919 44.0806C406.339 43.5002 405.65 43.0398 404.892 42.7258C404.133 42.4117 403.321 42.25 402.5 42.25V42.25ZM406.25 73.5C406.25 74.4946 405.855 75.4484 405.152 76.1517C404.448 76.8549 403.495 77.25 402.5 77.25H377.5C376.505 77.25 375.552 76.8549 374.848 76.1517C374.145 75.4484 373.75 74.4946 373.75 73.5V48.5C373.75 47.5054 374.145 46.5516 374.848 45.8483C375.552 45.1451 376.505 44.75 377.5 44.75H402.5C403.495 44.75 404.448 45.1451 405.152 45.8483C405.855 46.5516 406.25 47.5054 406.25 48.5V73.5Z" fill="#15181A"/>
<path d="M397.5 47.25H382.5C382.168 47.25 381.851 47.3817 381.616 47.6161C381.382 47.8505 381.25 48.1685 381.25 48.5V56C381.25 56.3315 381.382 56.6495 381.616 56.8839C381.851 57.1183 382.168 57.25 382.5 57.25H397.5C397.832 57.25 398.149 57.1183 398.384 56.8839C398.618 56.6495 398.75 56.3315 398.75 56V48.5C398.75 48.1685 398.618 47.8505 398.384 47.6161C398.149 47.3817 397.832 47.25 397.5 47.25ZM396.25 54.75H383.75V49.75H396.25V54.75Z" fill="#15181A"/>
</g>
<path d="M635.5 75H641.499V85.5H650.499V75H656.499L645.999 64.5L635.5 75Z" fill="#E23620"/>
<text fill="#469931" xml:space="preserve" style="white-space: pre" font-family="Montserrat" font-size="36" font-weight="500" letter-spacing="0em"><tspan x="877" y="87.906">1,270 Ton</tspan></text>
<text opacity="0.5" fill="#15181A" xml:space="preserve" style="white-space: pre" font-family="Montserrat" font-size="16" font-weight="bold" letter-spacing="0em"><tspan x="874" y="40.736">CO2 EMISSIONS</tspan></text>
<path d="M1072.5 76L1066.5 76L1066.5 65.5L1057.5 65.5L1057.5 76L1051.5 76L1062 86.5L1072.5 76Z" fill="#469931"/>
<g opacity="0.8" clip-path="url(#clip0_40_1719)">
<path d="M821.125 44.4587C820.991 43.8962 820.486 43.5 819.91 43.5C819.907 43.5 819.905 43.5 819.902 43.5C813.318 43.5412 797.308 44.645 790.845 53.975C787.487 58.8225 787.198 65.1162 789.986 72.6812C790.007 72.74 790.051 72.78 790.08 72.8337C789.083 75.3 788.697 76.9413 788.687 76.9875C788.542 77.6625 788.973 78.3275 789.648 78.4725C789.736 78.4913 789.823 78.5 789.911 78.5C790.487 78.5 791.006 78.0987 791.132 77.5125C791.158 77.385 794.343 64.5462 805.603 57.04C806.178 56.6575 806.333 55.8812 805.95 55.3062C805.566 54.7312 804.791 54.575 804.216 54.96C797.831 59.2163 793.898 64.97 791.586 69.53C789.931 63.8075 790.365 59.0588 792.901 55.3988C797.892 48.1938 809.731 46.4563 816.877 46.0888C815.34 48.34 813.66 52.4675 813.66 59.75C813.66 63.65 812.553 66.6525 810.373 68.675C806.878 71.9137 801.201 72.2175 797.048 71.905C796.358 71.8488 795.76 72.3687 795.707 73.0575C795.655 73.745 796.171 74.345 796.858 74.3975C797.69 74.4613 798.577 74.5 799.5 74.5C803.727 74.5 808.658 73.6713 812.072 70.5075C814.785 67.9938 816.16 64.375 816.16 59.7513C816.16 48.3775 820.447 45.8812 820.468 45.87C820.988 45.6087 821.261 45.0237 821.125 44.4587Z" fill="black"/>
</g>
<circle cx="1101" cy="61" r="20" fill="white"/>
<path d="M1107.78 57.6686L1107.32 57.2219C1107.17 57.0824 1106.98 57.0055 1106.78 57.0055C1106.57 57.0055 1106.38 57.0824 1106.23 57.2219L1101 62.2831L1095.77 57.2163C1095.62 57.0768 1095.43 57 1095.22 57C1095.02 57 1094.83 57.0768 1094.68 57.2163L1094.22 57.6603C1093.93 57.949 1093.93 58.4193 1094.22 58.708L1100.46 64.7624C1100.6 64.9018 1100.8 65 1101 65H1101.01C1101.21 65 1101.4 64.9017 1101.55 64.7624L1107.78 58.7244C1107.92 58.585 1108 58.3936 1108 58.1952C1108 57.9967 1107.92 57.8079 1107.78 57.6686Z" fill="#15181A"/>
<defs>
<clipPath id="clip0_40_1719">
<rect width="40" height="40" fill="white" transform="translate(784 41)"/>
</clipPath>
</defs>
</svg>
