<svg width="333" height="97" viewBox="0 0 333 97" fill="none" xmlns="http://www.w3.org/2000/svg">
<path d="M96.5512 80.1657L57.6829 2.42908H47.1561L1 95.551H52.0146L61.7317 75.3071L51.2049 59.9218L41.4878 80.1657H26.1024L51.2049 27.5315H53.6341L86.8341 95.551H126.512V0.80957H109.507V29.151V80.1657H96.5512Z" fill="white"/>
<path fill-rule="evenodd" clip-rule="evenodd" d="M109.008 0.30957H127.012V96.051H86.522L53.322 28.0315H51.5206L26.8951 79.6657H41.1734L51.1289 58.925L62.3077 75.2631L52.3295 96.051H0.194336L46.8461 1.92908H57.9922L96.8604 79.6657H109.008V0.30957ZM110.008 1.30957V80.6657H96.2424L57.3741 2.92908H47.4665L1.80608 95.051H51.7002L61.1562 75.3511L51.2813 60.9185L41.8026 80.6657H25.3102L50.8896 27.0315H53.9467L87.1467 95.051H126.012V1.30957H110.008Z" fill="white"/>
<path d="M149.995 0H167.81V96.361H149.995V0Z" fill="white"/>
<path d="M185.625 46.439C185.625 40.9161 190.102 36.439 195.625 36.439H200.2V96.3609H195.625C190.102 96.3609 185.625 91.8838 185.625 86.3609V46.439Z" fill="white"/>
<path d="M239.068 46.439C239.068 40.9161 243.546 36.439 249.068 36.439H256.883V96.3609H239.068V46.439Z" fill="white"/>
<path d="M279.926 36.439L279.926 54.2536L239.438 54.2536L239.438 46.439C239.438 40.9161 243.915 36.439 249.438 36.439L279.926 36.439Z" fill="white"/>
<path d="M227.732 36.439L227.732 49.3951L185.625 49.3951L185.625 46.439C185.625 40.9161 190.102 36.439 195.625 36.439L227.732 36.439Z" fill="white"/>
<path d="M227.732 59.1123L227.732 73.6879L185.625 73.6879L185.625 59.1123L227.732 59.1123Z" fill="white"/>
<path d="M325.712 36.439C329.737 36.439 333 39.7018 333 43.7268V43.7268C333 47.7517 329.737 51.0146 325.712 51.0146L293.322 51.0146C289.297 51.0146 286.034 47.7517 286.034 43.7268V43.7268C286.034 39.7018 289.297 36.439 293.322 36.439L325.712 36.439Z" fill="white"/>
<path d="M325.712 81.7852C329.737 81.7852 333 85.048 333 89.073V89.073C333 93.0979 329.737 96.3608 325.712 96.3608L293.322 96.3608C289.297 96.3608 286.034 93.0979 286.034 89.073V89.073C286.034 85.048 289.297 81.7852 293.322 81.7852L325.712 81.7852Z" fill="white"/>
<path d="M300.61 89.073C300.61 93.098 297.347 96.3608 293.322 96.3608V96.3608C289.297 96.3608 286.034 93.098 286.034 89.073L286.034 43.7267C286.034 39.7017 289.297 36.4389 293.322 36.4389V36.4389C297.347 36.4389 300.61 39.7018 300.61 43.7267L300.61 89.073Z" fill="white"/>
<path d="M333 89.073C333 93.098 329.737 96.3608 325.712 96.3608V96.3608C321.687 96.3608 318.424 93.098 318.424 89.073L318.424 43.7267C318.424 39.7017 321.687 36.4389 325.712 36.4389V36.4389C329.737 36.4389 333 39.7018 333 43.7267L333 89.073Z" fill="white"/>
<path d="M227.732 83.4048L227.732 96.3609L195.625 96.3609C190.102 96.3609 185.625 91.8837 185.625 86.3609L185.625 83.4048L227.732 83.4048Z" fill="white"/>
<path d="M179.146 18.6245L179.146 26.4391C179.146 31.962 174.669 36.4391 169.146 36.4391L138.659 36.4391L138.659 18.6245L179.146 18.6245Z" fill="white"/>
</svg>
